# Blender 5.1.2
# www.blender.org
mtllib paper.mtl
o Paper_Plocha.019
v 0.008830 -1.310933 0.988861
v 0.008830 -1.310933 -0.981861
v 0.008830 1.578718 0.951714
v 0.008830 1.578718 -0.961609
v 0.008830 -1.258927 -0.393013
v 0.008830 1.667871 -0.157745
v 0.008830 -0.007864 1.000145
v 0.008830 0.133892 -0.986256
v 0.008830 0.204472 -0.275379
v 0.008830 1.129692 -0.939487
v 0.008830 0.936171 -0.216564
v 0.008830 1.038563 1.021492
v 0.008830 -0.497392 1.050194
v 0.008830 -0.568270 -0.943554
v 0.008830 -0.527228 -0.334194
v 0.008830 -0.956578 1.039204
v 0.008830 0.379636 1.000401
v 0.008830 0.703843 1.011097
v 0.008830 -0.986995 -0.949211
v 0.008830 0.664533 -0.926121
v 0.008830 -1.293425 -0.668972
v 0.008830 -1.297561 0.131611
v -0.008843 -0.956578 1.039204
v -0.008843 -1.310933 0.988861
v -0.008843 -1.293425 -0.668972
v -0.008843 -1.310933 -0.981861
v -0.008843 1.129692 -0.939487
v -0.008843 1.578718 -0.961609
v -0.008843 1.667871 -0.157745
v -0.008843 1.578718 0.951714
v -0.008843 -1.297561 0.131611
v -0.008843 -1.258927 -0.393013
v -0.008843 0.936171 -0.216564
v -0.008843 0.379636 1.000401
v -0.008843 -0.007864 1.000145
v -0.008843 -0.568270 -0.943554
v -0.008843 0.133892 -0.986256
v -0.008843 -0.527228 -0.334194
v -0.008843 0.204472 -0.275379
v -0.008843 0.664533 -0.926121
v -0.008843 1.038563 1.021492
v -0.008843 -0.497392 1.050194
v -0.008843 -0.986995 -0.949211
v -0.008843 0.703843 1.011097
vn 1.0000 -0.0000 -0.0000
vn -1.0000 -0.0000 -0.0000
vn -0.0000 -0.9923 0.1240
vn -0.0000 0.9968 0.0801
vn -0.0000 0.0135 -0.9999
vn -0.0000 -0.0310 0.9995
vn -0.0000 -0.0320 0.9995
vn -0.0000 -0.9973 -0.0734
vn -0.0000 -0.9999 -0.0156
vn -0.0000 -0.0287 -0.9996
vn -0.0000 0.9939 -0.1102
vn -0.0000 0.1003 -0.9950
vn -0.0000 0.1281 0.9918
vn -0.0000 -0.0007 1.0000
vn -0.0000 -0.0239 0.9997
vn -0.0000 -0.1407 0.9901
vn -0.0000 0.1126 -0.9936
vn -0.0000 -0.0607 -0.9982
vn -0.0000 -0.9984 0.0559
vn -0.0000 -0.0330 0.9995
vn -0.0000 -0.0492 -0.9988
vn -0.0000 0.1017 0.9948
vt 0.617896 0.534956
vt 0.535760 0.591502
vt 0.541940 0.514623
vt 0.419192 0.582134
vt 0.411860 0.525381
vt 0.554299 0.360867
vt 0.414103 0.415435
vt 0.408844 0.364002
vt 0.622810 0.430329
vt 0.548120 0.437745
vt 0.414076 0.456149
vt 0.616492 0.486083
vt 0.560479 0.283989
vt 0.589474 0.280364
vt 0.505358 0.279929
vt 0.409999 0.315756
vt 0.415288 0.278524
vt 0.412952 0.490213
vt 0.618918 0.312560
vt 0.618324 0.356555
vt 0.620220 0.582134
vt 0.622348 0.278524
s 1
usemtl Materiál.099
f 10/1/1 6/2/1 11/3/1
f 11/3/1 3/4/1 12/5/1
f 15/6/1 7/7/1 13/8/1
f 15/6/1 8/9/1 9/10/1
f 7/7/1 9/10/1 17/11/1
f 9/10/1 8/9/1 20/12/1
f 5/13/1 21/14/1 15/6/1
f 22/15/1 16/16/1 1/17/1
f 16/16/1 15/6/1 13/8/1
f 17/11/1 11/3/1 18/18/1
f 18/18/1 11/3/1 12/5/1
f 15/6/1 19/19/1 14/20/1
f 20/12/1 11/3/1 9/10/1
f 21/14/1 19/19/1 15/6/1
f 15/6/1 22/15/1 5/13/1
f 29/2/2 27/1/2 33/3/2
f 30/4/2 33/3/2 41/5/2
f 35/7/2 38/6/2 42/8/2
f 38/6/2 37/9/2 36/20/2
f 35/7/2 34/11/2 39/10/2
f 39/10/2 40/12/2 37/9/2
f 32/13/2 38/6/2 25/14/2
f 23/16/2 31/15/2 24/17/2
f 23/16/2 42/8/2 38/6/2
f 34/11/2 33/3/2 39/10/2
f 44/18/2 41/5/2 33/3/2
f 38/6/2 36/20/2 43/19/2
f 40/12/2 33/3/2 27/1/2
f 43/19/2 25/14/2 38/6/2
f 38/6/2 32/13/2 31/15/2
f 32/13/3 21/14/3 5/13/3
f 29/2/4 3/4/4 6/2/4
f 43/19/5 14/20/5 19/19/5
f 41/5/6 18/18/7 12/5/6
f 31/15/8 5/13/8 22/15/8
f 24/17/9 22/15/9 1/17/9
f 40/12/10 10/1/10 20/12/10
f 28/21/11 6/2/11 4/21/11
f 26/22/12 19/19/12 2/22/12
f 30/4/13 12/5/13 3/4/13
f 34/11/14 7/7/14 17/11/14
f 42/8/15 16/16/15 13/8/15
f 23/16/16 1/17/16 16/16/16
f 37/9/17 20/12/17 8/9/17
f 36/20/18 8/9/18 14/20/18
f 25/14/19 2/22/19 21/14/19
f 44/18/7 17/11/20 18/18/7
f 27/1/21 4/21/21 10/1/21
f 35/7/22 13/8/22 7/7/22
f 10/1/1 4/21/1 6/2/1
f 11/3/1 6/2/1 3/4/1
f 15/6/1 9/10/1 7/7/1
f 15/6/1 14/20/1 8/9/1
f 22/15/1 15/6/1 16/16/1
f 17/11/1 9/10/1 11/3/1
f 20/12/1 10/1/1 11/3/1
f 21/14/1 2/22/1 19/19/1
f 29/2/2 28/21/2 27/1/2
f 30/4/2 29/2/2 33/3/2
f 35/7/2 39/10/2 38/6/2
f 38/6/2 39/10/2 37/9/2
f 23/16/2 38/6/2 31/15/2
f 34/11/2 44/18/2 33/3/2
f 40/12/2 39/10/2 33/3/2
f 43/19/2 26/22/2 25/14/2
f 32/13/3 25/14/3 21/14/3
f 29/2/4 30/4/4 3/4/4
f 43/19/5 36/20/5 14/20/5
f 41/5/6 44/18/7 18/18/7
f 31/15/8 32/13/8 5/13/8
f 24/17/9 31/15/9 22/15/9
f 40/12/10 27/1/10 10/1/10
f 28/21/11 29/2/11 6/2/11
f 26/22/12 43/19/12 19/19/12
f 30/4/13 41/5/13 12/5/13
f 34/11/14 35/7/14 7/7/14
f 42/8/15 23/16/15 16/16/15
f 23/16/16 24/17/16 1/17/16
f 37/9/17 40/12/17 20/12/17
f 36/20/18 37/9/18 8/9/18
f 25/14/19 26/22/19 2/22/19
f 44/18/7 34/11/20 17/11/20
f 27/1/21 28/21/21 4/21/21
f 35/7/22 42/8/22 13/8/22
