# Blender 5.1.2
# www.blender.org
mtllib llave.mtl
o Object_2
v 5.175197 0.599342 0.200000
v 5.076164 0.455398 0.200000
v 5.244562 0.599525 0.200000
v 5.346068 0.375732 0.200000
v 5.345234 0.499790 0.200000
v 2.890000 0.800000 0.200000
v 2.890000 0.200000 0.200000
v 3.267699 0.735929 0.200000
v 3.267401 0.780253 0.200000
v 3.267137 0.786877 0.200000
v 3.266434 0.793469 0.200000
v 3.265297 0.800000 0.200000
v 5.777977 0.413063 0.200000
v 5.778019 0.406869 0.200000
v 6.075958 0.713846 0.200000
v 5.648894 0.276530 0.200000
v 6.797822 0.200000 0.200000
v 3.689212 0.624981 0.200000
v 3.789884 0.525246 0.200000
v 6.793127 0.210764 0.200000
v 6.787201 0.220902 0.200000
v 3.588458 0.736773 0.200000
v 6.780128 0.230277 0.200000
v 6.328403 0.714472 0.200000
v 3.689131 0.637038 0.200000
v 6.328403 0.714510 0.200000
v 5.446741 0.275997 0.200000
v 4.883085 0.354890 0.200000
v 4.342308 0.441742 0.200000
v 3.993904 0.625783 0.200000
v 3.894577 0.525522 0.200000
v 4.241635 0.541476 0.200000
v 3.993843 0.634790 0.200000
v 4.093170 0.735051 0.200000
v 4.140331 0.735175 0.200000
v 4.241003 0.635441 0.200000
v 4.516884 0.542201 0.200000
v 4.417557 0.441940 0.200000
v 4.782412 0.454625 0.200000
v 4.516824 0.551132 0.200000
v 4.616151 0.651392 0.200000
v 4.681086 0.651563 0.200000
v 4.781759 0.551829 0.200000
v 4.976837 0.355137 0.200000
v 5.075870 0.499081 0.200000
v 2.826360 0.200000 0.226360
v 2.812058 0.200000 0.245000
v 2.803067 0.200000 0.266706
v 2.866706 0.200000 0.203067
v 2.845000 0.200000 0.212058
v 2.800000 0.200000 0.290000
v 2.800000 0.200000 0.300000
v 6.797822 0.200000 0.300000
v 2.866706 0.800000 0.203067
v 2.845000 0.800000 0.212058
v 2.826360 0.800000 0.226360
v 2.812058 0.800000 0.245000
v 2.803067 0.800000 0.266706
v 2.800000 0.800000 0.290000
v 6.794876 0.123783 -0.000000
v 6.779572 0.100000 0.100000
v 6.779572 0.100000 -0.000000
v 6.779178 0.099547 0.300000
v 6.779178 0.099547 0.100000
v 6.779310 0.099698 0.100000
v 6.779441 0.099849 0.100000
v 6.793952 0.121821 0.300000
v 6.802297 0.147213 0.300000
v 6.802910 0.150899 -0.000000
v 6.803619 0.173908 0.300000
v 6.803030 0.179180 -0.000000
v 6.795228 0.206364 -0.000000
v 6.780128 0.230277 -0.000000
v 2.800000 0.800000 0.300000
v 3.265297 0.800000 0.300000
v 6.328403 0.714472 -0.000000
v 3.192965 0.876258 -0.000000
v 3.167140 0.879580 -0.000000
v 3.167140 0.879580 0.300000
v 3.217057 0.866382 -0.000000
v 3.194166 0.875933 0.300000
v 3.237783 0.850621 -0.000000
v 3.219201 0.865120 0.300000
v 3.253737 0.830044 -0.000000
v 3.240384 0.847946 0.300000
v 3.256140 0.825687 0.300000
v 3.263838 0.806045 -0.000000
v 3.267401 0.780253 -0.000000
v 6.328403 0.714510 -0.000000
v 3.267699 0.735929 -0.000000
v 6.075958 0.713846 -0.000000
v 3.588458 0.736773 -0.000000
v 5.777977 0.413063 -0.000000
v 3.689131 0.637038 -0.000000
v 5.778019 0.406869 -0.000000
v 3.689212 0.624981 -0.000000
v 5.648894 0.276530 -0.000000
v 3.789884 0.525246 -0.000000
v 5.446741 0.275997 -0.000000
v 3.894577 0.525522 -0.000000
v 5.346068 0.375732 -0.000000
v 3.993904 0.625783 -0.000000
v 5.345234 0.499790 -0.000000
v 3.993843 0.634790 -0.000000
v 5.244562 0.599525 -0.000000
v 4.093170 0.735051 -0.000000
v 5.175197 0.599342 -0.000000
v 4.140331 0.735175 -0.000000
v 5.075870 0.499081 -0.000000
v 4.241003 0.635441 -0.000000
v 5.076164 0.455398 -0.000000
v 4.241635 0.541476 -0.000000
v 4.976837 0.355137 -0.000000
v 4.342308 0.441742 -0.000000
v 4.883085 0.354890 -0.000000
v 4.417557 0.441940 -0.000000
v 4.782412 0.454625 -0.000000
v 4.516884 0.542201 -0.000000
v 4.781759 0.551829 -0.000000
v 4.516824 0.551132 -0.000000
v 4.681086 0.651563 -0.000000
v 4.616151 0.651392 -0.000000
v 0.688033 1.350736 0.300000
v 0.798242 1.469970 0.300000
v 0.734918 1.417950 0.300000
v 0.954434 1.514319 0.300000
v 0.873281 1.502912 0.300000
v 0.886836 0.843974 0.300000
v 0.291962 0.574972 0.300000
v 0.902765 0.864622 0.300000
v 0.923491 0.880450 0.300000
v 0.947604 0.890381 0.300000
v 0.973466 0.893740 0.300000
v 0.999316 0.890298 0.300000
v 1.023397 0.880289 0.300000
v 1.044072 0.864394 0.300000
v 0.696056 0.515581 0.300000
v 0.673937 0.468542 0.300000
v 0.660269 0.418392 0.300000
v 0.262651 0.484239 0.300000
v 0.259160 0.436539 0.300000
v 0.273679 0.530777 0.300000
v 0.655463 0.366635 0.300000
v 1.684957 0.927609 0.300000
v 1.069903 0.819596 0.300000
v 1.073304 0.793740 0.300000
v 1.059933 0.843693 0.300000
v 2.480029 1.518334 0.300000
v 1.779608 0.928703 0.300000
v 1.679601 0.650115 0.300000
v 1.923489 0.884787 0.300000
v 1.779344 0.750404 0.300000
v 2.003664 0.888737 0.300000
v 1.923644 0.757643 0.300000
v 2.122241 0.930162 0.300000
v 2.691956 1.431458 0.300000
v 2.557503 1.508369 0.300000
v 2.629779 1.478741 0.300000
v 2.214401 0.939540 0.300000
v 0.649625 -0.631658 0.300000
v 0.268051 -0.885341 0.300000
v 0.653009 -0.658046 0.300000
v 1.679289 0.347446 0.300000
v 0.663233 -0.682608 0.300000
v 2.121016 0.764040 0.300000
v 2.001156 0.761105 0.300000
v 0.679570 -0.703605 0.300000
v 0.278741 -0.962718 0.300000
v 0.309044 -1.034714 0.300000
v 1.680762 0.249945 0.300000
v 0.356907 -1.096445 0.300000
v 0.700866 -0.719551 0.300000
v 2.770122 1.297731 0.300000
v 2.739818 1.369726 0.300000
v 2.780812 1.220353 0.300000
v 0.419084 -1.143728 0.300000
v 2.116903 0.545578 0.300000
v 2.204107 0.547720 0.300000
v 2.213979 0.661820 0.300000
v 0.491359 -1.173357 0.300000
v 1.690051 0.013137 0.300000
v 1.073304 -0.311908 0.300000
v 0.568834 -1.183322 0.300000
v 0.725614 -0.729317 0.300000
v 0.752060 -0.732213 0.300000
v 0.778334 -0.728032 0.300000
v 0.802576 -0.717072 0.300000
v 0.823070 -0.700107 0.300000
v 2.119733 0.358264 0.300000
v 1.689202 -0.087981 0.300000
v 2.782441 0.978158 0.300000
v 2.786004 0.952366 0.300000
v 1.691420 -0.265398 0.300000
v 2.796105 0.928367 0.300000
v 2.812059 0.907790 0.300000
v 2.832785 0.892029 0.300000
v 2.856877 0.882153 0.300000
v 2.882702 0.878831 0.300000
v 1.693651 -0.346148 0.300000
v 1.064078 -0.385733 0.300000
v 2.208193 0.048055 0.300000
v 2.059156 0.017737 0.300000
v 2.063747 -0.073906 0.300000
v 1.690663 -0.572478 0.300000
v 1.036970 -0.455018 0.300000
v 1.862195 -0.452125 0.300000
v 2.216801 -0.120562 0.300000
v 1.693088 -0.660268 0.300000
v 0.993644 -0.515501 0.300000
v 2.208410 0.262905 0.300000
v 2.208941 0.137053 0.300000
v 2.217557 -0.408940 0.300000
v 2.216087 -0.205587 0.300000
v 1.914560 -0.405703 0.300000
v 2.800000 -0.100000 0.300000
v 2.800000 -0.200000 0.300000
v 2.811286 -0.651770 0.300000
v 2.220021 -0.498160 0.300000
v 2.831981 -0.635747 0.300000
v 2.795457 -0.672614 0.300000
v 2.856125 -0.625643 0.300000
v 2.785579 -0.696852 0.300000
v 2.882063 -0.622150 0.300000
v 2.782329 -0.722822 0.300000
v 3.278803 -0.279830 0.300000
v 2.783361 -0.876264 0.300000
v 2.484157 -1.178281 0.300000
v 1.913184 -0.505840 0.300000
v 2.743976 -1.026887 0.300000
v 2.773609 -0.954175 0.300000
v 2.696490 -1.089419 0.300000
v 2.561973 -1.167800 0.300000
v 2.634405 -1.137488 0.300000
v 3.180688 -0.621364 0.300000
v 3.280423 -0.520691 0.300000
v 3.277173 -0.546661 0.300000
v 3.267295 -0.570899 0.300000
v 3.206627 -0.617870 0.300000
v 3.230771 -0.607766 0.300000
v 3.251466 -0.591743 0.300000
v 6.604274 -0.100000 0.300000
v 6.516624 -0.200000 0.300000
v 6.453978 -0.271472 0.300000
v 2.800000 0.100000 0.100000
v 2.800000 0.100000 -0.000000
v 6.691925 0.000000 0.100000
v 2.800000 0.000000 0.100000
v 6.604274 -0.100000 0.200000
v 6.691925 0.000000 -0.000000
v 6.516624 -0.200000 0.200000
v 6.453978 -0.271472 0.000000
v 0.798242 1.469970 -0.000000
v 0.873281 1.502912 -0.000000
v 0.954434 1.514319 -0.000000
v 0.734918 1.417950 -0.000000
v 0.688033 1.350736 -0.000000
v 0.291962 0.574972 -0.000000
v 0.886836 0.843974 -0.000000
v 0.902765 0.864622 -0.000000
v 0.923491 0.880450 -0.000000
v 0.947604 0.890381 -0.000000
v 0.973466 0.893740 -0.000000
v 0.999316 0.890298 -0.000000
v 1.023397 0.880289 -0.000000
v 1.044072 0.864393 -0.000000
v 0.696056 0.515581 -0.000000
v 0.673937 0.468542 -0.000000
v 1.059933 0.843693 -0.000000
v 0.259160 0.436539 -0.000000
v 0.262651 0.484238 -0.000000
v 0.660269 0.418392 -0.000000
v 0.273679 0.530777 -0.000000
v 0.655463 0.366635 -0.000000
v 1.073304 0.793740 -0.000000
v 1.069903 0.819596 -0.000000
v 2.480029 1.518334 -0.000000
v 2.557503 1.508369 -0.000000
v 2.691956 1.431458 -0.000000
v 2.629779 1.478741 -0.000000
v 0.268051 -0.885341 0.000000
v 0.649625 -0.631658 0.000000
v 0.653009 -0.658046 0.000000
v 0.663233 -0.682608 0.000000
v 0.309044 -1.034714 0.000000
v 0.278741 -0.962719 0.000000
v 0.679570 -0.703605 0.000000
v 0.356907 -1.096445 0.000000
v 0.700866 -0.719551 0.000000
v 2.739818 1.369726 -0.000000
v 2.770122 1.297731 -0.000000
v 2.780812 1.220353 -0.000000
v 0.419084 -1.143728 0.000000
v 0.491359 -1.173357 0.000000
v 0.568834 -1.183322 0.000000
v 0.725614 -0.729317 0.000000
v 0.752060 -0.732213 0.000000
v 0.778334 -0.728032 0.000000
v 0.802576 -0.717072 0.000000
v 0.823070 -0.700107 0.000000
v 2.782441 0.978158 -0.000000
v 2.786004 0.952366 -0.000000
v 2.796105 0.928367 -0.000000
v 2.882702 0.878831 -0.000000
v 1.073304 -0.311908 0.000000
v 2.812059 0.907790 -0.000000
v 2.832785 0.892029 -0.000000
v 2.856877 0.882153 -0.000000
v 2.800000 0.000000 0.000000
v 2.811286 -0.651770 0.000000
v 2.831981 -0.635747 0.000000
v 2.795457 -0.672614 0.000000
v 2.856125 -0.625643 0.000000
v 2.785579 -0.696852 0.000000
v 1.064078 -0.385733 0.000000
v 2.882063 -0.622150 0.000000
v 3.278803 -0.279830 0.000000
v 1.036970 -0.455018 0.000000
v 2.484157 -1.178281 0.000000
v 0.993644 -0.515501 0.000000
v 2.782329 -0.722822 0.000000
v 2.783361 -0.876264 0.000000
v 2.773609 -0.954175 0.000000
v 2.743976 -1.026887 0.000000
v 2.561973 -1.167800 0.000000
v 2.634405 -1.137488 0.000000
v 2.696490 -1.089419 0.000000
v 3.280423 -0.520691 0.000000
v 3.180688 -0.621364 0.000000
v 3.277173 -0.546662 0.000000
v 3.267295 -0.570899 0.000000
v 3.206627 -0.617870 0.000000
v 3.230771 -0.607766 0.000000
v 3.251466 -0.591743 0.000000
v 2.800000 -0.100000 0.200000
v 2.800000 -0.200000 0.200000
v 2.220021 -0.498160 0.290000
v 2.217557 -0.408940 0.290000
v 1.914560 -0.405703 0.290000
v 1.691420 -0.265398 0.290000
v 1.693651 -0.346148 0.290000
v 1.862195 -0.452125 0.290000
v 1.690663 -0.572478 0.290000
v 1.693088 -0.660268 0.290000
v 1.913184 -0.505840 0.290000
v 1.680762 0.249945 0.290000
v 2.208410 0.262905 0.290000
v 2.204107 0.547720 0.290000
v 2.116903 0.545578 0.290000
v 2.119733 0.358264 0.290000
v 1.679289 0.347446 0.290000
v 2.216801 -0.120562 0.290000
v 2.216087 -0.205587 0.290000
v 2.063747 -0.073906 0.290000
v 2.059156 0.017737 0.290000
v 2.208193 0.048055 0.290000
v 2.208941 0.137053 0.290000
v 1.690051 0.013137 0.290000
v 1.689202 -0.087981 0.290000
v 1.679601 0.650115 0.290000
v 2.213979 0.661820 0.290000
v 2.214401 0.939540 0.290000
v 2.122241 0.930162 0.290000
v 2.121016 0.764040 0.290000
v 2.001156 0.761105 0.290000
v 2.003664 0.888737 0.290000
v 1.923489 0.884787 0.290000
v 1.923644 0.757643 0.290000
v 1.779344 0.750404 0.290000
v 1.779608 0.928703 0.290000
v 1.684957 0.927609 0.290000
v 1.775665 -0.034843 0.290000
v 1.996413 0.017508 0.290000
v 2.001002 -0.074101 0.290000
v 2.001002 -0.074101 0.300000
v 1.775665 -0.034843 0.300000
v 1.996413 0.017508 0.300000
v 2.001002 -0.074101 0.290000
v 2.001002 -0.074101 0.290000
v 1.996413 0.017508 0.290000
v 1.996413 0.017508 0.290000
v 1.775665 -0.034843 0.290000
v 1.775665 -0.034843 0.290000
v 1.779608 0.928703 0.290000
v 1.779608 0.928703 0.290000
v 1.779344 0.750404 0.290000
v 1.779344 0.750404 0.290000
v 1.923644 0.757643 0.290000
v 1.923644 0.757643 0.290000
v 2.003664 0.888737 0.290000
v 2.003664 0.888737 0.290000
v 2.001156 0.761105 0.290000
v 2.001156 0.761105 0.290000
v 2.122241 0.930162 0.290000
v 2.122241 0.930162 0.290000
v 2.208941 0.137053 0.290000
v 2.208941 0.137053 0.290000
v 2.208193 0.048055 0.290000
v 2.208193 0.048055 0.290000
v 2.059156 0.017737 0.290000
v 2.059156 0.017737 0.290000
v 2.063747 -0.073906 0.290000
v 2.063747 -0.073906 0.290000
v 2.216087 -0.205587 0.290000
v 2.216087 -0.205587 0.290000
v 2.216801 -0.120562 0.290000
v 2.216801 -0.120562 0.290000
v 1.679289 0.347446 0.290000
v 1.679289 0.347446 0.290000
v 2.204107 0.547720 0.290000
v 2.204107 0.547720 0.290000
v 1.775665 -0.034843 0.300000
v 1.775665 -0.034843 0.300000
v 2.208410 0.262905 0.290000
v 2.208410 0.262905 0.290000
v 1.913184 -0.505840 0.290000
v 1.680762 0.249945 0.290000
v 1.680762 0.249945 0.290000
v 1.693088 -0.660268 0.290000
v 1.693088 -0.660268 0.290000
v 1.693651 -0.346148 0.290000
v 1.693651 -0.346148 0.290000
v 1.691420 -0.265398 0.290000
v 1.691420 -0.265398 0.290000
v 2.217557 -0.408940 0.290000
v 2.217557 -0.408940 0.290000
v 2.220021 -0.498160 0.290000
v 2.220021 -0.498160 0.290000
v 2.800000 -0.200000 0.200000
v 2.800000 -0.200000 0.200000
v 2.800000 -0.100000 0.200000
v 2.800000 -0.100000 0.200000
v 3.251466 -0.591743 0.000000
v 3.230771 -0.607766 0.000000
v 3.206627 -0.617870 0.000000
v 3.277173 -0.546662 0.000000
v 3.180688 -0.621364 0.000000
v 2.213979 0.661820 0.290000
v 2.213979 0.661820 0.290000
v 3.280423 -0.520691 0.000000
v 2.696490 -1.089419 0.000000
v 2.773609 -0.954175 0.000000
v 2.783361 -0.876264 0.000000
v 2.484157 -1.178281 0.000000
v 1.036970 -0.455018 0.000000
v 3.267295 -0.570899 0.000000
v 2.831981 -0.635747 0.000000
v 2.811286 -0.651770 0.000000
v 2.812059 0.907790 -0.000000
v 1.073304 -0.311908 0.000000
v 2.796105 0.928367 -0.000000
v 2.782441 0.978158 -0.000000
v 0.802576 -0.717072 0.000000
v 0.752060 -0.732213 0.000000
v 0.725614 -0.729317 0.000000
v 0.491359 -1.173357 0.000000
v 2.780812 1.220353 -0.000000
v 1.862195 -0.452125 0.290000
v 1.862195 -0.452125 0.290000
v 2.770122 1.297731 -0.000000
v 2.743976 -1.026887 0.000000
v 2.739818 1.369726 -0.000000
v 0.700866 -0.719551 0.000000
v 0.778334 -0.728032 0.000000
v 0.679570 -0.703605 0.000000
v 1.923489 0.884787 0.290000
v 1.923489 0.884787 0.290000
v 0.278741 -0.962719 0.000000
v 0.663233 -0.682608 0.000000
v 0.649625 -0.631658 0.000000
v 1.684957 0.927609 0.290000
v 1.684957 0.927609 0.290000
v 0.268051 -0.885341 0.000000
v 2.557503 1.508369 -0.000000
v 2.480029 1.518334 -0.000000
v 1.069903 0.819596 -0.000000
v 2.691956 1.431458 -0.000000
v 1.073304 0.793740 -0.000000
v 0.655463 0.366635 -0.000000
v 2.785579 -0.696852 0.000000
v 0.273679 0.530777 -0.000000
v 0.660269 0.418392 -0.000000
v 0.262651 0.484238 -0.000000
v 0.673937 0.468542 -0.000000
v 0.696056 0.515581 -0.000000
v 1.044072 0.864393 -0.000000
v 0.973466 0.893740 -0.000000
v 0.688033 1.350736 -0.000000
v 0.734918 1.417950 -0.000000
v 0.798242 1.469970 -0.000000
v 6.453978 -0.271472 0.000000
v 6.453978 -0.271472 0.000000
v 1.690663 -0.572478 0.290000
v 1.690663 -0.572478 0.290000
v 6.604274 -0.100000 0.200000
v 6.604274 -0.100000 0.200000
v 6.691925 0.000000 0.100000
v 6.691925 0.000000 0.100000
v 6.453978 -0.271472 0.300000
v 6.453978 -0.271472 0.300000
v 6.516624 -0.200000 0.300000
v 6.516624 -0.200000 0.300000
v 6.604274 -0.100000 0.300000
v 6.604274 -0.100000 0.300000
v 2.121016 0.764040 0.290000
v 2.121016 0.764040 0.290000
v 0.999316 0.890298 -0.000000
v 3.206627 -0.617870 0.300000
v 3.277173 -0.546661 0.300000
v 2.634405 -1.137488 0.300000
v 2.696490 -1.089419 0.300000
v 2.743976 -1.026887 0.300000
v 1.913184 -0.505840 0.300000
v 2.484157 -1.178281 0.300000
v 2.783361 -0.876264 0.300000
v 0.309044 -1.034714 0.000000
v 3.278803 -0.279830 0.300000
v 3.278803 -0.279830 0.300000
v 2.856125 -0.625643 0.300000
v 2.795457 -0.672614 0.300000
v 2.811286 -0.651770 0.300000
v 1.914560 -0.405703 0.300000
v 2.561973 -1.167800 0.300000
v 2.217557 -0.408940 0.300000
v 2.217557 -0.408940 0.300000
v 1.996413 0.017508 0.300000
v 1.996413 0.017508 0.300000
v 0.993644 -0.515501 0.300000
v 2.216801 -0.120562 0.300000
v 2.216801 -0.120562 0.300000
v 2.856125 -0.625643 0.000000
v 2.063747 -0.073906 0.300000
v 2.063747 -0.073906 0.300000
v 2.059156 0.017737 0.300000
v 2.059156 0.017737 0.300000
v 2.208193 0.048055 0.300000
v 2.208193 0.048055 0.300000
v 1.064078 -0.385733 0.300000
v 3.689212 0.624981 -0.000000
v 6.797822 0.200000 0.300000
v 6.797822 0.200000 0.300000
v 4.342308 0.441742 0.200000
v 3.689131 0.637038 -0.000000
v 6.075958 0.713846 -0.000000
v 6.075958 0.713846 -0.000000
v 1.064078 -0.385733 0.000000
v 5.175197 0.599342 -0.000000
v 5.175197 0.599342 -0.000000
v 6.328403 0.714510 -0.000000
v 6.328403 0.714510 -0.000000
v 3.267401 0.780253 -0.000000
v 3.192965 0.876258 -0.000000
v 2.882702 0.878831 0.300000
v 0.356907 -1.096445 0.000000
v 6.787201 0.220902 0.200000
v 6.328403 0.714472 -0.000000
v 3.194166 0.875933 0.300000
v 0.696056 0.515581 0.300000
v 2.629779 1.478741 -0.000000
v 3.265297 0.800000 0.300000
v 3.265297 0.800000 0.300000
v 1.679289 0.347446 0.300000
v 1.679289 0.347446 0.300000
v 0.947604 0.890381 -0.000000
v 6.795228 0.206364 -0.000000
v 0.823070 -0.700107 0.000000
v 3.267295 -0.570899 0.300000
v 6.802910 0.150899 -0.000000
v 1.690051 0.013137 0.290000
v 1.690051 0.013137 0.290000
v 2.119733 0.358264 0.290000
v 2.119733 0.358264 0.290000
v 2.634405 -1.137488 0.000000
v 2.208410 0.262905 0.300000
v 2.208410 0.262905 0.300000
v 4.342308 0.441742 -0.000000
v 6.803619 0.173908 0.300000
v 5.778019 0.406869 -0.000000
v 5.778019 0.406869 -0.000000
v 6.793952 0.121821 0.300000
v 2.812058 0.800000 0.245000
v 2.812058 0.200000 0.245000
v 0.886836 0.843974 -0.000000
v 6.779310 0.099698 0.100000
v 3.256140 0.825687 0.300000
v 3.167140 0.879580 -0.000000
v 5.244562 0.599525 0.200000
v 6.779572 0.100000 -0.000000
v 6.779572 0.100000 -0.000000
v 4.241635 0.541476 -0.000000
v 6.328403 0.714472 0.200000
v 3.263838 0.806045 -0.000000
v 4.093170 0.735051 0.200000
v 4.093170 0.735051 0.200000
v 3.267401 0.780253 0.200000
v 4.782412 0.454625 -0.000000
v 6.794876 0.123783 -0.000000
v 2.800000 -0.200000 0.300000
v 2.800000 -0.200000 0.300000
v 2.800000 -0.100000 0.300000
v 2.800000 -0.100000 0.300000
v 2.800000 0.800000 0.300000
v 2.800000 0.800000 0.300000
v 2.800000 0.200000 0.300000
v 2.800000 0.200000 0.300000
v 3.265297 0.800000 0.200000
v 3.265297 0.800000 0.200000
v 2.845000 0.800000 0.212058
v 2.845000 0.200000 0.212058
v 3.280423 -0.520691 0.300000
v 2.629779 1.478741 0.300000
v 2.866706 0.800000 0.203067
v 2.866706 0.200000 0.203067
v 5.777977 0.413063 -0.000000
v 5.777977 0.413063 -0.000000
v 2.803067 0.800000 0.266706
v 2.803067 0.200000 0.266706
v 1.779608 0.928703 0.300000
v 1.779608 0.928703 0.300000
v 3.588458 0.736773 0.200000
v 0.568834 -1.183322 0.000000
v 6.075958 0.713846 0.200000
v 6.075958 0.713846 0.200000
v 1.023397 0.880289 -0.000000
v 4.681086 0.651563 -0.000000
v 2.116903 0.545578 0.300000
v 2.116903 0.545578 0.300000
v 5.778019 0.406869 0.200000
v 5.778019 0.406869 0.200000
v 0.259160 0.436539 0.300000
v 1.679601 0.650115 0.290000
v 1.679601 0.650115 0.290000
v 2.786004 0.952366 0.300000
v 6.802297 0.147213 0.300000
v 5.777977 0.413063 0.200000
v 5.777977 0.413063 0.200000
v 3.240384 0.847946 0.300000
v 3.894577 0.525522 0.200000
v 3.894577 0.525522 0.200000
v 2.773609 -0.954175 0.300000
v 6.779178 0.099547 0.300000
v 3.993843 0.634790 0.200000
v 3.993843 0.634790 0.200000
v 5.346068 0.375732 0.200000
v 1.023397 0.880289 0.300000
v 1.914560 -0.405703 0.290000
v 3.237783 0.850621 -0.000000
v 2.882063 -0.622150 0.300000
v 2.216087 -0.205587 0.300000
v 2.216087 -0.205587 0.300000
v 6.780128 0.230277 0.200000
v 3.267699 0.735929 -0.000000
v 3.267699 0.735929 -0.000000
v 2.786004 0.952366 -0.000000
v 2.782441 0.978158 0.300000
v 5.175197 0.599342 0.200000
v 5.175197 0.599342 0.200000
v 3.267137 0.786877 0.200000
v 0.999316 0.890298 0.300000
v 2.782329 -0.722822 0.000000
v 4.516884 0.542201 0.200000
v 4.516884 0.542201 0.200000
v 3.993843 0.634790 -0.000000
v 3.993843 0.634790 -0.000000
v 2.826360 0.800000 0.226360
v 2.826360 0.200000 0.226360
v 2.800000 0.000000 0.100000
v 2.800000 0.000000 0.100000
v 2.800000 0.100000 0.100000
v 2.800000 0.100000 0.100000
v 6.793127 0.210764 0.200000
v 1.059933 0.843693 -0.000000
v 2.480029 1.518334 0.300000
v 4.883085 0.354890 0.200000
v 4.976837 0.355137 0.200000
v 4.976837 0.355137 0.200000
v 5.076164 0.455398 0.200000
v 5.076164 0.455398 0.200000
v 2.122241 0.930162 0.300000
v 2.122241 0.930162 0.300000
v 5.345234 0.499790 0.200000
v 0.291962 0.574972 -0.000000
v 6.803030 0.179180 -0.000000
v 2.213979 0.661820 0.300000
v 2.213979 0.661820 0.300000
v 6.779441 0.099849 0.100000
v 2.856877 0.882153 0.300000
v 3.217057 0.866382 -0.000000
v 5.075870 0.499081 0.200000
v 5.075870 0.499081 0.200000
v 2.890000 0.800000 0.200000
v 2.890000 0.200000 0.200000
v 6.779572 0.100000 0.100000
v 6.779572 0.100000 0.100000
v 3.219201 0.865120 0.300000
v 6.328403 0.714510 0.200000
v 6.328403 0.714510 0.200000
v 3.789884 0.525246 -0.000000
v 4.093170 0.735051 -0.000000
v 4.093170 0.735051 -0.000000
v 0.291962 0.574972 0.300000
v 3.253737 0.830044 -0.000000
v 0.923491 0.880450 0.300000
v 0.993644 -0.515501 0.000000
v 5.648894 0.276530 -0.000000
v 5.648894 0.276530 -0.000000
v 5.345234 0.499790 -0.000000
v 0.653009 -0.658046 0.000000
v 5.648894 0.276530 0.200000
v 5.648894 0.276530 0.200000
v 3.267699 0.735929 0.200000
v 3.267699 0.735929 0.200000
v 1.069903 0.819596 0.300000
v 1.690663 -0.572478 0.300000
v 1.690663 -0.572478 0.300000
v 4.140331 0.735175 0.200000
v 0.655463 0.366635 0.300000
v 3.993904 0.625783 0.200000
v 3.993904 0.625783 0.200000
v 4.516824 0.551132 0.200000
v 4.516824 0.551132 0.200000
v 2.001002 -0.074101 0.300000
v 2.001002 -0.074101 0.300000
v 4.781759 0.551829 0.200000
v 2.561973 -1.167800 0.000000
v 3.588458 0.736773 -0.000000
v 3.789884 0.525246 0.200000
v 4.681086 0.651563 0.200000
v 4.241003 0.635441 0.200000
v 5.446741 0.275997 -0.000000
v 3.180688 -0.621364 0.300000
v 4.241635 0.541476 0.200000
v 3.894577 0.525522 -0.000000
v 3.894577 0.525522 -0.000000
v 2.882702 0.878831 -0.000000
v 5.346068 0.375732 -0.000000
v 2.831981 -0.635747 0.300000
v 1.693651 -0.346148 0.300000
v 1.693651 -0.346148 0.300000
v 5.244562 0.599525 -0.000000
v 4.616151 0.651392 -0.000000
v 4.616151 0.651392 -0.000000
v 0.954434 1.514319 -0.000000
v 4.140331 0.735175 -0.000000
v 5.446741 0.275997 0.200000
v 5.075870 0.499081 -0.000000
v 5.075870 0.499081 -0.000000
v 2.800000 0.000000 0.000000
v 2.800000 0.000000 0.000000
v 2.800000 0.100000 -0.000000
v 2.800000 0.100000 -0.000000
v 4.241003 0.635441 -0.000000
v 4.782412 0.454625 0.200000
v 5.076164 0.455398 -0.000000
v 5.076164 0.455398 -0.000000
v 4.976837 0.355137 -0.000000
v 4.976837 0.355137 -0.000000
v 0.902765 0.864622 0.300000
v 2.116903 0.545578 0.290000
v 2.116903 0.545578 0.290000
v 3.689212 0.624981 0.200000
v 2.832785 0.892029 0.300000
v 0.873281 1.502912 -0.000000
v 4.883085 0.354890 -0.000000
v 6.691925 0.000000 -0.000000
v 6.691925 0.000000 -0.000000
v 3.251466 -0.591743 0.300000
v 2.220021 -0.498160 0.300000
v 2.220021 -0.498160 0.300000
v 4.616151 0.651392 0.200000
v 4.616151 0.651392 0.200000
v 0.679570 -0.703605 0.300000
v 4.417557 0.441940 -0.000000
v 4.417557 0.441940 -0.000000
v 4.516884 0.542201 -0.000000
v 4.516884 0.542201 -0.000000
v 6.516624 -0.200000 0.200000
v 6.516624 -0.200000 0.200000
v 4.781759 0.551829 -0.000000
v 4.516824 0.551132 -0.000000
v 4.516824 0.551132 -0.000000
v 6.779178 0.099547 0.100000
v 0.688033 1.350736 0.300000
v 3.167140 0.879580 0.300000
v 0.798242 1.469970 0.300000
v 3.278803 -0.279830 0.000000
v 3.278803 -0.279830 0.000000
v 0.734918 1.417950 0.300000
v 3.230771 -0.607766 0.300000
v 2.800000 0.800000 0.290000
v 2.800000 0.200000 0.290000
v 0.954434 1.514319 0.300000
v 0.873281 1.502912 0.300000
v 0.886836 0.843974 0.300000
v 3.993904 0.625783 -0.000000
v 3.993904 0.625783 -0.000000
v 0.947604 0.890381 0.300000
v 2.739818 1.369726 0.300000
v 0.823070 -0.700107 0.300000
v 6.797822 0.200000 0.200000
v 6.797822 0.200000 0.200000
v 0.973466 0.893740 0.300000
v 0.419084 -1.143728 0.300000
v 2.856877 0.882153 -0.000000
v 1.044072 0.864394 0.300000
v 2.204107 0.547720 0.300000
v 2.204107 0.547720 0.300000
v 3.266434 0.793469 0.200000
v 0.673937 0.468542 0.300000
v 2.832785 0.892029 -0.000000
v 0.660269 0.418392 0.300000
v 0.262651 0.484239 0.300000
v 2.785579 -0.696852 0.300000
v 0.273679 0.530777 0.300000
v 4.417557 0.441940 0.200000
v 4.417557 0.441940 0.200000
v 1.684957 0.927609 0.300000
v 1.684957 0.927609 0.300000
v 1.073304 0.793740 0.300000
v 1.073304 -0.311908 0.300000
v 2.782329 -0.722822 0.300000
v 1.059933 0.843693 0.300000
v 0.356907 -1.096445 0.300000
v 1.679601 0.650115 0.300000
v 1.679601 0.650115 0.300000
v 2.770122 1.297731 0.300000
v 0.923491 0.880450 -0.000000
v 1.923489 0.884787 0.300000
v 1.923489 0.884787 0.300000
v 1.779344 0.750404 0.300000
v 1.779344 0.750404 0.300000
v 2.003664 0.888737 0.300000
v 2.003664 0.888737 0.300000
v 2.882063 -0.622150 0.000000
v 0.259160 0.436539 -0.000000
v 0.902765 0.864622 -0.000000
v 1.923644 0.757643 0.300000
v 1.923644 0.757643 0.300000
v 2.691956 1.431458 0.300000
v 1.862195 -0.452125 0.300000
v 1.862195 -0.452125 0.300000
v 2.557503 1.508369 0.300000
v 0.568834 -1.183322 0.300000
v 2.214401 0.939540 0.300000
v 2.214401 0.939540 0.300000
v 0.649625 -0.631658 0.300000
v 0.268051 -0.885341 0.300000
v 1.689202 -0.087981 0.290000
v 1.689202 -0.087981 0.290000
v 0.663233 -0.682608 0.300000
v 0.419084 -1.143728 0.000000
v 0.725614 -0.729317 0.300000
v 2.121016 0.764040 0.300000
v 2.121016 0.764040 0.300000
v 2.001156 0.761105 0.300000
v 2.001156 0.761105 0.300000
v 0.278741 -0.962718 0.300000
v 0.309044 -1.034714 0.300000
v 1.693088 -0.660268 0.300000
v 1.693088 -0.660268 0.300000
v 1.036970 -0.455018 0.300000
v 3.689131 0.637038 0.200000
v 1.680762 0.249945 0.300000
v 1.680762 0.249945 0.300000
v 2.208941 0.137053 0.300000
v 2.208941 0.137053 0.300000
v 0.700866 -0.719551 0.300000
v 2.795457 -0.672614 0.000000
v 2.780812 1.220353 0.300000
v 6.780128 0.230277 -0.000000
v 0.491359 -1.173357 0.300000
v 2.119733 0.358264 0.300000
v 2.119733 0.358264 0.300000
v 1.690051 0.013137 0.300000
v 1.690051 0.013137 0.300000
v 0.752060 -0.732213 0.300000
v 2.812059 0.907790 0.300000
v 0.778334 -0.728032 0.300000
v 0.653009 -0.658046 0.300000
v 0.802576 -0.717072 0.300000
v 1.689202 -0.087981 0.300000
v 1.689202 -0.087981 0.300000
v 1.691420 -0.265398 0.300000
v 1.691420 -0.265398 0.300000
v 2.214401 0.939540 0.290000
v 2.214401 0.939540 0.290000
v 2.796105 0.928367 0.300000
vn -0.0000 -0.0000 1.0000
vn 0.0132 -0.0000 0.9999
vn 0.0011 -0.0000 1.0000
vn -0.0000 1.0000 -0.0000
vn 0.2588 -0.0000 0.9659
vn 0.5375 -0.0000 0.8433
vn 0.4616 -0.0000 0.8871
vn 0.7374 -0.0000 0.6754
vn 0.6754 -0.0000 0.7374
vn 0.8871 -0.0000 0.4616
vn 0.8433 -0.0000 0.5375
vn 0.9763 -0.0000 0.2162
vn 0.9537 -0.0000 0.3009
vn 0.9975 -0.0000 0.0706
vn 0.9942 -0.0000 0.1078
vn 0.9165 -0.4001 -0.0005
vn 0.8374 -0.5466 -0.0004
vn 0.8410 -0.5411 -0.0000
vn 0.7568 -0.6537 0.0002
vn 0.7520 -0.6591 -0.0000
vn 0.7534 -0.6576 -0.0000
vn 0.7549 -0.6559 -0.0000
vn 0.8859 -0.4639 0.0001
vn 0.9759 -0.2181 0.0002
vn 0.9934 -0.1147 -0.0008
vn 0.9976 0.0690 0.0004
vn 0.9888 0.1493 -0.0011
vn 0.9650 0.2624 -0.0002
vn 0.9065 0.4221 -0.0032
vn 0.8914 0.4531 -0.0006
vn 0.9762 0.2168 -0.0000
vn 0.8395 0.5433 -0.0031
vn 0.7345 0.6786 -0.0001
vn 0.7324 0.6808 -0.0000
vn -0.0000 -1.0000 -0.0000
vn 0.7312 0.6821 -0.0001
vn 0.7313 0.6821 -0.0000
vn 0.2139 0.9769 -0.0002
vn 0.0083 1.0000 -0.0000
vn 0.0088 1.0000 -0.0000
vn 0.4626 0.8866 -0.0001
vn 0.3044 0.9525 0.0008
vn 0.6790 0.7342 -0.0003
vn 0.5470 0.8371 0.0005
vn 0.8714 0.4906 0.0003
vn 0.7502 0.6612 0.0007
vn 0.8958 0.4446 -0.0003
vn 0.9672 0.2542 0.0001
vn 0.9392 0.3435 0.0001
vn 0.9983 0.0579 -0.0015
vn 0.9905 0.1375 -0.0035
vn 0.9973 0.0729 -0.0011
vn 0.9419 0.3358 -0.0000
vn 1.0000 0.0091 -0.0000
vn 1.0000 0.0098 -0.0000
vn 1.0000 0.0067 -0.0000
vn -0.0026 1.0000 -0.0000
vn 0.2285 0.9735 -0.0001
vn 0.2285 0.9735 -0.0000
vn -0.7104 0.7038 -0.0000
vn 0.7242 0.6896 -0.0000
vn 0.7755 0.6313 -0.0000
vn -1.0000 -0.0068 -0.0000
vn 0.4358 0.9000 -0.0000
vn 0.4359 0.9000 -0.0000
vn 0.1918 0.9814 -0.0000
vn 0.4422 0.8969 -0.0000
vn 0.9107 0.4131 -0.0000
vn 0.9107 0.4130 -0.0000
vn -1.0000 -0.0067 -0.0000
vn 0.5928 0.8054 -0.0000
vn 0.3834 0.9236 -0.0000
vn 0.4544 0.8908 -0.0000
vn 0.6257 0.7801 -0.0000
vn 0.8238 0.5669 -0.0000
vn 0.9426 0.3340 -0.0000
vn 0.8861 0.4634 -0.0000
vn 0.5845 0.8114 -0.0000
vn 0.3678 0.9299 -0.0000
vn 0.3256 0.9455 -0.0000
vn 0.5595 0.8288 -0.0000
vn 0.8266 0.5628 -0.0000
vn 0.9448 0.3276 -0.0000
vn 0.8892 0.4575 -0.0000
vn 0.5992 0.8006 -0.0000
vn 0.3959 0.9183 -0.0000
vn 1.0000 -0.0000 -0.0000
vn -0.0000 -0.0000 -1.0000
vn 0.7520 -0.6592 -0.0000
vn 0.0026 -1.0000 -0.0000
vn 0.9750 0.2223 -0.0000
vn 0.9999 0.0134 -0.0000
vn 0.9996 0.0298 -0.0000
vn 0.8633 0.5046 -0.0000
vn 0.9518 0.3066 -0.0000
vn 0.7038 0.7104 -0.0000
vn 0.4965 0.8680 -0.0000
vn 0.2556 0.9668 -0.0000
vn 0.9999 -0.0167 -0.0000
vn 0.9993 0.0385 -0.0000
vn 0.2620 -0.9651 -0.0000
vn 0.0222 -0.9998 -0.0000
vn 0.4650 -0.8853 -0.0000
vn 0.0082 -1.0000 -0.0000
vn 0.5410 -0.8410 -0.0000
vn 0.6788 -0.7343 -0.0000
vn 0.7407 -0.6719 -0.0000
vn 0.8687 -0.4953 -0.0000
vn 0.9554 -0.2952 -0.0000
vn 0.9777 -0.2102 -0.0000
vn 0.0095 1.0000 -0.0000
vn 0.4581 0.8889 -0.0000
vn 0.0006 1.0000 -0.0000
vn 0.6721 0.7405 -0.0000
vn 0.5340 0.8455 -0.0000
vn 0.8405 0.5419 -0.0000
vn 0.7342 0.6789 -0.0000
vn 0.9643 0.2647 -0.0000
vn 0.8846 0.4664 -0.0000
vn -0.0096 1.0000 -0.0000
vn 0.9675 -0.2530 -0.0000
vn 0.9996 -0.0266 -0.0000
vn 1.0000 -0.0036 -0.0000
vn 0.7104 -0.7038 -0.0000
vn 0.5035 -0.8640 -0.0000
vn 0.3042 -0.9526 -0.0000
vn 0.2193 -0.9756 -0.0000
vn -0.2287 0.9735 -0.0000
vn -0.3170 0.9484 -0.0000
vn -0.5233 0.8522 -0.0000
vn -0.7344 0.6788 -0.0000
vn -0.8852 0.4652 -0.0000
vn 0.9993 -0.0377 -0.0000
vn -0.8925 0.4510 -0.0000
vn 0.8896 -0.4567 -0.0000
vn 0.8461 -0.5331 -0.0000
vn 0.5409 -0.8411 -0.0000
vn 0.0126 -0.9999 -0.0000
vn 0.0053 -1.0000 -0.0000
vn -0.9920 0.1259 -0.0000
vn -1.0000 -0.0039 -0.0000
vn -0.9594 0.2819 -0.0000
vn -0.9839 0.1785 -0.0000
vn -0.9431 0.3326 -0.0000
vn -0.0072 -1.0000 -0.0000
vn -0.9999 -0.0140 -0.0000
vn -0.2131 -0.9770 -0.0000
vn -0.4965 -0.8680 -0.0000
vn -0.2976 -0.9547 -0.0000
vn -0.7038 -0.7104 -0.0000
vn -0.8405 -0.5419 -0.0000
vn -0.9519 -0.3065 -0.0000
vn -0.8846 -0.4664 -0.0000
vn -0.9750 -0.2223 -0.0000
vn -0.9996 -0.0276 -0.0000
vn -0.0107 -0.9999 -0.0000
vn -0.2632 -0.9647 -0.0000
vn -0.5323 -0.8466 -0.0000
vn 0.9996 0.0276 -0.0000
vn 0.5323 0.8466 -0.0000
vn 0.5744 -0.8186 -0.0000
vn -0.5744 0.8186 -0.0000
vn -0.2941 0.9558 -0.0000
vn -0.0250 0.9997 -0.0000
vn -0.0246 0.9997 -0.0000
vn -0.9999 -0.0151 -0.0000
vn 0.0246 -0.9997 -0.0000
vn 0.9999 0.0151 -0.0000
vn -1.0000 0.0084 -0.0000
vn -0.2916 -0.9565 -0.0000
vn -0.9987 -0.0500 -0.0000
vn -0.1993 0.9799 -0.0000
vn 0.2323 -0.9726 -0.0000
vn 1.0000 -0.0084 -0.0000
vn 0.2178 0.9760 -0.0000
vn 0.2179 0.9760 -0.0000
vn -0.0219 0.9998 -0.0000
vn -1.0000 0.0015 -0.0000
vn 0.1012 -0.9949 -0.0000
vn 1.0000 -0.0074 -0.0000
vn 0.0245 -0.9997 -0.0000
vn -0.9998 0.0196 -0.0000
vn 0.0492 -0.9988 -0.0000
vn 1.0000 0.0012 -0.0000
vn 0.0501 -0.9987 -0.0000
vn 0.0116 -0.9999 -0.0000
vn 0.9998 -0.0193 -0.0000
vn -1.0000 0.0078 -0.0000
vn -1.0000 -0.0015 -0.0000
vn -1.0000 -0.0059 -0.0000
vn -0.9692 0.2461 -0.0000
vn -0.8789 0.4770 -0.0000
vn -0.7534 0.6575 -0.0000
vn -0.9764 -0.2160 -0.0000
vn -0.9537 -0.3006 -0.0000
vn -0.8873 -0.4611 -0.0000
vn -0.8436 -0.5370 -0.0000
vn -0.7379 -0.6749 -0.0000
vn -0.6761 -0.7368 -0.0000
vn -0.5383 -0.8427 -0.0000
vn -0.4626 -0.8866 -0.0000
vn -0.2601 -0.9656 -0.0000
vn -0.0016 -1.0000 -0.0000
vn 0.2570 -0.9664 -0.0000
vn 0.4981 -0.8671 -0.0000
vn 0.7054 -0.7088 -0.0000
vn 0.8566 -0.5159 -0.0000
vn 0.8625 -0.5061 -0.0000
vn -0.7185 0.6956 -0.0000
vn -0.7299 0.6835 -0.0000
vn 0.8699 -0.4933 -0.0000
vn 1.0000 -0.0024 -0.0000
vn 0.9661 0.2580 -0.0000
vn 0.8856 0.4645 -0.0000
vn 0.8405 0.5418 -0.0000
vn 0.7317 0.6816 -0.0000
vn 0.6679 0.7442 -0.0000
vn 0.5261 0.8504 -0.0000
vn 0.4481 0.8940 -0.0000
vn 0.2832 0.9590 -0.0000
vn 0.1965 0.9805 -0.0000
vn 0.0203 0.9998 -0.0000
vn -0.0690 0.9976 -0.0000
vn -0.2440 0.9698 -0.0000
vn -0.3296 0.9441 -0.0000
vn -0.4911 0.8711 -0.0000
vn -0.5669 0.8238 -0.0000
vn 0.9280 -0.3726 -0.0000
vn 0.9480 -0.3182 -0.0000
vn 0.9840 -0.1784 -0.0000
vn 0.9999 -0.0102 -0.0000
vn -0.1716 -0.9852 -0.0000
vn 0.9987 0.0500 -0.0000
vn -0.2308 0.9730 -0.0000
s 0
usemtl Scene_-_Root
f 1//1 2//1 3//1
s 1
f 2//1 4//1 5//1
f 6//2 7//3 8//1
s 0
f 3//1 2//1 5//1
s 1
f 6//2 8//1 9//1
s 0
f 9//1 10//1 11//1
f 9//1 11//1 12//1
s 1
f 6//2 9//1 12//1
s 0
f 13//1 14//1 15//1
f 14//1 16//1 17//1
s 1
f 8//1 7//3 18//1
f 18//1 7//3 19//1
s 0
f 17//1 20//1 21//1
f 8//1 18//1 22//1
f 14//1 17//1 23//1
f 17//1 21//1 23//1
s 1
f 15//1 14//1 24//1
s 0
f 22//1 18//1 25//1
f 14//1 23//1 24//1
f 15//1 24//1 26//1
s 1
f 27//1 7//3 17//1
s 0
f 16//1 27//1 17//1
s 1
f 28//1 7//3 27//1
f 29//1 7//3 28//1
f 30//1 31//1 32//1
f 31//1 19//1 29//1
f 19//1 7//3 29//1
s 0
f 32//1 31//1 29//1
f 33//1 30//1 34//1
f 34//1 30//1 35//1
f 35//1 30//1 36//1
f 30//1 32//1 36//1
f 37//1 38//1 39//1
s 1
f 38//1 29//1 28//1
s 0
f 39//1 38//1 28//1
f 40//1 37//1 41//1
f 41//1 37//1 42//1
f 42//1 37//1 43//1
f 37//1 39//1 43//1
f 2//1 44//1 4//1
f 4//1 44//1 27//1
f 44//1 28//1 27//1
f 45//1 2//1 1//1
f 46//4 47//4 48//4
f 49//4 50//4 46//4
f 691//4 48//4 51//4
f 691//4 51//4 52//4
f 691//4 46//4 48//4
f 691//4 49//4 46//4
f 53//4 691//4 52//4
f 799//4 691//4 53//4
s 1
f 612//5 7//3 6//2
f 612//5 6//2 54//5
f 608//6 612//5 55//7
f 612//5 54//5 55//7
f 665//8 608//6 56//9
f 608//6 55//7 56//9
f 581//10 665//8 57//11
f 665//8 56//9 57//11
f 616//12 581//10 58//13
f 581//10 57//11 58//13
f 790//14 616//12 59//15
f 616//12 58//13 59//15
f 60//16 61//17 62//18
f 63//19 64//20 65//21
f 63//19 65//21 66//22
f 63//19 66//22 61//17
f 67//23 61//17 60//16
f 67//23 63//19 61//17
f 68//24 60//16 69//25
f 68//24 67//23 60//16
f 70//26 69//25 71//27
f 70//26 68//24 69//25
f 800//28 71//27 72//29
f 800//28 70//26 71//27
f 670//30 800//28 72//29
f 539//31 70//26 800//28
f 554//32 72//29 73//33
f 554//32 670//30 72//29
f 650//34 554//32 73//33
s 0
f 664//35 607//35 611//35
f 580//35 664//35 690//35
f 615//35 580//35 690//35
f 789//35 615//35 690//35
f 74//35 789//35 690//35
f 664//35 611//35 690//35
f 74//35 690//35 75//35
f 75//35 690//35 605//35
s 1
f 590//36 650//34 73//33
f 590//36 73//33 76//37
f 77//38 78//39 79//40
f 80//41 77//38 81//42
f 77//38 79//40 81//42
f 82//43 80//41 83//44
f 80//41 81//42 83//44
f 84//45 82//43 85//46
f 82//43 83//44 85//46
f 84//45 85//46 86//47
f 87//48 84//45 606//49
f 84//45 86//47 606//49
f 88//50 87//48 807//51
f 87//48 606//49 807//51
f 88//50 807//51 657//52
f 606//49 86//47 559//53
f 88//50 657//52 594//54
f 76//37 695//55 590//36
f 76//37 89//55 695//55
f 90//56 594//54 710//56
f 90//56 88//50 594//54
f 696//57 91//57 621//57
f 548//57 91//57 696//57
f 619//58 651//57 711//57
f 92//59 651//57 619//58
s 0
f 622//60 543//60 93//60
f 622//60 93//60 634//60
s 1
f 619//58 94//61 92//59
f 861//62 94//61 619//58
s 0
f 613//63 627//63 635//63
f 613//63 95//63 627//63
s 1
f 96//62 861//62 760//61
f 96//62 94//61 861//62
s 0
f 577//60 97//60 708//60
f 628//60 577//60 708//60
s 1
f 760//61 98//64 96//62
f 726//65 98//64 760//61
f 704//57 744//66 709//57
f 704//57 99//67 744//66
f 98//64 726//65 637//57
f 100//57 98//64 637//57
f 99//67 101//68 643//68
f 744//66 99//67 643//68
s 0
f 717//60 102//60 732//60
f 717//60 732//60 638//60
s 1
f 103//68 680//69 643//68
f 101//68 103//68 643//68
s 0
f 104//63 718//63 641//63
s 1
f 104//70 794//70 718//70
f 586//71 103//68 105//72
f 680//69 103//68 586//71
s 0
f 642//60 106//60 662//60
f 592//60 106//60 642//60
s 1
f 105//72 655//57 586//71
f 105//72 107//57 655//57
f 108//73 593//57 715//74
f 108//73 698//57 593//57
s 0
f 688//60 546//60 109//60
f 656//60 546//60 688//60
s 1
f 715//74 110//75 108//73
f 728//76 110//75 715//74
s 0
f 745//70 676//70 689//70
f 745//70 111//70 676//70
s 1
f 112//77 728//76 731//77
f 112//77 110//75 728//76
f 677//60 753//60 113//60
f 677//60 113//60 674//60
f 541//78 114//79 112//77
f 541//78 112//77 731//77
f 115//80 673//81 675//57
f 755//57 115//80 675//57
f 114//79 541//78 814//57
f 116//57 114//79 814//57
f 673//81 115//80 117//82
f 673//81 117//82 752//83
s 0
f 815//60 118//60 772//60
f 660//60 118//60 815//60
s 1
f 119//84 723//84 752//83
f 117//82 119//84 752//83
s 0
f 120//70 661//70 719//70
f 120//70 774//70 661//70
s 1
f 727//85 119//84 121//86
f 723//84 119//84 727//85
s 0
f 720//60 122//60 779//60
f 769//60 122//60 720//60
s 1
f 121//86 770//57 727//85
f 121//86 740//57 770//57
f 601//87 790//14 59//15
f 601//87 603//87 790//14
s 0
f 123//1 124//1 125//1
f 126//1 124//1 123//1
f 126//1 127//1 124//1
f 128//1 123//1 129//1
f 128//1 130//1 123//1
f 131//1 123//1 130//1
f 132//1 123//1 131//1
f 133//1 126//1 123//1
f 133//1 123//1 132//1
f 134//1 126//1 133//1
f 135//1 126//1 134//1
f 136//1 126//1 135//1
f 137//1 128//1 129//1
f 138//1 137//1 129//1
f 139//1 140//1 141//1
f 139//1 142//1 140//1
f 139//1 129//1 142//1
f 139//1 138//1 129//1
f 143//1 139//1 141//1
f 144//1 145//1 146//1
f 144//1 147//1 145//1
f 144//1 136//1 147//1
f 144//1 126//1 136//1
f 148//1 144//1 149//1
f 148//1 126//1 144//1
f 150//1 144//1 146//1
f 151//1 149//1 152//1
f 153//1 149//1 151//1
f 154//1 151//1 152//1
f 155//1 149//1 153//1
f 155//1 148//1 149//1
f 156//1 157//1 148//1
f 156//1 158//1 157//1
s 1
f 159//1 148//1 155//1
s 0
f 160//1 141//1 161//1
f 160//1 143//1 141//1
f 162//1 160//1 161//1
f 163//1 150//1 146//1
f 164//1 162//1 161//1
f 165//1 155//1 153//1
f 165//1 153//1 166//1
s 1
f 167//1 164//1 161//1
s 0
f 167//1 168//1 169//1
f 167//1 161//1 168//1
f 170//1 163//1 146//1
f 171//1 172//1 167//1
f 171//1 167//1 169//1
f 173//1 174//1 156//1
f 175//1 156//1 148//1
f 175//1 173//1 156//1
f 175//1 148//1 159//1
f 176//1 172//1 171//1
f 177//1 150//1 163//1
f 178//1 179//1 177//1
f 180//1 172//1 176//1
f 181//1 170//1 182//1
f 183//1 184//1 172//1
f 183//1 185//1 184//1
f 183//1 186//1 185//1
f 183//1 187//1 186//1
f 183//1 188//1 187//1
s 1
f 183//1 172//1 180//1
s 0
f 189//1 177//1 163//1
f 190//1 181//1 182//1
f 191//1 175//1 159//1
f 192//1 191//1 159//1
f 193//1 190//1 182//1
f 602//1 194//1 192//1
f 602//1 195//1 194//1
f 602//1 196//1 195//1
f 602//1 197//1 196//1
f 602//1 179//1 178//1
f 602//1 192//1 159//1
f 602//1 159//1 179//1
f 198//1 197//1 602//1
f 199//1 182//1 200//1
f 199//1 193//1 182//1
f 201//1 202//1 203//1
f 204//1 200//1 205//1
s 1
f 204//1 199//1 200//1
s 0
f 783//1 198//1 602//1
f 206//1 199//1 204//1
s 1
f 207//1 201//1 203//1
s 0
f 208//1 205//1 209//1
f 208//1 209//1 188//1
f 208//1 188//1 183//1
f 208//1 204//1 205//1
f 694//1 556//1 783//1
f 560//1 783//1 602//1
f 560//1 636//1 694//1
f 560//1 584//1 636//1
f 560//1 694//1 783//1
f 604//1 210//1 211//1
f 604//1 178//1 210//1
f 604//1 602//1 178//1
f 604//1 211//1 201//1
f 212//1 213//1 214//1
f 215//1 201//1 207//1
f 215//1 604//1 201//1
f 216//1 213//1 212//1
f 216//1 215//1 207//1
f 216//1 207//1 213//1
f 217//1 216//1 212//1
f 217//1 212//1 218//1
f 219//1 216//1 217//1
f 220//1 217//1 218//1
f 221//1 216//1 219//1
f 222//1 220//1 218//1
f 223//1 216//1 221//1
f 224//1 222//1 218//1
f 225//1 216//1 223//1
f 226//1 224//1 218//1
s 1
f 227//1 226//1 218//1
f 227//1 208//1 183//1
s 0
f 227//1 228//1 208//1
s 1
f 227//1 218//1 228//1
s 0
f 229//1 230//1 226//1
f 231//1 226//1 227//1
f 231//1 232//1 233//1
f 231//1 227//1 232//1
f 231//1 229//1 226//1
f 234//1 235//1 225//1
f 234//1 225//1 223//1
f 236//1 235//1 234//1
f 237//1 234//1 238//1
f 237//1 236//1 234//1
f 239//1 237//1 238//1
f 240//1 237//1 239//1
s 1
f 579//1 633//1 576//1
s 0
f 579//1 576//1 540//1
f 640//1 579//1 540//1
f 241//1 640//1 540//1
f 215//1 241//1 604//1
f 604//1 241//1 540//1
f 242//1 216//1 243//1
f 243//1 216//1 225//1
f 210//1 170//1 211//1
s 1
f 181//1 211//1 170//1
s 0
f 213//1 190//1 193//1
f 213//1 193//1 214//1
f 179//1 150//1 177//1
f 146//1 182//1 170//1
f 692//35 244//35 587//35
f 244//35 245//35 587//35
f 246//88 247//88 668//88
f 781//88 246//88 668//88
f 693//88 583//88 781//88
f 693//88 685//88 583//88
f 693//88 781//88 668//88
s 1
f 496//20 64//20 63//19
f 248//20 63//19 502//20
f 248//20 496//20 63//19
s 0
f 249//20 496//20 248//20
f 250//20 500//20 498//20
f 251//20 248//20 250//20
f 251//20 249//20 248//20
f 251//89 250//89 498//89
f 252//88 253//88 254//88
f 255//88 252//88 254//88
f 256//88 255//88 254//88
f 257//88 256//88 258//88
f 256//88 259//88 258//88
f 259//88 256//88 260//88
f 260//88 256//88 261//88
f 256//88 254//88 262//88
f 261//88 256//88 262//88
f 262//88 254//88 263//88
f 263//88 254//88 264//88
f 264//88 254//88 265//88
f 257//88 258//88 266//88
f 257//88 266//88 267//88
f 265//88 254//88 268//88
f 269//88 270//88 271//88
f 270//88 272//88 271//88
s 1
f 272//88 257//88 271//88
s 0
f 257//88 267//88 271//88
f 269//88 271//88 273//88
f 274//88 275//88 276//88
f 275//88 268//88 276//88
f 268//88 254//88 276//88
f 276//88 277//88 278//88
f 277//88 279//88 278//88
f 280//88 269//88 281//88
f 269//88 273//88 281//88
f 280//88 281//88 282//88
f 280//88 282//88 283//88
s 1
f 284//88 285//88 286//88
f 285//88 280//88 286//88
s 0
f 280//88 283//88 286//88
s 1
f 284//88 286//88 287//88
s 0
f 286//88 288//88 287//88
f 278//88 289//88 290//88
f 276//88 278//88 290//88
f 276//88 290//88 291//88
f 287//88 288//88 292//88
f 292//88 288//88 293//88
s 1
f 293//88 288//88 294//88
s 0
f 288//88 295//88 294//88
f 295//88 296//88 294//88
f 296//88 297//88 294//88
f 297//88 298//88 294//88
f 298//88 299//88 294//88
f 276//88 291//88 300//88
f 274//88 276//88 300//88
f 274//88 300//88 301//88
f 274//88 301//88 302//88
f 585//88 551//88 687//88
f 585//88 687//88 646//88
f 585//88 646//88 591//88
f 646//88 701//88 591//88
f 585//88 591//88 550//88
f 585//88 550//88 652//88
f 303//88 585//88 652//88
f 304//88 274//88 749//88
f 274//88 302//88 749//88
f 302//88 305//88 749//88
f 305//88 306//88 749//88
f 306//88 307//88 749//88
f 307//88 303//88 749//88
f 303//88 652//88 749//88
f 304//88 749//88 308//88
f 652//88 725//88 538//88
f 725//88 542//88 538//88
f 663//88 699//88 795//88
f 795//88 699//88 743//88
f 309//88 308//88 310//88
f 304//88 308//88 311//88
f 308//88 309//88 311//88
f 310//88 308//88 312//88
f 304//88 311//88 313//88
f 314//88 304//88 313//88
f 312//88 308//88 315//88
f 315//88 308//88 316//88
f 795//88 743//88 751//88
f 317//88 314//88 318//88
f 319//88 317//88 318//88
f 299//88 319//88 318//88
f 313//88 320//88 318//88
f 320//88 321//88 318//88
f 294//88 299//88 318//88
f 314//88 313//88 318//88
f 795//88 751//88 589//88
f 733//88 795//88 589//88
f 321//88 322//88 323//88
f 318//88 321//88 323//88
f 324//88 318//88 323//88
f 324//88 323//88 325//88
f 325//88 323//88 326//88
f 316//88 327//88 328//88
f 315//88 316//88 328//88
f 328//88 327//88 329//88
f 328//88 329//88 330//88
f 331//88 328//88 332//88
f 328//88 330//88 332//88
f 332//88 330//88 333//88
f 733//88 589//88 575//88
f 780//88 741//88 775//88
f 775//88 741//88 624//88
f 775//88 624//88 778//88
f 775//88 778//88 595//88
f 773//88 775//88 595//88
f 773//88 595//88 763//88
f 746//88 547//88 754//88
f 754//88 547//88 739//88
f 754//88 739//88 706//88
s 1
f 754//88 706//88 735//88
s 0
f 756//88 754//88 735//88
f 756//88 735//88 729//88
f 763//88 756//88 729//88
f 614//88 544//88 578//88
f 544//88 549//88 555//88
s 1
f 578//88 544//88 555//88
s 0
f 869//88 564//88 682//88
f 682//88 567//88 596//88
f 869//88 682//88 596//88
f 869//88 596//88 588//88
f 869//88 588//88 749//88
f 705//88 869//88 749//88
f 729//88 705//88 749//88
f 763//88 729//88 749//88
f 773//88 763//88 749//88
f 575//88 773//88 749//88
f 733//88 575//88 749//88
f 697//88 733//88 749//88
s 1
f 538//88 697//88 749//88
f 652//88 538//88 749//88
f 578//88 869//88 705//88
s 0
f 555//88 869//88 578//88
f 490//88 308//88 764//88
f 316//88 308//88 490//88
s 1
f 734//39 552//39 79//40
f 78//39 734//39 79//40
s 0
f 503//35 599//35 494//35
f 599//35 334//35 494//35
f 600//87 597//87 335//87
f 600//87 335//87 430//87
f 501//4 428//4 598//4
f 776//4 428//4 501//4
f 785//90 491//90 499//90
f 785//90 499//90 516//90
s 1
f 653//91 451//92 654//93
f 450//94 653//91 632//95
f 653//91 654//93 632//95
f 450//94 632//95 886//94
f 448//96 450//94 876//96
f 809//97 448//96 876//96
f 450//94 886//94 876//96
f 809//97 876//96 761//97
f 803//98 809//97 686//98
f 734//39 803//98 686//98
f 809//97 761//97 686//98
f 734//39 686//98 552//39
f 439//87 786//56 517//56
f 439//87 517//56 609//99
f 451//92 456//100 868//100
f 451//92 868//100 654//93
f 507//101 436//102 434//101
f 507//101 434//101 433//103
f 507//101 730//104 436//102
f 788//105 433//103 432//106
f 788//105 507//101 433//103
f 766//107 432//106 445//108
f 766//107 788//105 432//106
f 566//108 766//107 445//108
f 508//109 445//108 435//110
f 508//109 566//108 445//108
f 609//99 435//110 439//87
f 609//99 508//109 435//110
f 473//98 474//111 841//98
f 558//112 473//98 841//98
f 474//111 672//113 841//98
f 476//114 558//112 610//115
f 558//112 841//98 610//115
f 461//116 476//114 838//117
f 476//114 610//115 838//117
f 459//118 461//116 797//119
f 461//116 838//117 797//119
f 459//118 797//119 825//118
f 456//100 459//118 868//100
f 459//118 825//118 868//100
f 833//104 436//102 730//104
f 833//104 730//104 647//102
f 672//113 742//120 791//120
f 474//111 742//120 672//113
f 812//121 659//122 479//121
f 812//121 479//121 867//108
f 812//121 820//123 659//122
f 519//108 812//121 867//108
f 520//124 867//108 447//124
f 520//124 447//124 446//125
f 520//124 519//108 867//108
f 736//125 520//124 446//125
f 518//126 446//125 530//127
f 518//126 736//125 446//125
f 647//102 530//127 833//104
f 647//102 518//126 530//127
f 792//128 742//120 762//129
f 792//128 791//120 742//120
f 784//130 762//129 489//130
f 784//130 489//130 488//131
f 784//130 792//128 762//129
f 787//131 784//130 488//131
f 782//132 488//131 487//132
f 782//132 787//131 488//131
f 442//133 659//122 820//123
f 442//133 820//123 514//133
f 782//132 681//134 700//134
f 487//132 681//134 782//132
f 441//121 442//133 639//121
f 460//135 441//121 639//121
f 442//133 514//133 639//121
f 440//124 460//135 511//136
f 460//135 639//121 511//136
f 440//124 511//136 510//124
f 572//103 440//124 509//137
f 440//124 510//124 509//137
f 724//101 572//103 522//101
f 443//138 724//101 522//101
f 572//103 509//137 522//101
f 443//138 522//101 513//139
f 482//140 834//141 629//141
f 480//142 482//140 811//143
f 482//140 629//141 811//143
f 681//134 480//142 813//144
f 480//142 811//143 813//144
f 681//134 813//144 700//134
f 620//35 443//138 513//139
f 620//35 513//139 842//145
f 629//141 472//146 846//146
f 834//141 472//146 629//141
f 455//147 620//35 842//145
f 850//148 455//147 870//149
f 455//147 842//145 870//149
f 850//148 870//149 802//148
f 553//150 850//148 822//150
f 515//151 553//150 822//150
f 850//148 802//148 822//150
f 467//152 515//151 857//153
f 515//151 822//150 857//153
f 472//146 467//152 856//154
f 467//152 857//153 856//154
f 472//146 856//154 846//146
f 336//155 767//155 523//155
f 337//155 336//155 523//155
f 424//156 524//156 521//157
f 338//157 424//156 521//157
f 338//157 521//157 339//158
f 339//158 521//157 882//158
s 0
f 422//159 883//159 340//159
f 340//159 883//159 737//159
f 420//160 738//160 839//160
f 341//160 420//160 839//160
f 457//161 840//161 713//161
f 342//161 457//161 713//161
f 492//159 714//159 343//159
f 343//159 714//159 858//159
s 1
f 418//162 859//162 512//163
f 344//163 418//162 512//163
f 344//163 512//163 426//164
f 426//164 512//163 768//164
s 0
f 345//165 862//165 573//165
f 346//165 345//165 573//165
f 413//166 574//166 347//166
f 347//166 574//166 805//166
f 409//167 806//167 625//167
f 348//167 409//167 625//167
f 758//168 626//168 871//168
f 349//168 758//168 871//168
f 570//167 872//167 561//167
f 350//167 570//167 561//167
s 1
f 407//168 562//168 416//168
f 416//168 562//168 863//168
s 0
f 648//169 528//169 351//169
f 648//169 351//169 352//169
f 405//170 531//170 353//170
f 529//170 531//170 405//170
f 401//171 532//171 354//171
f 354//171 532//171 533//171
f 399//172 534//172 535//172
f 355//172 399//172 535//172
f 536//169 864//169 356//169
f 536//169 356//169 397//169
f 865//173 873//173 357//173
f 865//173 357//173 395//173
f 568//174 880//174 358//174
s 1
f 874//174 880//174 568//174
s 0
f 881//175 649//175 403//175
f 881//176 403//176 847//176
f 359//177 823//177 360//177
f 360//177 823//177 683//177
f 437//178 684//178 843//178
f 361//178 437//178 843//178
f 884//179 844//179 362//179
f 362//179 844//179 678//179
f 393//180 679//180 852//180
f 363//180 393//180 852//180
f 504//181 853//181 854//181
f 364//181 504//181 854//181
f 391//182 855//182 831//182
f 365//182 391//182 831//182
f 389//183 832//183 827//183
f 366//183 389//183 827//183
f 465//184 828//184 836//184
f 367//184 465//184 836//184
s 1
f 387//185 837//185 829//185
f 368//185 387//185 829//185
f 385//178 830//178 369//178
s 0
f 369//178 830//178 617//178
f 383//186 618//186 816//186
s 1
f 370//186 383//186 816//186
s 0
f 470//187 817//187 630//187
f 630//187 817//187 824//187
s 1
f 449//188 819//188 477//189
f 477//189 819//188 818//190
f 537//191 819//188 545//191
f 860//192 537//191 545//191
f 819//188 449//188 545//191
f 860//192 545//191 444//192
f 527//193 860//192 703//193
f 860//192 444//192 703//193
f 475//194 818//190 712//195
f 475//194 477//189 818//190
f 671//196 712//195 821//197
f 671//196 475//194 712//195
f 485//198 821//197 804//199
f 485//198 671//196 821//197
f 623//200 804//199 644//201
f 623//200 485//198 804//199
f 506//202 644//201 658//202
f 506//202 658//202 801//203
f 506//202 623//200 644//201
f 486//203 506//202 801//203
f 563//204 801//203 796//204
f 563//204 796//204 702//205
f 563//204 486//203 801//203
f 826//205 563//204 702//205
f 835//206 702//205 757//206
f 835//206 757//206 793//207
f 835//206 826//205 702//205
f 582//208 835//206 793//207
f 703//193 565//209 798//210
f 703//193 798//210 527//193
f 582//208 793//207 557//211
f 484//211 582//208 557//211
f 469//212 845//212 878//213
f 707//213 469//212 878//213
f 468//214 878//213 849//215
f 468//214 707//213 878//213
f 464//216 849//215 771//217
f 464//216 468//214 849//215
f 462//218 771//217 866//219
f 462//218 464//216 771//217
f 454//220 866//219 851//221
f 454//220 462//218 866//219
f 453//222 851//221 875//223
f 453//222 454//220 851//221
f 463//224 875//223 877//225
f 463//224 453//222 875//223
f 452//226 877//225 879//227
f 452//226 463//224 877//225
f 565//209 879//227 798//210
f 565//209 452//226 879//227
f 483//228 557//211 808//229
f 483//228 484//211 557//211
f 481//230 808//229 810//230
f 481//230 810//230 716//231
f 481//230 483//228 808//229
f 478//231 481//230 716//231
f 478//231 716//231 469//212
f 469//212 716//231 845//212
s 0
f 669//87 666//87 747//87
f 669//87 747//87 750//87
f 765//4 667//4 497//4
f 765//4 748//4 667//4
f 431//1 429//1 777//1
f 431//1 777//1 495//1
f 645//1 423//1 421//1
f 645//1 421//1 458//1
f 415//1 458//1 493//1
f 415//1 493//1 419//1
f 415//1 645//1 458//1
f 427//1 425//1 645//1
f 427//1 645//1 415//1
f 417//1 414//1 571//1
f 408//1 417//1 571//1
f 759//1 571//1 410//1
f 571//1 414//1 410//1
f 371//1 569//1 848//1
f 372//1 569//1 371//1
f 396//1 569//1 372//1
f 396//1 372//1 400//1
f 373//1 371//1 848//1
f 373//1 400//1 372//1
f 402//1 400//1 373//1
f 398//1 396//1 400//1
f 404//1 406//1 402//1
f 404//1 373//1 848//1
f 404//1 402//1 373//1
f 631//1 386//1 471//1
f 386//1 631//1 388//1
f 471//1 386//1 384//1
f 388//1 392//1 466//1
f 388//1 631//1 438//1
f 392//1 388//1 438//1
f 392//1 438//1 505//1
f 466//1 392//1 390//1
f 394//1 505//1 885//1
f 505//1 438//1 885//1
f 374//232 375//232 381//232
s 1
f 374//232 381//232 377//232
s 0
f 376//233 721//233 378//233
f 376//233 378//233 379//233
f 411//234 525//234 380//234
f 411//234 380//234 382//234
f 722//1 526//1 412//1
