# Blender 5.1.2
# www.blender.org
mtllib cajas_2.mtl
o cardboard_box_set_lp
v -0.817232 -0.350147 0.555072
v 0.343435 -0.350147 0.555072
v -0.817232 0.244968 0.555072
v 0.343435 0.244968 0.555072
v 0.343435 0.244968 -0.034951
v -0.817232 0.244968 -0.034951
v -0.817232 -0.350147 -0.034951
v 0.343435 -0.350147 -0.034951
v -0.323820 -0.017866 -0.453092
v -0.323820 -0.017866 -0.541703
v -0.323820 -0.350147 -0.541703
v -0.323820 -0.350147 -0.453092
v -0.774240 -0.350147 -0.034951
v -0.773996 -0.350147 -0.541703
v -0.773996 -0.017866 -0.541703
v -0.774240 -0.017866 -0.034951
v -0.189718 0.244968 -0.034951
v -0.189718 -0.350147 -0.453092
v -0.189718 -0.017866 -0.453092
v -0.189718 -0.017866 -0.335862
v -0.189718 -0.017866 -0.034951
v -0.189718 0.244968 -0.034951
v -0.189718 0.244968 -0.335862
v 0.343435 -0.350147 0.096649
v 0.343435 0.244968 0.096649
v 0.343435 -0.350147 0.494147
v 0.343435 0.244968 0.494147
v 0.721121 -0.350147 0.494147
v 0.343435 0.202550 0.494147
v 0.588575 -0.350147 0.494147
v 0.588575 0.202550 0.494147
v 0.725760 -0.062045 0.096649
v 0.343435 -0.062045 0.096649
v 0.588575 -0.062045 0.494147
v 0.721121 -0.062045 0.494147
v 0.588575 0.202550 0.232638
v 0.725760 -0.350147 0.096649
v 0.723074 -0.062045 0.232638
v 0.588575 -0.057162 0.232638
v 0.343142 0.202550 0.232638
v 0.346804 -0.062045 0.232638
v 0.210531 -0.017866 -0.453092
v 0.178774 -0.017866 -0.335862
v 0.178774 0.244968 -0.335862
v 0.178774 0.244968 -0.034951
v 0.204275 -0.350147 -0.034951
v 0.204275 -0.017866 -0.034951
v 0.210531 -0.350147 -0.453092
v 0.176443 -0.017866 -0.034951
v 0.229997 -0.342546 -0.032662
v 0.229997 -0.342546 -0.363710
v 0.360489 -0.332432 -0.032662
v 0.358056 -0.332645 -0.363710
v 0.183025 0.194350 -0.032662
v 0.315705 0.204655 -0.032662
v 0.316562 0.206071 -0.367380
v 0.183025 0.194350 -0.363710
v -0.421603 -0.017749 -0.007199
v -0.179179 -0.017749 -0.095434
v -0.506783 -0.017749 -0.241230
v -0.264360 -0.017749 -0.329465
v -0.421603 0.237572 -0.007199
v -0.179179 0.237572 -0.095434
v -0.506783 0.237572 -0.241230
v -0.264360 0.237572 -0.329465
v -0.137227 0.240979 0.473083
v -0.024002 0.240979 0.162000
v -0.137227 0.357019 0.473083
v -0.024002 0.354578 0.162000
v -0.643671 0.240979 0.288753
v -0.643671 0.359216 0.288753
v -0.530446 0.360193 -0.026237
v -0.530446 0.240979 -0.022331
vn -0.0000 1.0000 -0.0000
vn -0.0000 -0.0000 -1.0000
vn -0.0000 -0.0000 1.0000
vn 1.0000 -0.0000 -0.0000
vn -1.0000 -0.0000 -0.0005
vn -1.0000 -0.0000 -0.0000
vn 1.0000 -0.0000 0.0075
vn -0.0000 0.9998 0.0187
vn 0.9998 -0.0000 0.0197
vn 0.0363 0.9993 0.0007
vn 1.0000 -0.0069 -0.0000
vn 0.9999 -0.0000 0.0150
vn 1.0000 -0.0089 -0.0000
vn 0.9999 0.0038 0.0117
vn 0.0363 0.9993 0.0003
vn 0.9999 0.0138 0.0065
vn 0.9997 -0.0000 -0.0248
vn 1.0000 -0.0000 -0.0011
vn -0.0202 0.9982 -0.0562
vn 1.0000 -0.0000 0.0077
vn 0.0771 -0.9970 -0.0000
vn 0.0773 -0.9970 0.0001
vn 0.0772 -0.9970 0.0001
vn -0.0136 -0.0045 -0.9999
vn 0.9968 0.0799 -0.0022
vn 0.9968 0.0800 -0.0022
vn -0.0824 0.9966 0.0020
vn -0.0825 0.9966 0.0020
vn -0.9962 -0.0872 -0.0000
vn 0.3420 -0.0000 0.9397
vn 0.9397 -0.0000 -0.3420
vn -0.3420 -0.0000 -0.9397
vn -0.9397 -0.0000 0.3420
vn 0.9397 -0.0000 0.3420
vn 0.3451 -0.0157 -0.9384
vn 0.3451 -0.0158 -0.9384
vn 0.0076 1.0000 0.0004
vn -0.3420 -0.0000 0.9397
vn -0.9404 -0.0056 -0.3401
vt 0.005000 0.426480
vt 0.005000 0.005000
vt 0.219258 0.426480
vt 0.983054 0.205011
vt 0.887610 0.220623
vt 0.766947 0.205011
vt 0.411393 0.233584
vt 0.290730 0.397059
vt 0.290730 0.233584
vt 0.005000 0.566936
vt 0.221107 0.988415
vt 0.005000 0.988415
vt 0.818124 0.009762
vt 0.981598 0.009762
vt 0.818124 0.041940
vt 0.005000 0.484822
vt 0.005000 0.452644
vt 0.125663 0.484822
vt 0.769426 0.193782
vt 0.981687 0.193782
vt 0.862190 0.831912
vt 0.862190 0.647892
vt 0.982853 0.831912
vt 0.982853 0.588464
vt 0.982853 0.637161
vt 0.862190 0.588464
vt 0.466930 0.604774
vt 0.562374 0.495503
vt 0.562374 0.604774
vt 0.386141 0.221110
vt 0.338352 0.221110
vt 0.386141 0.116489
vt 0.233584 0.987816
vt 0.233584 0.771709
vt 0.447842 0.987816
vt 0.530489 0.005000
vt 0.552613 0.005000
vt 0.530489 0.020403
vt 0.852518 0.739106
vt 0.747898 0.600271
vt 0.852518 0.600271
vt 0.434288 0.761233
vt 0.338204 0.672214
vt 0.434288 0.672214
vt 0.233584 0.672214
vt 0.338204 0.624082
vt 0.643130 0.324906
vt 0.643130 0.228822
vt 0.738093 0.324906
vt 0.747898 0.443119
vt 0.852519 0.443119
vt 0.747898 0.538086
vt 0.352638 0.664382
vt 0.352638 0.616242
vt 0.447634 0.664382
vt 0.852519 0.587475
vt 0.747898 0.587475
vt 0.447601 0.615533
vt 0.496984 0.614557
vt 0.435524 0.020403
vt 0.386141 0.005000
vt 0.571698 0.530611
vt 0.659494 0.528838
vt 0.571698 0.624922
vt 0.647892 0.338352
vt 0.736912 0.433315
vt 0.647892 0.433315
vt 0.769426 0.041940
vt 0.635614 0.084510
vt 0.624082 0.041940
vt 0.862190 0.443119
vt 0.982853 0.443119
vt 0.509790 0.772181
vt 0.509790 0.638368
vt 0.605234 0.772181
vt 0.328530 0.064794
vt 0.328530 0.198607
vt 0.219258 0.064794
vt 0.221107 0.495503
vt 0.100444 0.546037
vt 0.005000 0.495503
vt 0.982853 0.843141
vt 0.982853 0.995000
vt 0.862190 0.843141
vt 0.457612 0.495503
vt 0.362163 0.604776
vt 0.362163 0.495503
vt 0.636460 0.193782
vt 0.496984 0.753417
vt 0.447601 0.752193
vt 0.747898 0.739106
vt 0.660823 0.624922
vt 0.738093 0.230595
vt 0.233584 0.761233
vt 0.233584 0.624082
vt 0.737018 0.338352
vt 0.100444 0.556144
vt 0.005000 0.555297
vt 0.221107 0.546037
vt 0.338352 0.005000
vt 0.435524 0.116489
vt 0.552613 0.221110
vt 0.530489 0.221110
vt 0.769426 0.084510
vt 0.982853 0.647892
vt 0.766947 0.220623
vt 0.983054 0.432883
vt 0.171470 0.005000
vt 0.219258 0.005000
vt 0.027124 0.005000
vt 0.219258 0.198607
vt 0.411393 0.397059
vt 0.221107 0.566936
vt 0.125663 0.452644
vt 0.862190 0.637161
vt 0.466930 0.495503
vt 0.447842 0.771709
vt 0.605234 0.638368
vt 0.862190 0.995000
vt 0.457604 0.604776
vt 0.626353 0.193782
vt 0.887610 0.432883
vt 0.661099 0.652655
vt 0.661983 0.772971
vt 0.614557 0.772971
vt 0.614557 0.652655
vt 0.563539 0.201550
vt 0.562173 0.005340
vt 0.612225 0.200684
vt 0.608810 0.005000
vt 0.752696 0.429325
vt 0.872878 0.233584
vt 0.874244 0.429791
vt 0.752660 0.233612
vt 0.288503 0.213515
vt 0.271446 0.408481
vt 0.240322 0.209773
vt 0.224060 0.404808
vt 0.848593 0.752660
vt 0.851904 0.874165
vt 0.803208 0.874017
vt 0.800282 0.753837
vt 0.772870 0.981706
vt 0.652655 0.785995
vt 0.772870 0.785995
vt 0.652655 0.981706
vt 0.233584 0.570964
vt 0.264516 0.485979
vt 0.321617 0.603005
vt 0.352548 0.518020
vt 0.636807 0.431068
vt 0.543125 0.431068
vt 0.543125 0.338352
vt 0.636807 0.338352
vt 0.438357 0.438315
vt 0.438357 0.347876
vt 0.531074 0.347876
vt 0.531074 0.438315
vt 0.632045 0.326300
vt 0.538363 0.326300
vt 0.538363 0.233584
vt 0.632045 0.233584
vt 0.528796 0.335825
vt 0.438357 0.335825
vt 0.438357 0.243108
vt 0.528796 0.243108
vt 0.712955 0.652655
vt 0.713842 0.772870
vt 0.671703 0.772870
vt 0.671703 0.652655
vt 0.484377 0.229777
vt 0.443119 0.034063
vt 0.486427 0.033573
vt 0.443130 0.229777
vt 0.577459 0.785995
vt 0.467631 0.987727
vt 0.457406 0.792282
vt 0.589039 0.981865
vt 0.642409 0.785995
vt 0.600271 0.981706
vt 0.600271 0.785995
vt 0.643207 0.981706
vt 0.691108 0.217031
vt 0.690752 0.095481
vt 0.734045 0.096815
vt 0.734044 0.217031
s 0
usemtl Material.001
f 3/1/1 4/2/1 6/3/1
f 6/4/2 16/5/2 7/6/2
f 11/7/2 15/8/2 10/9/2
f 3/10/3 2/11/3 4/12/3
f 10/13/1 15/14/1 9/15/1
f 10/16/4 9/17/4 11/18/4
f 21/19/1 9/15/1 16/20/1
f 16/21/5 15/22/5 13/23/5
f 18/24/2 12/25/2 19/26/2
f 17/27/6 20/28/6 21/29/6
f 24/30/4 8/31/4 33/32/4
f 6/33/6 7/34/6 3/35/6
f 27/36/4 4/37/4 29/38/4
f 24/39/2 32/40/2 37/41/2
f 29/42/3 34/43/3 31/44/3
f 30/45/3 35/46/3 34/43/3
f 31/47/4 34/48/4 36/49/4
f 35/50/7 28/51/7 38/52/7
f 34/53/8 35/54/8 39/55/8
f 37/56/9 32/57/9 38/52/9
f 38/58/10 32/59/10 39/55/10
f 40/60/11 25/61/11 27/36/11
f 39/62/2 41/63/2 36/64/2
f 36/65/1 29/66/1 31/67/1
f 19/68/1 43/69/1 42/70/1
f 18/24/2 42/71/2 48/72/2
f 43/73/2 20/74/2 44/75/2
f 44/76/1 23/77/1 45/78/1
f 8/79/2 47/80/2 5/81/2
f 46/82/12 48/83/12 47/84/12
f 49/85/13 44/86/13 45/87/13
f 43/69/1 49/88/1 42/70/1
f 32/59/1 33/89/1 41/90/1
f 24/39/2 33/91/2 32/40/2
f 28/51/14 37/56/14 38/52/14
f 35/54/15 38/58/15 39/55/15
f 41/63/2 40/92/2 36/64/2
f 34/48/4 39/93/4 36/49/4
f 29/42/3 26/94/3 30/45/3
f 30/45/3 28/95/3 35/46/3
f 36/65/1 40/96/1 29/66/1
f 29/42/3 30/45/3 34/43/3
f 47/80/2 49/97/2 45/98/2
f 47/80/2 45/98/2 5/81/2
f 8/79/2 46/99/2 47/80/2
f 8/31/4 5/100/4 33/32/4
f 5/100/4 25/61/4 33/32/4
f 40/60/16 41/101/16 25/61/16
f 41/101/17 33/32/17 25/61/17
f 27/36/18 29/38/18 40/60/18
f 4/37/4 2/102/4 29/38/4
f 2/102/4 26/103/4 29/38/4
f 20/104/1 19/68/1 9/15/1
f 21/19/1 20/104/1 9/15/1
f 15/14/1 16/20/1 9/15/1
f 15/22/5 14/105/5 13/23/5
f 16/5/2 13/106/2 7/6/2
f 6/4/2 22/107/2 16/5/2
f 25/108/1 5/109/1 45/78/1
f 27/110/1 25/108/1 45/78/1
f 4/2/1 27/110/1 45/78/1
f 4/2/1 45/78/1 17/111/1
f 4/2/1 17/111/1 6/3/1
f 11/7/2 14/112/2 15/8/2
f 3/10/3 1/113/3 2/11/3
f 9/17/4 12/114/4 11/18/4
f 12/25/2 9/115/2 19/26/2
f 17/27/6 23/116/6 20/28/6
f 7/34/6 1/117/6 3/35/6
f 32/59/19 41/90/19 39/55/19
f 19/68/1 20/104/1 43/69/1
f 18/24/2 19/26/2 42/71/2
f 20/74/2 23/118/2 44/75/2
f 23/77/1 17/111/1 45/78/1
f 48/83/12 42/119/12 47/84/12
f 49/85/20 43/120/20 44/86/20
f 49/88/1 47/121/1 42/70/1
f 22/107/2 21/122/2 16/5/2
s 1
f 53/123/21 52/124/22 50/125/23
f 50/125/23 51/126/21 53/123/21
f 56/127/24 53/128/24 57/129/24
f 57/129/24 53/128/24 51/130/24
f 55/131/25 53/132/26 56/133/25
f 53/132/26 55/131/25 52/134/25
f 54/135/3 50/136/3 55/137/3
f 50/136/3 52/138/3 55/137/3
f 55/139/27 56/140/28 57/141/27
f 57/141/27 54/142/27 55/139/27
s 0
f 54/143/29 51/144/29 50/145/29
f 51/144/29 54/143/29 57/146/29
s 1
f 64/147/1 62/148/1 65/149/1
f 62/148/1 63/150/1 65/149/1
f 63/151/30 62/152/30 58/153/30
f 63/151/30 58/153/30 59/154/30
f 65/155/31 63/156/31 59/157/31
f 65/155/31 59/157/31 61/158/31
f 64/159/32 65/160/32 61/161/32
f 64/159/32 61/161/32 60/162/32
f 62/163/33 64/164/33 60/165/33
f 62/163/33 60/165/33 58/166/33
f 69/167/34 68/168/34 66/169/34
f 69/167/34 66/169/34 67/170/34
f 69/171/35 73/172/35 72/173/35
f 73/172/36 69/171/35 67/174/35
f 69/175/37 71/176/37 68/177/37
f 71/176/37 69/175/37 72/178/37
f 68/179/38 70/180/38 66/181/38
f 70/180/38 68/179/38 71/182/38
f 71/183/39 72/184/39 73/185/39
f 71/183/39 73/185/39 70/186/39
