# Blender 5.1.2
# www.blender.org
mtllib bateria.mtl
o Cylinder_1
v 0.016723 -0.489881 -0.058765
v -0.042404 -0.489881 -0.173508
v 0.150447 -0.489881 0.035127
v -0.016444 -0.489881 0.142763
v -0.171378 -0.489881 0.002974
v 0.094032 -0.489881 -0.258350
v -0.000000 -0.489881 -0.274931
v 0.176722 -0.489881 -0.210609
v 0.238097 -0.489881 -0.137465
v 0.270754 -0.489881 -0.047741
v 0.270754 -0.489881 0.047741
v 0.238097 -0.489881 0.137465
v 0.176722 -0.489881 0.210609
v 0.094032 -0.489881 0.258350
v -0.000000 -0.489881 0.274931
v -0.094032 -0.489881 0.258350
v -0.176722 -0.489881 0.210609
v -0.238097 -0.489881 0.137465
v -0.270754 -0.489881 0.047741
v -0.270754 -0.489881 -0.047741
v -0.238097 -0.489881 -0.137465
v -0.176722 -0.489881 -0.210609
v -0.094032 -0.489881 -0.258350
v -0.040817 2.246114 -0.026788
v -0.016444 2.246114 0.142763
v 0.075917 2.246114 -0.068518
v 0.150447 2.246114 0.035127
v -0.171378 2.246114 0.002974
v -0.042404 2.246114 -0.173508
v 0.094032 2.246114 -0.258350
v -0.000000 2.246114 -0.274931
v 0.176722 2.246114 -0.210609
v 0.270754 2.246114 -0.047741
v 0.238097 2.246114 -0.137465
v 0.270754 2.246114 0.047741
v 0.238097 2.246114 0.137465
v 0.176722 2.246114 0.210609
v 0.094032 2.246114 0.258350
v -0.094032 2.246114 0.258350
v -0.000000 2.246114 0.274931
v -0.176722 2.246114 0.210609
v -0.238097 2.246114 0.137465
v -0.270754 2.246114 0.047741
v -0.270754 2.246114 -0.047741
v -0.176722 2.246114 -0.210609
v -0.238097 2.246114 -0.137465
v -0.094032 2.246114 -0.258350
vn -0.0000 -1.0000 -0.0000
vn -0.0000 1.0000 -0.0000
vt 0.343848 0.271912
vt 0.239742 0.339055
vt 0.260431 0.213343
vt 0.143096 0.251855
vt 0.223549 0.141767
vt 0.308656 0.088843
vt 0.250000 0.078500
vt 0.360238 0.118623
vt 0.398523 0.164250
vt 0.418895 0.220219
vt 0.418895 0.279781
vt 0.398523 0.335750
vt 0.360238 0.381377
vt 0.308656 0.411157
vt 0.250000 0.421500
vt 0.191344 0.411157
vt 0.139762 0.381377
vt 0.101477 0.335750
vt 0.081105 0.279781
vt 0.081105 0.220219
vt 0.101477 0.164250
vt 0.139762 0.118623
vt 0.191344 0.088843
vt 0.724539 0.266710
vt 0.739742 0.160945
vt 0.797356 0.292741
vt 0.723548 0.358233
vt 0.843848 0.228088
vt 0.643096 0.248145
vt 0.808656 0.411157
vt 0.750000 0.421500
vt 0.860238 0.381377
vt 0.918895 0.279781
vt 0.898523 0.335750
vt 0.918895 0.220219
vt 0.898523 0.164250
vt 0.860238 0.118623
vt 0.808656 0.088843
vt 0.691343 0.088843
vt 0.750000 0.078500
vt 0.639762 0.118623
vt 0.601477 0.164250
vt 0.581105 0.220219
vt 0.581105 0.279781
vt 0.639762 0.381377
vt 0.601477 0.335750
vt 0.691343 0.411157
s 0
usemtl Material_0
f 3/1/1 4/2/1 1/3/1
f 1/3/1 4/2/1 5/4/1
f 5/4/1 2/5/1 1/3/1
f 6/6/1 1/3/1 2/5/1
f 7/7/1 6/6/1 2/5/1
f 8/8/1 3/1/1 1/3/1
f 6/6/1 8/8/1 1/3/1
f 9/9/1 10/10/1 3/1/1
f 8/8/1 9/9/1 3/1/1
f 3/1/1 10/10/1 11/11/1
f 12/12/1 3/1/1 11/11/1
f 13/13/1 3/1/1 12/12/1
f 14/14/1 4/2/1 3/1/1
f 13/13/1 14/14/1 3/1/1
f 15/15/1 16/16/1 4/2/1
f 14/14/1 15/15/1 4/2/1
f 4/2/1 16/16/1 17/17/1
f 5/4/1 4/2/1 17/17/1
f 18/18/1 5/4/1 17/17/1
f 19/19/1 5/4/1 18/18/1
f 20/20/1 5/4/1 19/19/1
f 21/21/1 22/22/1 5/4/1
f 20/20/1 21/21/1 5/4/1
f 2/5/1 5/4/1 22/22/1
f 23/23/1 2/5/1 22/22/1
f 2/5/1 23/23/1 7/7/1
f 24/24/2 25/25/2 26/26/2
f 29/27/2 24/24/2 26/26/2
f 26/26/2 25/25/2 27/28/2
f 25/25/2 24/24/2 28/29/2
f 24/24/2 29/27/2 28/29/2
f 29/27/2 26/26/2 30/30/2
f 31/31/2 29/27/2 30/30/2
f 26/26/2 27/28/2 32/32/2
f 30/30/2 26/26/2 32/32/2
f 27/28/2 33/33/2 34/34/2
f 32/32/2 27/28/2 34/34/2
f 33/33/2 27/28/2 35/35/2
f 35/35/2 27/28/2 36/36/2
f 27/28/2 37/37/2 36/36/2
f 38/38/2 27/28/2 25/25/2
f 27/28/2 38/38/2 37/37/2
f 25/25/2 39/39/2 40/40/2
f 38/38/2 25/25/2 40/40/2
f 39/39/2 25/25/2 41/41/2
f 41/41/2 25/25/2 28/29/2
f 42/42/2 41/41/2 28/29/2
f 28/29/2 43/43/2 42/42/2
f 43/43/2 28/29/2 44/44/2
f 28/29/2 45/45/2 46/46/2
f 44/44/2 28/29/2 46/46/2
f 45/45/2 28/29/2 29/27/2
f 47/47/2 45/45/2 29/27/2
f 31/31/2 47/47/2 29/27/2
o Cylinder_1_ext_1
v 0.094032 -0.489881 -0.258350
v -0.000000 -0.489881 -0.274931
v -0.000000 -0.489881 -0.392758
v 0.134331 -0.489881 -0.369072
v 0.176722 -0.489881 -0.210609
v 0.252460 -0.489881 -0.300870
v 0.238097 -0.489881 -0.137465
v 0.340138 -0.489881 -0.196379
v 0.270754 -0.489881 -0.047741
v 0.386791 -0.489881 -0.068202
v 0.270754 -0.489881 0.047741
v 0.386791 -0.489881 0.068202
v 0.238097 -0.489881 0.137465
v 0.340138 -0.489881 0.196379
v 0.176722 -0.489881 0.210609
v 0.252460 -0.489881 0.300870
v 0.094032 -0.489881 0.258350
v 0.134331 -0.489881 0.369072
v -0.000000 -0.489881 0.274931
v -0.000000 -0.489881 0.392758
v -0.094032 -0.489881 0.258350
v -0.134331 -0.489881 0.369072
v -0.176722 -0.489881 0.210609
v -0.252460 -0.489881 0.300870
v -0.238097 -0.489881 0.137465
v -0.340138 -0.489881 0.196379
v -0.270754 -0.489881 0.047741
v -0.386791 -0.489881 0.068202
v -0.270754 -0.489881 -0.047741
v -0.386791 -0.489881 -0.068202
v -0.238097 -0.489881 -0.137465
v -0.340138 -0.489881 -0.196379
v -0.176722 -0.489881 -0.210609
v -0.252460 -0.489881 -0.300870
v -0.094032 -0.489881 -0.258350
v -0.134331 -0.489881 -0.369072
v -0.000000 2.246114 -0.392758
v -0.000000 2.246114 -0.274931
v 0.094032 2.246114 -0.258350
v 0.134331 2.246114 -0.369072
v 0.176722 2.246114 -0.210609
v 0.252460 2.246114 -0.300870
v 0.238097 2.246114 -0.137465
v 0.340138 2.246114 -0.196379
v 0.270754 2.246114 -0.047741
v 0.386791 2.246114 -0.068202
v 0.270754 2.246114 0.047741
v 0.386791 2.246114 0.068202
v 0.238097 2.246114 0.137465
v 0.340138 2.246114 0.196379
v 0.176722 2.246114 0.210609
v 0.252460 2.246114 0.300870
v 0.094032 2.246114 0.258350
v 0.134331 2.246114 0.369072
v -0.000000 2.246114 0.274931
v -0.000000 2.246114 0.392758
v -0.094032 2.246114 0.258350
v -0.134331 2.246114 0.369072
v -0.176722 2.246114 0.210609
v -0.252460 2.246114 0.300870
v -0.238097 2.246114 0.137465
v -0.340138 2.246114 0.196379
v -0.270754 2.246114 0.047741
v -0.386791 2.246114 0.068202
v -0.270754 2.246114 -0.047741
v -0.386791 2.246114 -0.068202
v -0.238097 2.246114 -0.137465
v -0.340138 2.246114 -0.196379
v -0.176722 2.246114 -0.210609
v -0.252460 2.246114 -0.300870
v -0.094032 2.246114 -0.258350
v -0.134331 2.246114 -0.369072
vn -0.0000 -1.0000 -0.0000
vn -0.0000 1.0000 -0.0000
vt 0.308656 0.088843
vt 0.250000 0.078500
vt 0.250000 0.005000
vt 0.333795 0.019775
vt 0.360238 0.118623
vt 0.407483 0.062319
vt 0.398523 0.164250
vt 0.462176 0.127500
vt 0.418895 0.220219
vt 0.491278 0.207456
vt 0.418895 0.279781
vt 0.491278 0.292544
vt 0.398523 0.335750
vt 0.462176 0.372500
vt 0.360238 0.381377
vt 0.407483 0.437681
vt 0.308656 0.411157
vt 0.333795 0.480225
vt 0.250000 0.421500
vt 0.250000 0.495000
vt 0.191344 0.411157
vt 0.166205 0.480225
vt 0.139762 0.381377
vt 0.092517 0.437681
vt 0.101477 0.335750
vt 0.037824 0.372500
vt 0.081105 0.279781
vt 0.008722 0.292544
vt 0.081105 0.220219
vt 0.008722 0.207456
vt 0.101477 0.164250
vt 0.037824 0.127500
vt 0.139762 0.118623
vt 0.092517 0.062319
vt 0.191344 0.088843
vt 0.166205 0.019775
vt 0.750000 0.495000
vt 0.750000 0.421500
vt 0.808656 0.411157
vt 0.833795 0.480225
vt 0.860238 0.381377
vt 0.907483 0.437681
vt 0.898523 0.335750
vt 0.962176 0.372500
vt 0.918895 0.279781
vt 0.991278 0.292544
vt 0.918895 0.220219
vt 0.991278 0.207456
vt 0.898523 0.164250
vt 0.962176 0.127500
vt 0.860238 0.118623
vt 0.907483 0.062319
vt 0.808656 0.088843
vt 0.833795 0.019775
vt 0.750000 0.078500
vt 0.750000 0.005000
vt 0.691343 0.088843
vt 0.666205 0.019775
vt 0.639762 0.118623
vt 0.592517 0.062319
vt 0.601477 0.164250
vt 0.537824 0.127500
vt 0.581105 0.220219
vt 0.508722 0.207456
vt 0.581105 0.279781
vt 0.508722 0.292544
vt 0.601477 0.335750
vt 0.537824 0.372500
vt 0.639762 0.381377
vt 0.592517 0.437681
vt 0.691343 0.411157
vt 0.666205 0.480225
s 0
usemtl Material_1
f 48/48/3 49/49/3 50/50/3
f 48/48/3 50/50/3 51/51/3
f 52/52/3 48/48/3 51/51/3
f 52/52/3 51/51/3 53/53/3
f 54/54/3 52/52/3 53/53/3
f 54/54/3 53/53/3 55/55/3
f 56/56/3 54/54/3 55/55/3
f 56/56/3 55/55/3 57/57/3
f 58/58/3 56/56/3 57/57/3
f 58/58/3 57/57/3 59/59/3
f 60/60/3 58/58/3 59/59/3
f 60/60/3 59/59/3 61/61/3
f 62/62/3 60/60/3 61/61/3
f 62/62/3 61/61/3 63/63/3
f 64/64/3 62/62/3 63/63/3
f 64/64/3 63/63/3 65/65/3
f 66/66/3 64/64/3 65/65/3
f 66/66/3 65/65/3 67/67/3
f 68/68/3 66/66/3 67/67/3
f 68/68/3 67/67/3 69/69/3
f 70/70/3 68/68/3 69/69/3
f 70/70/3 69/69/3 71/71/3
f 72/72/3 70/70/3 71/71/3
f 72/72/3 71/71/3 73/73/3
f 74/74/3 72/72/3 73/73/3
f 74/74/3 73/73/3 75/75/3
f 76/76/3 74/74/3 75/75/3
f 76/76/3 75/75/3 77/77/3
f 78/78/3 76/76/3 77/77/3
f 78/78/3 77/77/3 79/79/3
f 80/80/3 78/78/3 79/79/3
f 80/80/3 79/79/3 81/81/3
f 82/82/3 80/80/3 81/81/3
f 82/82/3 81/81/3 83/83/3
f 49/49/3 82/82/3 83/83/3
f 49/49/3 83/83/3 50/50/3
f 84/84/4 85/85/4 86/86/4
f 84/84/4 86/86/4 87/87/4
f 87/87/4 86/86/4 88/88/4
f 87/87/4 88/88/4 89/89/4
f 89/89/4 88/88/4 90/90/4
f 89/89/4 90/90/4 91/91/4
f 91/91/4 90/90/4 92/92/4
f 91/91/4 92/92/4 93/93/4
f 93/93/4 92/92/4 94/94/4
f 93/93/4 94/94/4 95/95/4
f 95/95/4 94/94/4 96/96/4
f 95/95/4 96/96/4 97/97/4
f 97/97/4 96/96/4 98/98/4
f 97/97/4 98/98/4 99/99/4
f 99/99/4 98/98/4 100/100/4
f 99/99/4 100/100/4 101/101/4
f 101/101/4 100/100/4 102/102/4
f 101/101/4 102/102/4 103/103/4
f 103/103/4 102/102/4 104/104/4
f 103/103/4 104/104/4 105/105/4
f 105/105/4 104/104/4 106/106/4
f 105/105/4 106/106/4 107/107/4
f 107/107/4 106/106/4 108/108/4
f 107/107/4 108/108/4 109/109/4
f 109/109/4 108/108/4 110/110/4
f 109/109/4 110/110/4 111/111/4
f 111/111/4 110/110/4 112/112/4
f 111/111/4 112/112/4 113/113/4
f 113/113/4 112/112/4 114/114/4
f 113/113/4 114/114/4 115/115/4
f 115/115/4 114/114/4 116/116/4
f 115/115/4 116/116/4 117/117/4
f 117/117/4 116/116/4 118/118/4
f 117/117/4 118/118/4 119/119/4
f 119/119/4 118/118/4 85/85/4
f 119/119/4 85/85/4 84/84/4
o Cylinder_1_ext
v -0.000000 -0.489881 -0.392758
v -0.000000 2.246114 -0.392758
v 0.134331 2.246114 -0.369072
v 0.134331 -0.489881 -0.369072
v 0.252460 2.246114 -0.300870
v 0.252460 -0.489881 -0.300870
v 0.340138 2.246114 -0.196379
v 0.340138 -0.489881 -0.196379
v 0.386791 2.246114 -0.068202
v 0.386791 -0.489881 -0.068202
v 0.386791 2.246114 0.068202
v 0.386791 -0.489881 0.068202
v 0.340138 2.246114 0.196379
v 0.340138 -0.489881 0.196379
v 0.252460 2.246114 0.300870
v 0.252460 -0.489881 0.300870
v 0.134331 2.246114 0.369072
v 0.134331 -0.489881 0.369072
v -0.000000 2.246114 0.392758
v -0.000000 -0.489881 0.392758
v -0.134331 2.246114 0.369072
v -0.134331 -0.489881 0.369072
v -0.252460 2.246114 0.300870
v -0.252460 -0.489881 0.300870
v -0.340138 2.246114 0.196379
v -0.340138 -0.489881 0.196379
v -0.386791 2.246114 0.068202
v -0.386791 -0.489881 0.068202
v -0.386791 2.246114 -0.068202
v -0.386791 -0.489881 -0.068202
v -0.340138 2.246114 -0.196379
v -0.340138 -0.489881 -0.196379
v -0.252460 2.246114 -0.300870
v -0.252460 -0.489881 -0.300870
v -0.134331 2.246114 -0.369072
v -0.134331 -0.489881 -0.369072
v -0.000000 2.246114 -0.392758
v -0.000000 -0.489881 -0.392758
vn 0.1736 -0.0000 -0.9848
vn 0.5000 -0.0000 -0.8660
vn 0.7660 -0.0000 -0.6428
vn 0.9397 -0.0000 -0.3420
vn 1.0000 -0.0000 -0.0000
vn 0.9397 -0.0000 0.3420
vn 0.7660 -0.0000 0.6428
vn 0.5000 -0.0000 0.8660
vn 0.1736 -0.0000 0.9848
vn -0.1736 -0.0000 0.9848
vn -0.5000 -0.0000 0.8660
vn -0.7660 -0.0000 0.6428
vn -0.9397 -0.0000 0.3420
vn -1.0000 -0.0000 -0.0000
vn -0.9397 -0.0000 -0.3420
vn -0.7660 -0.0000 -0.6428
vn -0.5000 -0.0000 -0.8660
vn -0.1736 -0.0000 -0.9848
vt 1.000000 0.500000
vt 1.000000 1.000000
vt 0.944444 1.000000
vt 0.944444 0.500000
vt 0.888889 1.000000
vt 0.888889 0.500000
vt 0.833333 1.000000
vt 0.833333 0.500000
vt 0.777778 1.000000
vt 0.777778 0.500000
vt 0.722222 1.000000
vt 0.722222 0.500000
vt 0.666667 1.000000
vt 0.666667 0.500000
vt 0.611111 1.000000
vt 0.611111 0.500000
vt 0.555556 1.000000
vt 0.555556 0.500000
vt 0.500000 1.000000
vt 0.500000 0.500000
vt 0.444444 1.000000
vt 0.444444 0.500000
vt 0.388889 1.000000
vt 0.388889 0.500000
vt 0.333333 1.000000
vt 0.333333 0.500000
vt 0.277778 1.000000
vt 0.277778 0.500000
vt 0.222222 1.000000
vt 0.222222 0.500000
vt 0.166667 1.000000
vt 0.166667 0.500000
vt 0.111111 1.000000
vt 0.111111 0.500000
vt 0.055556 1.000000
vt 0.055556 0.500000
vt 0.000000 1.000000
vt 0.000000 0.500000
s 0
usemtl Material_2
f 120/120/5 121/121/5 122/122/5
f 120/120/5 122/122/5 123/123/5
f 123/123/6 122/122/6 124/124/6
f 123/123/6 124/124/6 125/125/6
f 125/125/7 124/124/7 126/126/7
f 125/125/7 126/126/7 127/127/7
f 127/127/8 126/126/8 128/128/8
f 127/127/8 128/128/8 129/129/8
f 129/129/9 128/128/9 130/130/9
f 129/129/9 130/130/9 131/131/9
f 131/131/10 130/130/10 132/132/10
f 131/131/10 132/132/10 133/133/10
f 133/133/11 132/132/11 134/134/11
f 133/133/11 134/134/11 135/135/11
f 135/135/12 134/134/12 136/136/12
f 135/135/12 136/136/12 137/137/12
f 137/137/13 136/136/13 138/138/13
f 137/137/13 138/138/13 139/139/13
f 139/139/14 138/138/14 140/140/14
f 139/139/14 140/140/14 141/141/14
f 141/141/15 140/140/15 142/142/15
f 141/141/15 142/142/15 143/143/15
f 143/143/16 142/142/16 144/144/16
f 143/143/16 144/144/16 145/145/16
f 145/145/17 144/144/17 146/146/17
f 145/145/17 146/146/17 147/147/17
f 147/147/18 146/146/18 148/148/18
f 147/147/18 148/148/18 149/149/18
f 149/149/19 148/148/19 150/150/19
f 149/149/19 150/150/19 151/151/19
f 151/151/20 150/150/20 152/152/20
f 151/151/20 152/152/20 153/153/20
f 153/153/21 152/152/21 154/154/21
f 153/153/21 154/154/21 155/155/21
f 155/155/22 154/154/22 156/156/22
f 155/155/22 156/156/22 157/157/22
o Cylinder_2
v -0.000000 2.114602 -0.147157
v 0.050331 2.114602 -0.138282
v 0.094591 2.114602 -0.112729
v 0.127442 2.114602 -0.073578
v 0.144921 2.114602 -0.025554
v 0.144921 2.114602 0.025554
v 0.127442 2.114602 0.073579
v 0.094591 2.114602 0.112729
v 0.050331 2.114602 0.138282
v -0.000000 2.114602 0.147157
v -0.050331 2.114602 0.138282
v -0.094591 2.114602 0.112729
v -0.127442 2.114602 0.073578
v -0.144921 2.114602 0.025554
v -0.144921 2.114602 -0.025554
v -0.127442 2.114602 -0.073578
v -0.094591 2.114602 -0.112729
v -0.050331 2.114602 -0.138282
v -0.000000 2.343586 -0.147157
v 0.050331 2.343586 -0.138282
v 0.094591 2.343586 -0.112729
v 0.127442 2.343586 -0.073578
v 0.144921 2.343586 -0.025554
v 0.144921 2.343586 0.025554
v 0.127442 2.343586 0.073579
v 0.094591 2.343586 0.112729
v 0.050331 2.343586 0.138282
v -0.000000 2.343586 0.147157
v -0.050331 2.343586 0.138282
v -0.094591 2.343586 0.112729
v -0.127442 2.343586 0.073578
v -0.144921 2.343586 0.025554
v -0.144921 2.343586 -0.025554
v -0.127442 2.343586 -0.073578
v -0.094591 2.343586 -0.112729
v -0.050331 2.343586 -0.138282
v -0.000000 2.343586 -0.103010
v 0.035231 2.343586 -0.096798
v 0.066213 2.343586 -0.078910
v 0.089209 2.343586 -0.051505
v 0.101445 2.343586 -0.017887
v 0.101445 2.343586 0.017887
v 0.089209 2.343586 0.051505
v 0.066213 2.343586 0.078910
v 0.035231 2.343586 0.096798
v -0.000000 2.343586 0.103010
v -0.035231 2.343586 0.096798
v -0.066213 2.343586 0.078910
v -0.089209 2.343586 0.051505
v -0.101445 2.343586 0.017887
v -0.101445 2.343586 -0.017888
v -0.089209 2.343586 -0.051505
v -0.066213 2.343586 -0.078910
v -0.035231 2.343586 -0.096798
v -0.000000 2.343586 0.000000
v -0.000000 2.343586 -0.034337
v 0.029736 2.343586 -0.017168
v 0.029736 2.343586 0.017168
v -0.000000 2.343586 0.034337
v -0.029736 2.343586 0.017168
v -0.029736 2.343586 -0.017168
v -0.000000 2.343586 -0.068673
v 0.034337 2.343586 -0.059473
v 0.059473 2.343586 -0.034337
v 0.068673 2.343586 -0.000000
v 0.059473 2.343586 0.034337
v 0.034337 2.343586 0.059473
v -0.000000 2.343586 0.068673
v -0.034337 2.343586 0.059473
v -0.059473 2.343586 0.034337
v -0.068673 2.343586 -0.000000
v -0.059473 2.343586 -0.034337
v -0.034337 2.343586 -0.059473
v -0.000000 2.114602 -0.147157
v -0.000000 2.343586 -0.147157
v -0.000000 2.343586 -0.147157
v 0.050331 2.343586 -0.138282
v 0.094591 2.343586 -0.112729
v 0.127442 2.343586 -0.073578
v 0.144921 2.343586 -0.025554
v 0.144921 2.343586 0.025554
v 0.127442 2.343586 0.073579
v 0.094591 2.343586 0.112729
v 0.050331 2.343586 0.138282
v -0.000000 2.343586 0.147157
v -0.050331 2.343586 0.138282
v -0.094591 2.343586 0.112729
v -0.127442 2.343586 0.073578
v -0.144921 2.343586 0.025554
v -0.144921 2.343586 -0.025554
v -0.127442 2.343586 -0.073578
v -0.094591 2.343586 -0.112729
v -0.050331 2.343586 -0.138282
vn 0.1736 -0.0000 -0.9848
vn 0.5000 -0.0000 -0.8660
vn 0.7660 -0.0000 -0.6428
vn 0.9397 -0.0000 -0.3420
vn 1.0000 -0.0000 -0.0000
vn 0.9397 -0.0000 0.3420
vn 0.7660 -0.0000 0.6428
vn 0.5000 -0.0000 0.8660
vn 0.1736 -0.0000 0.9848
vn -0.1736 -0.0000 0.9848
vn -0.5000 -0.0000 0.8660
vn -0.7660 -0.0000 0.6428
vn -0.9397 -0.0000 0.3420
vn -1.0000 -0.0000 -0.0000
vn -0.9397 -0.0000 -0.3420
vn -0.7660 -0.0000 -0.6428
vn -0.5000 -0.0000 -0.8660
vn -0.1736 -0.0000 -0.9848
vn -0.0000 1.0000 -0.0000
vt 1.000000 0.500000
vt 1.000000 1.000000
vt 0.944444 1.000000
vt 0.944444 0.500000
vt 0.888889 1.000000
vt 0.888889 0.500000
vt 0.833333 1.000000
vt 0.833333 0.500000
vt 0.777778 1.000000
vt 0.777778 0.500000
vt 0.722222 1.000000
vt 0.722222 0.500000
vt 0.666667 1.000000
vt 0.666667 0.500000
vt 0.611111 1.000000
vt 0.611111 0.500000
vt 0.555556 1.000000
vt 0.555556 0.500000
vt 0.500000 1.000000
vt 0.500000 0.500000
vt 0.444444 1.000000
vt 0.444444 0.500000
vt 0.388889 1.000000
vt 0.388889 0.500000
vt 0.333333 1.000000
vt 0.333333 0.500000
vt 0.277778 1.000000
vt 0.277778 0.500000
vt 0.222222 1.000000
vt 0.222222 0.500000
vt 0.166667 1.000000
vt 0.166667 0.500000
vt 0.111111 1.000000
vt 0.111111 0.500000
vt 0.055556 1.000000
vt 0.055556 0.500000
vt 0.000000 1.000000
vt 0.000000 0.500000
vt 0.750000 0.495000
vt 0.750000 0.421500
vt 0.808656 0.411157
vt 0.833795 0.480225
vt 0.860238 0.381377
vt 0.907483 0.437681
vt 0.898523 0.335750
vt 0.962176 0.372500
vt 0.918895 0.279781
vt 0.991278 0.292544
vt 0.918895 0.220219
vt 0.991278 0.207456
vt 0.898523 0.164250
vt 0.962176 0.127500
vt 0.860238 0.118623
vt 0.907483 0.062319
vt 0.808656 0.088843
vt 0.833795 0.019775
vt 0.750000 0.078500
vt 0.750000 0.005000
vt 0.691343 0.088843
vt 0.666205 0.019775
vt 0.639762 0.118623
vt 0.592517 0.062319
vt 0.601477 0.164250
vt 0.537824 0.127500
vt 0.581105 0.220219
vt 0.508722 0.207456
vt 0.581105 0.279781
vt 0.508722 0.292544
vt 0.601477 0.335750
vt 0.537824 0.372500
vt 0.639762 0.381377
vt 0.592517 0.437681
vt 0.691343 0.411157
vt 0.666205 0.480225
vt 0.750000 0.250000
vt 0.799508 0.221417
vt 0.799508 0.278583
vt 0.750000 0.307167
vt 0.750000 0.192833
vt 0.700492 0.221417
vt 0.700492 0.278583
vt 0.807167 0.349016
vt 0.750000 0.364333
vt 0.864333 0.250000
vt 0.849016 0.307167
vt 0.849016 0.192833
vt 0.807167 0.150984
vt 0.692833 0.150984
vt 0.750000 0.135667
vt 0.650984 0.192833
vt 0.635667 0.250000
vt 0.692833 0.349016
vt 0.650984 0.307167
s 0
usemtl Material_3
f 158/158/23 176/159/23 177/160/23
f 158/158/23 177/160/23 159/161/23
f 159/161/24 177/160/24 178/162/24
f 159/161/24 178/162/24 160/163/24
f 160/163/25 178/162/25 179/164/25
f 160/163/25 179/164/25 161/165/25
f 161/165/26 179/164/26 180/166/26
f 161/165/26 180/166/26 162/167/26
f 162/167/27 180/166/27 181/168/27
f 162/167/27 181/168/27 163/169/27
f 163/169/28 181/168/28 182/170/28
f 163/169/28 182/170/28 164/171/28
f 164/171/29 182/170/29 183/172/29
f 164/171/29 183/172/29 165/173/29
f 165/173/30 183/172/30 184/174/30
f 165/173/30 184/174/30 166/175/30
f 166/175/31 184/174/31 185/176/31
f 166/175/31 185/176/31 167/177/31
f 167/177/32 185/176/32 186/178/32
f 167/177/32 186/178/32 168/179/32
f 168/179/33 186/178/33 187/180/33
f 168/179/33 187/180/33 169/181/33
f 169/181/34 187/180/34 188/182/34
f 169/181/34 188/182/34 170/183/34
f 170/183/35 188/182/35 189/184/35
f 170/183/35 189/184/35 171/185/35
f 171/185/36 189/184/36 190/186/36
f 171/185/36 190/186/36 172/187/36
f 172/187/37 190/186/37 191/188/37
f 172/187/37 191/188/37 173/189/37
f 173/189/38 191/188/38 192/190/38
f 173/189/38 192/190/38 174/191/38
f 174/191/39 192/190/39 193/192/39
f 174/191/39 193/192/39 175/193/39
f 175/193/40 193/192/40 232/194/40
f 175/193/40 232/194/40 231/195/40
f 233/196/41 194/197/41 195/198/41
f 233/196/41 195/198/41 234/199/41
f 234/199/41 195/198/41 196/200/41
f 234/199/41 196/200/41 235/201/41
f 235/201/41 196/200/41 197/202/41
f 235/201/41 197/202/41 236/203/41
f 236/203/41 197/202/41 198/204/41
f 236/203/41 198/204/41 237/205/41
f 237/205/41 198/204/41 199/206/41
f 237/205/41 199/206/41 238/207/41
f 238/207/41 199/206/41 200/208/41
f 238/207/41 200/208/41 239/209/41
f 239/209/41 200/208/41 201/210/41
f 239/209/41 201/210/41 240/211/41
f 240/211/41 201/210/41 202/212/41
f 240/211/41 202/212/41 241/213/41
f 241/213/41 202/212/41 203/214/41
f 241/213/41 203/214/41 242/215/41
f 242/215/41 203/214/41 204/216/41
f 242/215/41 204/216/41 243/217/41
f 243/217/41 204/216/41 205/218/41
f 243/217/41 205/218/41 244/219/41
f 244/219/41 205/218/41 206/220/41
f 244/219/41 206/220/41 245/221/41
f 245/221/41 206/220/41 207/222/41
f 245/221/41 207/222/41 246/223/41
f 246/223/41 207/222/41 208/224/41
f 246/223/41 208/224/41 247/225/41
f 247/225/41 208/224/41 209/226/41
f 247/225/41 209/226/41 248/227/41
f 248/227/41 209/226/41 210/228/41
f 248/227/41 210/228/41 249/229/41
f 249/229/41 210/228/41 211/230/41
f 249/229/41 211/230/41 250/231/41
f 250/231/41 211/230/41 194/197/41
f 250/231/41 194/197/41 233/196/41
f 212/232/41 215/233/41 214/234/41
f 212/232/41 214/234/41 213/235/41
f 216/236/41 215/233/41 212/232/41
f 216/236/41 212/232/41 217/237/41
f 212/232/41 213/235/41 218/238/41
f 212/232/41 218/238/41 217/237/41
f 213/235/41 214/234/41 220/239/41
f 213/235/41 220/239/41 219/240/41
f 214/234/41 222/241/41 221/242/41
f 214/234/41 221/242/41 220/239/41
f 222/241/41 214/234/41 215/233/41
f 222/241/41 215/233/41 223/243/41
f 215/233/41 216/236/41 224/244/41
f 215/233/41 224/244/41 223/243/41
f 216/236/41 226/245/41 225/246/41
f 216/236/41 225/246/41 224/244/41
f 226/245/41 216/236/41 217/237/41
f 226/245/41 217/237/41 227/247/41
f 217/237/41 218/238/41 228/248/41
f 217/237/41 228/248/41 227/247/41
f 218/238/41 230/249/41 229/250/41
f 218/238/41 229/250/41 228/248/41
f 230/249/41 218/238/41 213/235/41
f 230/249/41 213/235/41 219/240/41
f 219/240/41 220/239/41 195/198/41
f 219/240/41 195/198/41 194/197/41
f 220/239/41 221/242/41 196/200/41
f 220/239/41 196/200/41 195/198/41
f 221/242/41 198/204/41 197/202/41
f 221/242/41 197/202/41 196/200/41
f 198/204/41 221/242/41 222/241/41
f 198/204/41 222/241/41 199/206/41
f 199/206/41 222/241/41 223/243/41
f 199/206/41 223/243/41 200/208/41
f 223/243/41 224/244/41 201/210/41
f 223/243/41 201/210/41 200/208/41
f 224/244/41 225/246/41 202/212/41
f 224/244/41 202/212/41 201/210/41
f 225/246/41 204/216/41 203/214/41
f 225/246/41 203/214/41 202/212/41
f 204/216/41 225/246/41 226/245/41
f 204/216/41 226/245/41 205/218/41
f 205/218/41 226/245/41 227/247/41
f 205/218/41 227/247/41 206/220/41
f 227/247/41 228/248/41 207/222/41
f 227/247/41 207/222/41 206/220/41
f 228/248/41 229/250/41 208/224/41
f 228/248/41 208/224/41 207/222/41
f 229/250/41 210/228/41 209/226/41
f 229/250/41 209/226/41 208/224/41
f 210/228/41 229/250/41 230/249/41
f 210/228/41 230/249/41 211/230/41
f 211/230/41 230/249/41 219/240/41
f 211/230/41 219/240/41 194/197/41
