# Blender v2.82 (sub 7) OBJ File: ''
# www.blender.org
mtllib bookcaseobj.mtl
o Null_Mesh
v -0.692634 -3.433923 0.696178
v -0.692634 -3.273257 0.696178
v 0.692634 -3.433923 0.696178
v 0.692634 -3.273257 0.696178
v 0.692634 -3.433923 -0.585237
v 0.692634 -3.273257 -0.585237
v -0.692634 -3.433923 -0.585237
v -0.692634 -3.273257 -0.585237
v -0.692634 -2.252095 0.696178
v -0.692634 -2.091429 0.696178
v 0.692634 -2.252095 0.696178
v 0.692634 -2.091429 0.696178
v 0.692634 -2.252095 -0.585236
v 0.692634 -2.091428 -0.585236
v -0.692634 -2.252095 -0.585236
v -0.692634 -2.091428 -0.585236
v -0.692634 -1.118906 0.696178
v -0.692634 -0.958240 0.696178
v 0.692634 -1.118906 0.696178
v 0.692634 -0.958240 0.696178
v 0.692634 -1.118906 -0.585236
v 0.692634 -0.958240 -0.585236
v -0.692634 -1.118906 -0.585236
v -0.692634 -0.958240 -0.585236
v -0.987328 -4.477921 0.796480
v -0.987328 -4.217175 0.796480
v 0.989006 -4.477921 0.796480
v 0.989006 -4.217175 0.796480
v 0.989006 -4.477920 -0.786350
v 0.989006 -4.217174 -0.786350
v -0.987328 -4.477920 -0.786350
v -0.987328 -4.217174 -0.786350
v -0.987328 -4.268762 -0.786350
v 0.989006 -4.268762 -0.786350
v 0.989006 -4.268762 0.796480
v -0.987328 -4.268762 0.796480
v -0.987328 -4.372749 -0.786350
v 0.989006 -4.372749 -0.786350
v 0.989006 -4.372749 0.796480
v -0.987328 -4.372749 0.796480
v -1.015984 -4.267254 -0.809301
v 1.017663 -4.267254 -0.809301
v 1.017663 -4.267254 0.819431
v -1.015984 -4.267254 0.819431
v -1.015984 -4.374257 -0.809301
v 1.017663 -4.374257 -0.809301
v 1.017663 -4.374257 0.819431
v -1.015984 -4.374257 0.819431
v -0.791028 -4.217174 -0.786350
v -0.791028 -4.217175 0.796480
v -0.791028 -4.268762 0.796480
v -0.813992 -4.267254 0.819431
v -0.813992 -4.374257 0.819431
v -0.791028 -4.372749 0.796480
v -0.791028 -4.477921 0.796480
v -0.791028 -4.477920 -0.786350
v -0.791028 -4.372749 -0.786350
v -0.813992 -4.374257 -0.809301
v -0.813992 -4.267254 -0.809301
v -0.791028 -4.268762 -0.786350
v 0.816053 -4.217174 -0.786350
v 0.816053 -4.217175 0.796480
v 0.816053 -4.268762 0.796480
v 0.839695 -4.267254 0.819431
v 0.839695 -4.374257 0.819431
v 0.816053 -4.372749 0.796480
v 0.816053 -4.477921 0.796480
v 0.816053 -4.477920 -0.786350
v 0.816053 -4.372749 -0.786350
v 0.839695 -4.374257 -0.809301
v 0.839695 -4.267254 -0.809301
v 0.816053 -4.268762 -0.786350
v -1.015984 -4.267254 0.627377
v -1.015984 -4.267254 -0.617247
v -0.987328 -4.268762 0.609838
v -0.987328 -4.268762 -0.599708
v -0.987328 -4.217175 0.609838
v -0.987328 -4.217174 -0.599708
v -0.791028 -4.217175 0.609838
v -0.791028 -4.217174 -0.599708
v 0.816053 -4.217175 0.609838
v 0.816053 -4.217174 -0.599708
v 0.989006 -4.217175 0.609838
v 0.989006 -4.217174 -0.599708
v 0.989006 -4.268762 0.609838
v 0.989006 -4.268762 -0.599708
v 1.017663 -4.267254 0.627377
v 1.017663 -4.267254 -0.617247
v 1.017663 -4.374257 0.627377
v 1.017663 -4.374257 -0.617247
v 0.989006 -4.372749 0.609838
v 0.989006 -4.372749 -0.599708
v 0.989006 -4.477921 0.609838
v 0.989006 -4.477921 -0.599708
v 0.816053 -4.477921 0.609838
v 0.816053 -4.477921 -0.599708
v -0.791028 -4.477921 0.609838
v -0.791028 -4.477921 -0.599708
v -0.987328 -4.477921 0.609838
v -0.987328 -4.477921 -0.599708
v -0.987328 -4.372749 0.609838
v -0.987328 -4.372749 -0.599708
v -1.015984 -4.374257 0.627377
v -1.015984 -4.374257 -0.617247
v -0.961220 -4.717389 -0.761527
v -0.817136 -4.717389 -0.761527
v -0.817136 -4.717390 -0.624532
v -0.961220 -4.717390 -0.624532
v 0.971798 -4.717390 0.777909
v 0.833262 -4.717390 0.777909
v 0.971798 -4.717390 0.628409
v 0.833262 -4.717390 0.628409
v 0.964706 -4.717389 -0.760127
v 0.840353 -4.717389 -0.760127
v 0.964706 -4.717390 -0.625932
v 0.840353 -4.717390 -0.625932
v -0.959084 -4.717390 0.796480
v -0.819272 -4.717390 0.796480
v -0.819272 -4.717390 0.609838
v -0.959084 -4.717390 0.609838
v -1.000000 -0.142884 0.789246
v -1.000000 0.072326 0.789246
v 1.000000 -0.142884 0.789246
v 1.000000 0.072326 0.789246
v 1.000000 -0.142884 -0.789245
v 1.000000 0.072327 -0.789245
v -1.000000 -0.142884 -0.789245
v -1.000000 0.072327 -0.789245
v -1.000000 0.016451 -0.789245
v 1.000000 0.016451 -0.789245
v 1.000000 0.016450 0.789246
v -1.000000 0.016450 0.789246
v -1.000000 -0.037541 -0.789245
v 1.000000 -0.037541 -0.789245
v 1.000000 -0.037542 0.789246
v -1.000000 -0.037542 0.789246
v -1.018000 0.017564 -0.803451
v 1.018000 0.017564 -0.803451
v 1.018000 0.017563 0.803452
v -1.018000 0.017563 0.803452
v -1.018000 -0.037400 -0.803451
v 1.018000 -0.037400 -0.803451
v 1.018000 -0.037400 0.803452
v -1.018000 -0.037400 0.803452
v -1.000000 0.158903 0.789246
v 1.000000 0.158903 0.789246
v 1.000000 0.158903 -0.789245
v -1.000000 0.158903 -0.789245
v -1.112210 0.084028 0.806609
v 1.112210 0.084028 0.806609
v 1.112210 0.084028 -0.806608
v -1.112210 0.084028 -0.806608
v -1.112210 0.172509 0.806609
v 1.112210 0.172509 0.806609
v 1.112210 0.172509 -0.806608
v -1.112210 0.172509 -0.806608
v 0.727143 -0.003100 -0.803451
v 0.436286 0.071301 -0.803451
v 0.145429 0.123962 -0.803451
v -0.145429 0.123962 -0.803451
v -0.436286 0.071301 -0.803451
v -0.727143 -0.003100 -0.803451
v 0.714286 0.000393 -0.789245
v 0.428571 0.073668 -0.789245
v 0.142857 0.124701 -0.789245
v -0.142857 0.124701 -0.789245
v -0.428571 0.073668 -0.789245
v -0.714286 0.000393 -0.789245
v 0.714286 -0.104949 -0.789245
v 0.428571 -0.031674 -0.789245
v 0.142857 0.019358 -0.789245
v -0.142857 0.019358 -0.789245
v -0.428571 -0.031674 -0.789245
v -0.714286 -0.104949 -0.789245
v 0.714286 -0.104949 0.789246
v 0.428571 -0.031675 0.789246
v 0.142857 0.019358 0.789246
v -0.142857 0.019358 0.789246
v -0.428571 -0.031675 0.789246
v -0.714286 -0.104949 0.789246
v 0.714286 0.000393 0.789246
v 0.428571 0.073668 0.789246
v 0.142857 0.124700 0.789246
v -0.142857 0.124700 0.789246
v -0.428571 0.073668 0.789246
v -0.714286 0.000393 0.789246
v 0.727143 -0.003101 0.803452
v 0.436286 0.071301 0.803452
v 0.145429 0.123961 0.803452
v -0.145429 0.123961 0.803452
v -0.436286 0.071301 0.803452
v -0.727143 -0.003101 0.803452
v 0.727143 0.051863 0.803452
v 0.436286 0.126264 0.803452
v 0.145429 0.178925 0.803452
v -0.145429 0.178925 0.803452
v -0.436286 0.126264 0.803452
v -0.727143 0.051863 0.803452
v 0.714286 0.054385 0.789246
v 0.428571 0.127660 0.789246
v 0.142857 0.178692 0.789246
v -0.142857 0.178692 0.789246
v -0.428571 0.127660 0.789246
v -0.714286 0.054385 0.789246
v 0.714286 0.110261 0.789246
v 0.428571 0.183536 0.789246
v 0.142857 0.234568 0.789246
v -0.142857 0.234568 0.789246
v -0.428571 0.183536 0.789246
v -0.714286 0.110261 0.789246
v 0.794435 0.091913 0.806609
v 0.476661 0.170597 0.806609
v 0.158887 0.231966 0.806609
v -0.158887 0.231966 0.806609
v -0.476661 0.170597 0.806609
v -0.794435 0.091913 0.806609
v 0.794435 0.180394 0.806609
v 0.476661 0.259078 0.806609
v 0.158887 0.320447 0.806609
v -0.158887 0.320447 0.806609
v -0.476661 0.259078 0.806609
v -0.794435 0.180394 0.806609
v 0.714286 0.196837 0.789246
v 0.428571 0.270112 0.789246
v 0.142857 0.321145 0.789246
v -0.142857 0.321145 0.789246
v -0.428571 0.270112 0.789246
v -0.714286 0.196837 0.789246
v 0.714286 0.196838 -0.789245
v 0.428571 0.270112 -0.789245
v 0.142857 0.321145 -0.789245
v -0.142857 0.321145 -0.789245
v -0.428571 0.270112 -0.789245
v -0.714286 0.196838 -0.789245
v 0.794435 0.180395 -0.806608
v 0.476661 0.259078 -0.806608
v 0.158887 0.320448 -0.806608
v -0.158887 0.320448 -0.806608
v -0.476661 0.259078 -0.806608
v -0.794435 0.180395 -0.806608
v 0.794435 0.091914 -0.806608
v 0.476661 0.170597 -0.806608
v 0.158887 0.231967 -0.806608
v -0.158887 0.231967 -0.806608
v -0.476661 0.170597 -0.806608
v -0.794435 0.091914 -0.806608
v 0.714286 0.110261 -0.789245
v 0.428571 0.183536 -0.789245
v 0.142857 0.234569 -0.789245
v -0.142857 0.234569 -0.789245
v -0.428571 0.183536 -0.789245
v -0.714286 0.110261 -0.789245
v 0.714286 0.054385 -0.789245
v 0.428571 0.127660 -0.789245
v 0.142857 0.178693 -0.789245
v -0.142857 0.178693 -0.789245
v -0.428571 0.127660 -0.789245
v -0.714286 0.054385 -0.789245
v 0.727143 0.051864 -0.803451
v 0.436286 0.126265 -0.803451
v 0.145429 0.178926 -0.803451
v -0.145429 0.178926 -0.803451
v -0.436286 0.126265 -0.803451
v -0.727143 0.051864 -0.803451
v -1.000000 0.158903 -0.575384
v -0.714286 0.196838 -0.575384
v -0.428571 0.270112 -0.575384
v -0.142857 0.321145 -0.575384
v 0.142857 0.321145 -0.575384
v 0.428571 0.270112 -0.575384
v 0.714286 0.196838 -0.575384
v 1.000000 0.158903 -0.575384
v 1.112210 0.172509 -0.588043
v 1.112210 0.084028 -0.588043
v 1.000000 0.072326 -0.575384
v 1.000000 0.016450 -0.575384
v 1.018000 0.017564 -0.585741
v 1.018000 -0.037400 -0.585741
v 1.000000 -0.037541 -0.575384
v 1.000000 -0.142884 -0.575384
v 0.714286 -0.104949 -0.575384
v 0.428571 -0.031675 -0.575384
v 0.142857 0.019358 -0.575384
v -0.142857 0.019358 -0.575384
v -0.428571 -0.031675 -0.575384
v -0.714286 -0.104949 -0.575384
v -1.000000 -0.142884 -0.575384
v -1.000000 -0.037541 -0.575384
v -1.018000 -0.037400 -0.585741
v -1.018000 0.017564 -0.585741
v -1.000000 0.016450 -0.575384
v -1.000000 0.072326 -0.575384
v -1.112210 0.084028 -0.588043
v -1.112210 0.172509 -0.588043
v -1.000000 -4.194526 0.789245
v 1.000000 -4.194526 0.789245
v 1.000000 -4.194526 -0.789246
v -1.000000 -4.194526 -0.789246
v 0.714286 -4.194526 -0.789246
v 0.428571 -4.194526 -0.789246
v 0.142857 -4.194526 -0.789246
v -0.142857 -4.194526 -0.789246
v -0.428571 -4.194526 -0.789246
v -0.714286 -4.194526 -0.789246
v 0.714286 -4.194526 0.789245
v -0.714286 -4.194526 0.789245
v 1.000000 -4.194526 -0.575385
v 0.714286 -4.194526 -0.575385
v 0.428571 -4.194526 -0.575385
v 0.142857 -4.194526 -0.575385
v -0.142857 -4.194526 -0.575385
v -0.428571 -4.194526 -0.575385
v -0.714286 -4.194526 -0.575385
v -1.000000 -4.194526 -0.575385
vt 0.651444 0.702127
vt 0.651444 0.684654
vt 0.801839 0.684654
vt 0.801839 0.702127
vt 0.634001 0.858965
vt 0.651444 0.858965
vt 0.651444 0.998329
vt 0.634001 0.998329
vt 0.801839 0.841491
vt 0.801839 0.858965
vt 0.651444 0.841491
vt 0.940959 0.684654
vt 0.940959 0.702127
vt 0.801839 0.998329
vt 0.651444 0.841491
vt 0.651444 0.858965
vt 0.801839 0.858965
vt 0.801839 0.841491
vt 0.634001 0.998329
vt 0.651444 0.998329
vt 0.634001 0.858965
vt 0.801839 0.702127
vt 0.801839 0.684654
vt 0.651444 0.684654
vt 0.651444 0.702127
vt 0.940959 0.702127
vt 0.940959 0.684654
vt 0.801839 0.998329
vt 0.651444 0.841491
vt 0.651444 0.858965
vt 0.801839 0.858965
vt 0.801839 0.841491
vt 0.634001 0.998329
vt 0.651444 0.998329
vt 0.634001 0.858965
vt 0.801839 0.702127
vt 0.801839 0.684654
vt 0.651444 0.684654
vt 0.651444 0.702127
vt 0.940959 0.702127
vt 0.940959 0.684654
vt 0.801839 0.998329
vt 0.681809 0.615275
vt 0.669981 0.615275
vt 0.669706 0.593138
vt 0.681583 0.594113
vt 0.830571 0.581455
vt 0.842363 0.581353
vt 0.842401 0.602470
vt 0.830635 0.601845
vt 0.901945 0.493621
vt 0.890120 0.493490
vt 0.890236 0.474002
vt 0.902044 0.474968
vt 0.728263 0.392481
vt 0.740090 0.392537
vt 0.739808 0.413649
vt 0.728063 0.412655
vt 0.973592 0.085322
vt 0.953333 0.085322
vt 0.953333 0.063977
vt 0.973592 0.063977
vt 0.684910 0.410172
vt 0.685101 0.394741
vt 0.701302 0.394943
vt 0.701111 0.410374
vt 0.796182 0.260072
vt 0.801781 0.260071
vt 0.801781 0.278877
vt 0.796182 0.278879
vt 0.953987 0.284486
vt 0.953333 0.278877
vt 0.973592 0.278877
vt 0.974333 0.284486
vt 0.979192 0.085321
vt 0.979192 0.063974
vt 0.821387 0.058367
vt 0.822041 0.063977
vt 0.801781 0.063977
vt 0.801040 0.058367
vt 0.847212 0.484637
vt 0.847170 0.472991
vt 0.866506 0.472924
vt 0.866548 0.484570
vt 0.878106 0.315461
vt 0.866506 0.316225
vt 0.866506 0.295277
vt 0.878106 0.294514
vt 0.667548 0.662905
vt 0.667589 0.674551
vt 0.645644 0.674626
vt 0.645601 0.662981
vt 0.645601 0.506281
vt 0.634001 0.507044
vt 0.634001 0.486097
vt 0.645601 0.485333
vt 0.844600 0.471098
vt 0.863392 0.471163
vt 0.667547 0.485258
vt 0.670043 0.487169
vt 0.648714 0.487095
vt 0.863392 0.318879
vt 0.863392 0.298522
vt 0.866548 0.505518
vt 0.863435 0.508194
vt 0.863435 0.487837
vt 0.667506 0.295965
vt 0.670000 0.297854
vt 0.648672 0.297781
vt 0.645561 0.296041
vt 0.847213 0.662284
vt 0.844643 0.660413
vt 0.863435 0.660477
vt 0.866548 0.662217
vt 0.645559 0.452740
vt 0.648672 0.450064
vt 0.648672 0.470421
vt 0.645558 0.473688
vt 0.645601 0.642033
vt 0.648714 0.639378
vt 0.648714 0.659736
vt 0.822041 0.085322
vt 0.822041 0.260071
vt 0.801781 0.085322
vt 0.979192 0.260070
vt 0.973592 0.260071
vt 0.847169 0.295344
vt 0.844602 0.298457
vt 0.847250 0.673930
vt 0.670042 0.659809
vt 0.402391 0.512211
vt 0.223269 0.512211
vt 0.223268 0.497181
vt 0.402391 0.497181
vt 0.974748 0.976966
vt 0.974748 0.802070
vt 0.995025 0.802070
vt 0.995025 0.976966
vt 0.681676 0.437111
vt 0.702857 0.437417
vt 0.703618 0.449202
vt 0.681546 0.448957
vt 0.844644 0.487772
vt 0.667505 0.473612
vt 0.669999 0.470495
vt 0.796182 0.085322
vt 0.796182 0.063977
vt 0.822041 0.278877
vt 0.979192 0.278877
vt 0.866586 0.673863
vt 0.786276 0.627410
vt 0.805084 0.627437
vt 0.805672 0.639258
vt 0.786277 0.639258
vt 0.788188 0.583591
vt 0.803722 0.583575
vt 0.803739 0.600416
vt 0.788206 0.600432
vt 0.899941 0.674626
vt 0.888116 0.674496
vt 0.645561 0.316988
vt 0.648672 0.318138
vt 0.953245 0.058367
vt 0.973592 0.058367
vt 0.953333 0.260071
vt 0.822128 0.284486
vt 0.801781 0.284486
vt 0.866506 0.451977
vt 0.863392 0.450806
vt 0.878106 0.451213
vt 0.878106 0.472161
vt 0.866548 0.641270
vt 0.863435 0.640120
vt 0.623991 0.425801
vt 0.483259 0.425940
vt 0.482545 0.414093
vt 0.623885 0.413953
vt 0.461917 0.425913
vt 0.460736 0.414114
vt 0.843346 0.802070
vt 0.843346 0.783248
vt 0.974748 0.783248
vt 0.480221 0.466930
vt 0.464604 0.466914
vt 0.464620 0.452903
vt 0.480236 0.452919
vt 0.843346 0.976966
vt 0.823070 0.976966
vt 0.823070 0.802070
vt 0.729729 0.612093
vt 0.708739 0.612093
vt 0.708739 0.596343
vt 0.729729 0.596343
vt 0.974748 0.998329
vt 0.843346 0.998329
vt 0.730063 0.569369
vt 0.708542 0.569147
vt 0.708455 0.557252
vt 0.729532 0.557514
vt 0.460793 0.146131
vt 0.599869 0.147820
vt 0.600412 0.159675
vt 0.460736 0.157978
vt 0.648714 0.507452
vt 0.634001 0.663744
vt 0.634001 0.642797
vt 0.685356 0.374152
vt 0.701557 0.374353
vt 0.669706 0.394550
vt 0.669961 0.373961
vt 0.761188 0.583618
vt 0.761168 0.564135
vt 0.788169 0.564108
vt 0.761205 0.600460
vt 0.928899 0.491183
vt 0.929054 0.477178
vt 0.480198 0.487139
vt 0.464582 0.487122
vt 0.494679 0.466945
vt 0.494657 0.487154
vt 0.729729 0.639258
vt 0.708739 0.639258
vt 0.751158 0.612093
vt 0.751158 0.639258
vt 0.623991 0.973336
vt 0.623991 0.984801
vt 0.592951 0.980672
vt 0.592951 0.969208
vt 0.180958 0.969208
vt 0.180958 0.980672
vt 0.032708 0.980672
vt 0.032708 0.969208
vt 0.235231 0.973336
vt 0.235231 0.984801
vt 0.204192 0.980672
vt 0.204192 0.969208
vt 0.444701 0.969208
vt 0.444701 0.980672
vt 0.421467 0.980672
vt 0.421467 0.969208
vt 0.612588 0.240474
vt 0.760889 0.240144
vt 0.760784 0.272011
vt 0.612799 0.272156
vt 0.421467 0.497181
vt 0.444701 0.497181
vt 0.444701 0.528275
vt 0.421467 0.528275
vt 0.980717 0.486073
vt 0.986788 0.486073
vt 0.986788 0.517725
vt 0.980717 0.517725
vt 0.694458 0.547225
vt 0.694458 0.538544
vt 0.840542 0.538544
vt 0.840542 0.547225
vt 0.964637 0.486073
vt 0.970707 0.486073
vt 0.970707 0.517725
vt 0.964637 0.517725
vt 0.817648 0.363933
vt 0.817648 0.353782
vt 0.840542 0.353782
vt 0.840542 0.363933
vt 0.033738 0.995827
vt 0.033738 0.998329
vt 0.001668 0.998329
vt 0.001668 0.995827
vt 0.984259 0.622037
vt 0.990231 0.622037
vt 0.990231 0.773220
vt 0.984259 0.773220
vt 0.429588 0.995827
vt 0.429588 0.998329
vt 0.397518 0.998329
vt 0.397518 0.995827
vt 0.947101 0.048340
vt 0.947101 0.030024
vt 0.970752 0.030024
vt 0.970752 0.048340
vt 0.001668 0.019799
vt 0.001668 0.017696
vt 0.033233 0.017498
vt 0.033233 0.019997
vt 0.001668 0.007283
vt 0.001668 0.005163
vt 0.033233 0.004975
vt 0.033233 0.007471
vt 0.056675 0.019879
vt 0.056675 0.017616
vt 0.206259 0.017498
vt 0.206259 0.019997
vt 0.578592 0.007353
vt 0.578592 0.005093
vt 0.602034 0.004975
vt 0.602034 0.007471
vt 0.397443 0.019799
vt 0.397443 0.017696
vt 0.429007 0.017498
vt 0.429007 0.019997
vt 0.397443 0.007283
vt 0.397443 0.005163
vt 0.429008 0.004975
vt 0.429008 0.007471
vt 0.578592 0.019879
vt 0.578592 0.017616
vt 0.602034 0.017498
vt 0.602034 0.019997
vt 0.056675 0.007353
vt 0.056675 0.005093
vt 0.206259 0.004975
vt 0.206259 0.007471
vt 0.819003 0.317212
vt 0.819003 0.333286
vt 0.669706 0.333286
vt 0.669706 0.317212
vt 0.945015 0.640033
vt 0.954627 0.640033
vt 0.954627 0.674626
vt 0.945015 0.674626
vt 0.693103 0.507268
vt 0.693103 0.521015
vt 0.669706 0.521015
vt 0.669706 0.507268
vt 0.964637 0.738627
vt 0.974250 0.738627
vt 0.974250 0.773220
vt 0.964637 0.773220
vt 0.671565 0.353782
vt 0.762330 0.284486
vt 0.783799 0.272159
vt 0.786172 0.284486
vt 0.730767 0.376474
vt 0.721946 0.376156
vt 0.753315 0.373961
vt 0.765562 0.376474
vt 0.786172 0.071314
vt 0.784121 0.080240
vt 0.783797 0.048650
vt 0.786172 0.036336
vt 0.671565 0.538544
vt 0.762354 0.036336
vt 0.760796 0.048809
vt 0.612798 0.048692
vt 0.610421 0.036336
vt 0.636781 0.828901
vt 0.636429 0.837737
vt 0.634001 0.806314
vt 0.636781 0.794045
vt 0.610421 0.249468
vt 0.610421 0.284486
vt 0.633598 0.007283
vt 0.633598 0.005163
vt 0.665928 0.007112
vt 0.665928 0.005334
vt 0.697749 0.007010
vt 0.697749 0.005436
vt 0.729068 0.007010
vt 0.729068 0.005436
vt 0.760889 0.007112
vt 0.760889 0.005334
vt 0.793218 0.007283
vt 0.793218 0.005163
vt 0.266270 0.981311
vt 0.266270 0.992775
vt 0.297310 0.986865
vt 0.297310 0.998329
vt 0.328349 0.986865
vt 0.328349 0.998329
vt 0.359389 0.981311
vt 0.359389 0.992775
vt 0.390428 0.973336
vt 0.390428 0.984801
vt 0.180958 0.497181
vt 0.180958 0.528275
vt 0.032708 0.528275
vt 0.032708 0.497181
vt 0.450507 0.211864
vt 0.450507 0.180337
vt 0.600412 0.180337
vt 0.600412 0.212091
vt 0.450507 0.243339
vt 0.600412 0.243741
vt 0.450507 0.274696
vt 0.600412 0.275153
vt 0.450507 0.305934
vt 0.600412 0.306329
vt 0.450507 0.337120
vt 0.600412 0.337401
vt 0.001668 0.973336
vt 0.001668 0.984801
vt 0.493806 0.403926
vt 0.460736 0.403926
vt 0.460736 0.392462
vt 0.493806 0.392462
vt 0.526346 0.403926
vt 0.526346 0.392462
vt 0.558380 0.403926
vt 0.558380 0.392462
vt 0.590921 0.403926
vt 0.590921 0.392462
vt 0.623991 0.403926
vt 0.623991 0.392462
vt 0.365114 0.007112
vt 0.365114 0.005334
vt 0.333293 0.007010
vt 0.333293 0.005436
vt 0.301974 0.007010
vt 0.301974 0.005436
vt 0.270153 0.007112
vt 0.270153 0.005334
vt 0.237823 0.007283
vt 0.237823 0.005163
vt 0.591921 0.995827
vt 0.623991 0.995827
vt 0.623991 0.998329
vt 0.591921 0.998329
vt 0.559046 0.995827
vt 0.559046 0.998329
vt 0.526679 0.995827
vt 0.526679 0.998329
vt 0.494830 0.995827
vt 0.494830 0.998329
vt 0.462463 0.995827
vt 0.462463 0.998329
vt 0.237823 0.019799
vt 0.237823 0.017696
vt 0.270153 0.019630
vt 0.270153 0.017864
vt 0.301974 0.019533
vt 0.301974 0.017962
vt 0.333293 0.019533
vt 0.333293 0.017962
vt 0.365114 0.019630
vt 0.365114 0.017864
vt 0.964637 0.326166
vt 0.964637 0.294514
vt 0.970707 0.294514
vt 0.970707 0.326166
vt 0.964637 0.358558
vt 0.970707 0.358558
vt 0.964637 0.390431
vt 0.970707 0.390431
vt 0.964637 0.421808
vt 0.970707 0.421808
vt 0.964637 0.453681
vt 0.970707 0.453681
vt 0.460736 0.357502
vt 0.493766 0.362145
vt 0.493766 0.377792
vt 0.460736 0.382434
vt 0.526348 0.366442
vt 0.526348 0.373495
vt 0.558378 0.366442
vt 0.558378 0.373495
vt 0.590960 0.362145
vt 0.590960 0.377792
vt 0.623991 0.357502
vt 0.623991 0.382434
vt 0.636781 0.693983
vt 0.636781 0.730432
vt 0.635543 0.717832
vt 0.634001 0.684654
vt 0.964637 0.703000
vt 0.974250 0.703000
vt 0.964637 0.667778
vt 0.974250 0.667778
vt 0.964637 0.633195
vt 0.974250 0.633195
vt 0.964637 0.597973
vt 0.974250 0.597973
vt 0.964637 0.562346
vt 0.974250 0.562346
vt 0.964637 0.527753
vt 0.974250 0.527753
vt 0.610421 0.071426
vt 0.612602 0.080444
vt 0.610421 0.107428
vt 0.612359 0.112891
vt 0.610421 0.143029
vt 0.612419 0.144799
vt 0.610421 0.177953
vt 0.612418 0.176190
vt 0.610421 0.213525
vt 0.612354 0.208067
vt 0.760882 0.080585
vt 0.760910 0.112910
vt 0.784247 0.112683
vt 0.760846 0.144705
vt 0.784199 0.144624
vt 0.760839 0.175971
vt 0.784201 0.176116
vt 0.760910 0.207802
vt 0.784241 0.208069
vt 0.784118 0.240532
vt 0.786172 0.107239
vt 0.786172 0.142879
vt 0.786172 0.177873
vt 0.786172 0.213522
vt 0.786172 0.249476
vt 0.945015 0.463752
vt 0.945015 0.429159
vt 0.954627 0.429159
vt 0.954627 0.463752
vt 0.945015 0.499379
vt 0.954627 0.499379
vt 0.945015 0.534601
vt 0.954627 0.534601
vt 0.945015 0.569184
vt 0.954627 0.569184
vt 0.945015 0.604406
vt 0.954627 0.604406
vt 0.636781 0.749336
vt 0.636781 0.784017
vt 0.635543 0.772028
vt 0.634001 0.740460
vt 0.895542 0.429689
vt 0.897241 0.463975
vt 0.888116 0.463975
vt 0.889815 0.429689
vt 0.893969 0.395868
vt 0.891388 0.395868
vt 0.893969 0.362620
vt 0.891388 0.362620
vt 0.895542 0.328800
vt 0.889815 0.328800
vt 0.897241 0.294514
vt 0.888116 0.294514
vt 0.980717 0.453681
vt 0.986788 0.453681
vt 0.980717 0.421808
vt 0.986788 0.421808
vt 0.980717 0.390431
vt 0.986788 0.390431
vt 0.980717 0.358558
vt 0.986788 0.358558
vt 0.980717 0.326166
vt 0.986788 0.326166
vt 0.980717 0.294514
vt 0.986788 0.294514
vt 0.793218 0.019799
vt 0.760889 0.019630
vt 0.760889 0.017864
vt 0.793218 0.017696
vt 0.729067 0.019533
vt 0.729067 0.017962
vt 0.697749 0.019533
vt 0.697749 0.017962
vt 0.665928 0.019630
vt 0.665928 0.017864
vt 0.633598 0.019799
vt 0.633598 0.017696
vt 0.066613 0.995827
vt 0.066613 0.998329
vt 0.098980 0.995827
vt 0.098980 0.998329
vt 0.130829 0.995827
vt 0.130829 0.998329
vt 0.163196 0.995827
vt 0.163196 0.998329
vt 0.196071 0.995827
vt 0.196071 0.998329
vt 0.228141 0.995827
vt 0.228141 0.998329
vt 0.842401 0.507268
vt 0.842401 0.521015
vt 0.671565 0.547225
vt 0.984259 0.598344
vt 0.990231 0.598344
vt 0.204192 0.497181
vt 0.204192 0.528275
vt 0.911772 0.644030
vt 0.935005 0.644030
vt 0.935005 0.674626
vt 0.911772 0.674626
vt 0.911772 0.613434
vt 0.935005 0.613434
vt 0.911772 0.582838
vt 0.935005 0.582838
vt 0.911772 0.552242
vt 0.935005 0.552242
vt 0.911772 0.521646
vt 0.935005 0.521646
vt 0.592951 0.497181
vt 0.592951 0.528275
vt 0.796182 0.048340
vt 0.796182 0.030024
vt 0.671565 0.363933
vt 0.842401 0.333286
vt 0.842401 0.317212
vt 0.390428 0.528275
vt 0.001668 0.528275
vt 0.001762 0.030024
vt 0.450600 0.030304
vt 0.001668 0.180057
vt 0.235231 0.528275
vt 0.266270 0.528275
vt 0.001668 0.211470
vt 0.297310 0.528275
vt 0.001668 0.242882
vt 0.328349 0.528275
vt 0.001668 0.274295
vt 0.359389 0.528275
vt 0.001668 0.305708
vt 0.001668 0.337120
vt 0.623991 0.528275
vt 0.450507 0.487154
vt 0.001668 0.487154
vn 0.0000 0.0000 1.0000
vn 1.0000 0.0000 0.0000
vn 0.0000 0.0000 -1.0000
vn -1.0000 0.0000 0.0000
vn 0.0000 1.0000 0.0000
vn 0.0000 -1.0000 0.0000
vn 0.9997 -0.0238 -0.0000
vn 0.9994 -0.0358 -0.0000
vn 0.0000 -0.0363 -0.9993
vn 0.0000 -0.0545 -0.9985
vn -0.9993 -0.0361 -0.0000
vn -0.9985 -0.0543 -0.0000
vn 0.0000 0.9978 0.0656
vn 0.0000 0.9978 0.0655
vn -0.0263 0.9991 0.0328
vn 0.0000 -0.9979 0.0655
vn 0.0263 -0.9991 0.0328
vn -0.0525 0.9986 0.0000
vn -0.0263 0.9991 -0.0328
vn -0.0525 -0.9986 -0.0000
vn -0.0263 -0.9991 0.0328
vn 0.0000 0.9978 -0.0655
vn 0.0263 0.9991 -0.0328
vn 0.0000 -0.9978 -0.0655
vn -0.0263 -0.9991 -0.0328
vn 0.0525 0.9986 0.0000
vn 0.0262 0.9991 0.0328
vn 0.0263 0.9991 0.0328
vn 0.0525 -0.9986 0.0000
vn 0.0263 -0.9991 -0.0328
vn 0.0000 -0.9978 -0.0656
vn -0.0000 -0.0256 0.9997
vn -0.0000 -0.0344 -0.9994
vn -0.0000 -0.0516 -0.9987
vn 0.0000 0.9979 0.0655
vn 0.0000 -0.0386 0.9993
vn 0.9994 -0.0337 -0.0000
vn 0.9987 -0.0505 -0.0000
vn -0.9992 -0.0391 0.0000
vn -0.9983 -0.0587 0.0000
vn -0.9941 -0.1084 -0.0000
vn 0.0000 -0.1031 0.9947
vn 0.9941 -0.1084 -0.0000
vn 0.0000 -0.1031 -0.9947
vn 0.0000 -0.0773 0.9970
vn 0.9974 -0.0717 0.0000
vn 0.0000 -0.0773 -0.9970
vn -0.9974 -0.0717 0.0000
vn 0.9949 -0.1010 -0.0000
vn 0.0000 -0.1089 -0.9941
vn -0.9949 -0.1010 -0.0000
vn 0.0000 -0.1089 0.9941
vn -0.9931 -0.1171 0.0000
vn 0.9931 -0.1171 0.0000
vn -0.1734 0.9821 -0.0735
vn -0.1904 0.9817 0.0000
vn -0.0057 1.0000 0.0000
vn -0.0264 0.9982 -0.0546
vn 0.1863 0.9803 0.0655
vn 0.0312 0.9986 0.0426
vn 0.1866 -0.9824 0.0007
vn 0.1866 -0.9824 0.0008
vn 0.0584 -0.9982 -0.0094
vn 0.0583 -0.9983 -0.0094
vn -0.0617 0.9981 0.0000
vn 0.0312 0.9986 -0.0426
vn 0.0078 -1.0000 -0.0000
vn -0.0584 -0.9982 -0.0094
vn -0.0583 -0.9983 -0.0094
vn -0.1863 0.9803 -0.0655
vn -0.0312 0.9986 -0.0426
vn -0.1866 -0.9824 -0.0007
vn -0.1866 -0.9824 -0.0008
vn -0.0584 -0.9982 0.0094
vn -0.0583 -0.9983 0.0094
vn 0.0617 0.9981 0.0000
vn -0.0312 0.9986 0.0426
vn -0.0078 -1.0000 -0.0000
vn 0.0584 -0.9982 0.0094
vn 0.0583 -0.9983 0.0094
vn -0.1037 -0.9946 -0.0000
vn -0.0168 -0.9981 0.0585
vn 0.1204 0.9927 0.0000
vn -0.0264 0.9982 0.0546
vn 0.0268 0.9963 0.0818
vn 0.1581 -0.9849 -0.0710
vn -0.0168 -0.9981 -0.0585
vn 0.1554 0.9769 0.1467
vn 0.1734 0.9821 0.0735
vn 0.0264 0.9982 0.0546
vn -0.0268 0.9963 0.0818
vn 0.1037 -0.9946 -0.0000
vn 0.0168 -0.9981 -0.0585
vn -0.1204 0.9927 0.0000
vn 0.0057 1.0000 0.0000
vn 0.0264 0.9982 -0.0546
vn -0.0268 0.9963 -0.0818
vn -0.1581 -0.9849 0.0710
vn 0.0168 -0.9981 0.0585
vn -0.1554 0.9769 -0.1467
vn 0.0268 0.9963 -0.0818
vn -0.1866 -0.9824 0.0007
vn -0.2126 -0.9766 0.0319
vn -0.0887 -0.9949 0.0480
vn -0.0888 -0.9949 0.0480
vn 0.0888 -0.9949 0.0478
vn 0.2126 -0.9766 0.0318
vn -0.2123 -0.9772 -0.0000
vn -0.2484 -0.9687 -0.0000
vn -0.0883 -0.9961 -0.0000
vn 0.0883 -0.9961 -0.0000
vn 0.2123 -0.9772 -0.0000
vn 0.2484 -0.9687 -0.0000
vn -0.2126 -0.9766 -0.0318
vn -0.0888 -0.9949 -0.0478
vn 0.0887 -0.9949 -0.0480
vn 0.0888 -0.9949 -0.0480
vn 0.2126 -0.9766 -0.0319
vn 0.1866 -0.9824 -0.0007
vn 0.1862 0.9803 -0.0656
vn 0.1862 0.9803 -0.0655
vn 0.2126 0.9765 -0.0349
vn 0.0888 0.9958 -0.0201
vn -0.0888 0.9958 -0.0203
vn -0.2126 0.9765 -0.0350
vn -0.2136 -0.9763 -0.0348
vn -0.0913 -0.9883 -0.1218
vn -0.0914 -0.9883 -0.1218
vn 0.0913 -0.9876 -0.1280
vn 0.2136 -0.9762 -0.0372
vn 0.1581 -0.9846 0.0748
vn 0.1553 0.9764 -0.1501
vn 0.1734 0.9820 -0.0752
vn 0.2130 0.9747 -0.0678
vn 0.2128 0.9765 -0.0339
vn 0.0918 0.9956 0.0209
vn 0.0900 0.9959 0.0104
vn -0.0918 0.9957 0.0142
vn -0.0900 0.9959 0.0071
vn -0.2130 0.9745 -0.0710
vn -0.2128 0.9765 -0.0355
vn 0.1904 0.9817 0.0000
vn 0.2123 0.9772 0.0000
vn 0.2128 0.9765 0.0355
vn 0.0883 0.9961 0.0000
vn 0.0900 0.9959 -0.0071
vn -0.0883 0.9961 0.0000
vn -0.0900 0.9959 -0.0104
vn -0.2123 0.9772 0.0000
vn -0.2128 0.9765 0.0339
vn -0.1734 0.9820 0.0752
vn 0.2130 0.9745 0.0710
vn 0.0918 0.9957 -0.0142
vn -0.0918 0.9956 -0.0209
vn -0.2130 0.9747 0.0678
vn -0.1553 0.9764 0.1501
vn -0.1581 -0.9846 -0.0748
vn -0.2136 -0.9762 0.0372
vn -0.0913 -0.9876 0.1280
vn 0.0913 -0.9883 0.1218
vn 0.0914 -0.9883 0.1218
vn 0.2136 -0.9763 0.0348
vn 0.2126 0.9765 0.0350
vn 0.0888 0.9958 0.0203
vn -0.0888 0.9958 0.0201
vn -0.2126 0.9765 0.0349
vn -0.1862 0.9803 0.0656
vn -0.1862 0.9803 0.0655
usemtl Material.001
s 1
f 3/1/1 4/2/1 2/3/1 1/4/1
f 5/5/2 6/6/2 4/7/2 3/8/2
f 7/9/3 8/10/3 6/6/3 5/11/3
f 1/4/4 2/3/4 8/12/4 7/13/4
f 4/7/5 6/6/5 8/10/5 2/14/5
f 5/11/6 3/1/6 1/4/6 7/9/6
f 11/15/1 12/16/1 10/17/1 9/18/1
f 13/19/2 14/20/2 12/16/2 11/21/2
f 15/22/3 16/23/3 14/24/3 13/25/3
f 9/26/4 10/27/4 16/23/4 15/22/4
f 12/16/5 14/20/5 16/28/5 10/17/5
f 13/25/6 11/15/6 9/18/6 15/22/6
f 19/29/1 20/30/1 18/31/1 17/32/1
f 21/33/2 22/34/2 20/30/2 19/35/2
f 23/36/3 24/37/3 22/38/3 21/39/3
f 17/40/4 18/41/4 24/37/4 23/36/4
f 20/30/5 22/34/5 24/42/5 18/31/5
f 21/39/6 19/29/6 17/32/6 23/36/6
f 55/43/1 54/44/1 40/45/1 25/46/1
f 93/47/7 91/48/2 39/49/2 27/50/8
f 68/51/9 69/52/3 38/53/3 29/54/10
f 100/55/11 102/56/4 37/57/4 31/58/12
f 50/59/5 79/60/5 77/61/5 26/62/5
f 106/63/6 107/64/6 108/65/6 105/66/6
f 72/67/3 61/68/3 30/69/3 34/70/3
f 85/71/2 83/72/2 28/73/2 35/74/2
f 51/75/1 50/59/1 26/62/1 36/76/1
f 76/77/4 78/78/4 32/79/4 33/80/4
f 70/81/3 71/82/3 42/83/3 46/84/3
f 89/85/2 87/86/2 43/87/2 47/88/2
f 53/89/1 52/90/1 44/91/1 48/92/1
f 104/93/4 74/94/4 41/95/4 45/96/4
f 71/82/13 72/97/14 34/98/15 42/83/15
f 58/99/16 57/100/16 37/101/17 45/96/17
f 87/86/18 85/102/18 35/103/19 43/87/19
f 90/104/20 92/105/20 38/106/21 46/84/21
f 52/107/22 51/108/22 36/109/23 44/110/23
f 65/111/24 66/112/24 39/113/25 47/114/25
f 74/115/26 76/116/26 33/117/27 41/118/28
f 103/119/29 101/120/29 40/121/30 48/92/30
f 80/122/5 82/123/5 61/68/5 49/124/5
f 51/75/1 63/125/1 62/126/1 50/59/1
f 52/107/22 64/127/22 63/128/22 51/108/22
f 53/89/1 65/111/1 64/129/1 52/90/1
f 53/89/31 48/92/30 40/121/30 54/130/31
f 55/131/1 67/132/32 66/133/1 54/134/1
f 97/135/6 95/136/6 67/137/6 55/138/6
f 56/139/33 31/140/34 37/141/3 57/142/3
f 58/99/16 70/81/16 69/143/16 57/100/16
f 58/99/3 45/96/3 41/118/3 59/144/3
f 59/144/35 41/118/28 33/117/27 60/145/14
f 60/146/3 33/147/3 32/79/3 49/124/3
f 82/123/5 84/148/5 30/69/5 61/68/5
f 63/125/1 35/149/1 28/73/1 62/126/1
f 64/127/22 43/87/19 35/103/19 63/128/22
f 65/111/1 47/114/1 43/150/1 64/129/1
f 65/111/24 53/89/31 54/130/31 66/112/24
f 67/151/32 27/152/36 39/153/1 66/154/1
f 112/155/6 111/156/6 109/157/6 110/158/6
f 68/51/9 56/159/33 57/160/3 69/52/3
f 70/81/16 46/84/21 38/106/21 69/143/16
f 70/81/3 58/99/3 59/144/3 71/82/3
f 71/82/13 59/144/35 60/145/14 72/97/14
f 72/67/3 60/146/3 49/124/3 61/68/3
f 73/161/26 44/110/23 36/109/23 75/162/26
f 74/115/26 73/161/26 75/162/26 76/116/26
f 75/163/4 36/164/4 26/62/4 77/61/4
f 76/77/4 75/163/4 77/61/4 78/78/4
f 79/60/5 80/122/5 78/78/5 77/61/5
f 80/122/5 49/124/5 32/79/5 78/78/5
f 79/60/5 50/59/5 62/126/5 81/165/5
f 80/122/5 79/60/5 81/165/5 82/123/5
f 81/165/5 62/126/5 28/73/5 83/72/5
f 82/123/5 81/165/5 83/72/5 84/148/5
f 85/71/2 86/166/2 84/148/2 83/72/2
f 86/166/2 34/167/2 30/69/2 84/148/2
f 87/86/18 88/168/18 86/169/18 85/102/18
f 88/168/18 42/83/15 34/98/15 86/169/18
f 89/85/2 90/170/2 88/168/2 87/86/2
f 90/170/2 46/171/2 42/83/2 88/168/2
f 89/172/20 47/114/25 39/113/25 91/173/20
f 90/104/20 89/172/20 91/173/20 92/105/20
f 93/174/7 94/175/37 92/176/2 91/177/2
f 94/175/37 29/178/38 38/179/2 92/176/2
f 95/136/6 96/180/6 94/181/6 93/182/6
f 116/183/6 114/184/6 113/185/6 115/186/6
f 97/135/6 98/187/6 96/180/6 95/136/6
f 98/187/6 56/188/6 68/189/6 96/180/6
f 119/190/6 118/191/6 117/192/6 120/193/6
f 98/187/6 97/135/6 99/194/6 100/195/6
f 99/196/39 25/197/40 40/198/4 101/199/4
f 100/200/11 99/201/39 101/202/4 102/203/4
f 103/119/29 104/93/29 102/204/29 101/120/29
f 104/93/29 45/96/17 37/101/17 102/204/29
f 103/119/4 48/92/4 44/205/4 73/206/4
f 104/93/4 103/119/4 73/206/4 74/94/4
f 108/65/41 100/55/11 31/58/12 105/66/41
f 107/64/42 98/207/42 100/208/42 108/65/42
f 106/209/43 56/210/43 98/207/43 107/64/43
f 105/66/44 31/140/34 56/139/33 106/63/44
f 109/157/45 27/152/36 67/151/32 110/158/45
f 111/156/46 93/47/7 27/50/8 109/157/46
f 112/155/47 95/211/47 93/212/47 111/213/47
f 110/158/48 67/214/48 95/211/48 112/155/48
f 113/185/49 29/178/38 94/175/37 115/186/49
f 114/215/50 68/51/9 29/54/10 113/216/50
f 116/183/51 96/217/51 68/218/51 114/184/51
f 115/219/52 94/220/52 96/217/52 116/183/52
f 117/192/53 25/197/40 99/196/39 120/193/53
f 118/191/1 55/43/1 25/46/1 117/192/1
f 119/190/54 97/221/54 55/222/54 118/191/54
f 120/223/3 99/224/3 97/221/3 119/190/3
f 180/225/1 186/226/1 136/227/1 121/228/1
f 280/229/2 279/230/2 135/231/2 123/232/2
f 169/233/3 163/234/3 134/235/3 125/236/3
f 287/237/4 288/238/4 133/239/4 127/240/4
f 228/241/55 266/242/56 265/243/57 145/244/58
f 304/245/6 313/246/6 314/247/6 298/248/6
f 253/249/3 247/250/3 126/251/3 130/252/3
f 276/253/2 275/254/2 124/255/2 131/256/2
f 204/257/1 210/258/1 122/259/1 132/260/1
f 291/261/4 292/262/4 128/263/4 129/264/4
f 157/265/3 259/266/3 138/267/3 142/268/3
f 278/269/2 277/270/2 139/271/2 143/272/2
f 192/273/1 198/274/1 140/275/1 144/276/1
f 289/277/4 290/278/4 137/279/4 141/280/4
f 259/281/59 253/282/59 130/283/60 138/284/60
f 162/285/61 168/286/62 133/287/63 141/288/64
f 277/289/65 276/290/65 131/291/66 139/292/66
f 278/293/67 279/294/67 134/295/68 142/296/69
f 198/297/70 204/298/70 132/299/71 140/300/71
f 187/301/72 181/302/73 135/303/74 143/304/75
f 290/305/76 291/306/76 129/307/77 137/308/77
f 289/309/78 288/310/78 136/311/79 144/312/80
f 294/313/4 293/314/4 149/315/4 153/316/4
f 240/317/3 246/318/3 152/319/3 156/320/3
f 273/321/2 274/322/2 151/323/2 155/324/2
f 217/325/1 211/326/1 150/327/1 154/328/1
f 293/314/81 292/262/81 122/329/82 149/315/82
f 294/330/83 265/243/57 148/331/84 156/332/85
f 246/333/86 252/334/86 128/335/87 152/336/87
f 235/337/88 229/338/89 147/339/90 155/340/91
f 274/322/92 275/254/92 126/341/93 151/323/93
f 273/342/94 272/343/95 146/344/96 154/345/97
f 211/346/98 205/347/98 124/348/99 150/349/99
f 222/350/100 228/241/55 145/244/58 153/351/101
f 157/352/102 142/296/69 134/295/68 163/353/102
f 158/354/103 157/352/102 163/353/102 164/355/103
f 159/356/104 158/354/103 164/355/103 165/357/105
f 160/358/106 159/356/104 165/357/105 166/359/106
f 161/360/107 160/358/106 166/359/106 167/361/107
f 162/362/61 161/360/107 167/361/107 168/363/62
f 169/233/3 170/364/3 164/365/3 163/234/3
f 170/364/3 171/366/3 165/367/3 164/365/3
f 171/366/3 172/368/3 166/369/3 165/367/3
f 172/368/3 173/370/3 167/371/3 166/369/3
f 173/370/3 174/372/3 168/373/3 167/371/3
f 174/372/3 127/240/3 133/239/3 168/373/3
f 308/374/6 307/375/6 296/376/6 305/377/6
f 282/378/108 281/379/109 175/380/109 176/381/108
f 283/382/110 282/378/108 176/381/108 177/383/110
f 284/384/111 283/382/110 177/383/110 178/385/111
f 285/386/112 284/384/111 178/385/111 179/387/112
f 286/388/113 285/386/112 179/387/112 180/389/113
f 175/390/1 123/232/1 135/231/1 181/391/1
f 176/392/1 175/393/1 181/394/1 182/395/1
f 177/396/1 176/392/1 182/395/1 183/397/1
f 178/398/1 177/396/1 183/397/1 184/399/1
f 179/400/1 178/398/1 184/399/1 185/401/1
f 180/402/1 179/400/1 185/401/1 186/403/1
f 187/301/72 188/404/114 182/405/114 181/302/73
f 188/404/114 189/406/115 183/407/115 182/405/114
f 189/406/115 190/408/116 184/409/117 183/407/115
f 190/408/116 191/410/118 185/411/118 184/409/117
f 191/410/118 192/412/119 186/413/119 185/411/118
f 192/412/119 144/312/80 136/311/79 186/413/119
f 187/414/1 143/415/1 139/416/1 193/417/1
f 188/418/1 187/414/1 193/417/1 194/419/1
f 189/420/1 188/418/1 194/419/1 195/421/1
f 190/422/1 189/420/1 195/421/1 196/423/1
f 191/424/1 190/422/1 196/423/1 197/425/1
f 192/273/1 191/424/1 197/425/1 198/274/1
f 193/426/120 139/292/66 131/291/66 199/427/121
f 194/428/122 193/426/120 199/427/121 200/429/122
f 195/430/123 194/428/122 200/429/122 201/431/123
f 196/432/124 195/430/123 201/431/123 202/433/124
f 197/434/125 196/432/124 202/433/124 203/435/125
f 198/297/70 197/434/125 203/435/125 204/298/70
f 199/436/1 131/437/1 124/438/1 205/439/1
f 200/440/1 199/436/1 205/439/1 206/441/1
f 201/442/1 200/440/1 206/441/1 207/443/1
f 202/444/1 201/442/1 207/443/1 208/445/1
f 203/446/1 202/444/1 208/445/1 209/447/1
f 204/257/1 203/446/1 209/447/1 210/258/1
f 211/448/98 212/449/126 206/450/126 205/451/98
f 212/449/126 213/452/127 207/453/128 206/450/126
f 213/452/127 214/454/129 208/455/129 207/453/128
f 214/454/129 215/456/130 209/457/130 208/455/129
f 215/456/130 216/458/131 210/459/131 209/457/130
f 216/460/131 149/461/82 122/462/82 210/463/131
f 217/325/1 218/464/1 212/465/1 211/326/1
f 218/464/1 219/466/1 213/467/1 212/465/1
f 219/466/1 220/468/1 214/469/1 213/467/1
f 220/468/1 221/470/1 215/471/1 214/469/1
f 221/470/1 222/472/1 216/473/1 215/471/1
f 222/472/1 153/474/1 149/475/1 216/473/1
f 217/476/132 154/345/97 146/344/96 223/477/133
f 218/478/134 217/476/132 223/477/133 224/479/135
f 219/480/136 218/478/134 224/479/135 225/481/137
f 220/482/138 219/480/136 225/481/137 226/483/139
f 221/484/140 220/482/138 226/483/139 227/485/141
f 222/350/100 221/484/140 227/485/141 228/241/55
f 271/486/142 272/343/95 147/339/90 229/338/89
f 270/487/143 271/486/142 229/338/89 230/488/144
f 269/489/145 270/487/143 230/488/144 231/490/146
f 268/491/147 269/489/145 231/490/146 232/492/148
f 267/493/149 268/491/147 232/492/148 233/494/150
f 266/242/56 267/493/149 233/494/150 234/495/151
f 235/337/88 236/496/152 230/488/144 229/338/89
f 236/496/152 237/497/153 231/490/146 230/488/144
f 237/497/153 238/498/154 232/492/148 231/490/146
f 238/498/154 239/499/155 233/494/150 232/492/148
f 239/499/155 240/500/156 234/495/151 233/494/150
f 240/500/156 156/332/85 148/331/84 234/495/151
f 235/501/3 155/502/3 151/503/3 241/504/3
f 236/505/3 235/501/3 241/504/3 242/506/3
f 237/507/3 236/505/3 242/506/3 243/508/3
f 238/509/3 237/507/3 243/508/3 244/510/3
f 239/511/3 238/509/3 244/510/3 245/512/3
f 240/317/3 239/511/3 245/512/3 246/318/3
f 241/513/157 151/514/93 126/515/93 247/516/157
f 242/517/158 241/518/157 247/519/157 248/520/158
f 243/521/159 242/517/158 248/520/158 249/522/159
f 244/523/160 243/521/159 249/522/159 250/524/161
f 245/525/162 244/523/160 250/524/161 251/526/162
f 246/527/86 245/525/162 251/526/162 252/528/86
f 253/249/3 254/529/3 248/530/3 247/250/3
f 254/529/3 255/531/3 249/532/3 248/530/3
f 255/531/3 256/533/3 250/534/3 249/532/3
f 256/533/3 257/535/3 251/536/3 250/534/3
f 257/535/3 258/537/3 252/538/3 251/536/3
f 258/537/3 129/539/3 128/540/3 252/538/3
f 259/541/59 260/542/163 254/543/163 253/544/59
f 260/542/163 261/545/164 255/546/164 254/543/163
f 261/545/164 262/547/165 256/548/165 255/546/164
f 262/547/165 263/549/166 257/550/166 256/548/165
f 263/549/166 264/551/167 258/552/168 257/550/166
f 264/551/167 137/308/77 129/307/77 258/552/168
f 157/265/3 158/553/3 260/554/3 259/266/3
f 158/553/3 159/555/3 261/556/3 260/554/3
f 159/555/3 160/557/3 262/558/3 261/556/3
f 160/557/3 161/559/3 263/560/3 262/558/3
f 161/559/3 162/561/3 264/562/3 263/560/3
f 162/561/3 141/563/3 137/564/3 264/562/3
f 266/242/56 234/495/151 148/331/84 265/243/57
f 266/242/56 228/241/55 227/485/141 267/493/149
f 267/493/149 227/485/141 226/483/139 268/491/147
f 268/491/147 226/483/139 225/481/137 269/489/145
f 269/489/145 225/481/137 224/479/135 270/487/143
f 270/487/143 224/479/135 223/477/133 271/486/142
f 271/486/142 223/477/133 146/344/96 272/343/95
f 273/342/94 155/340/91 147/339/90 272/343/95
f 273/321/2 154/565/2 150/566/2 274/322/2
f 274/322/92 150/566/99 124/255/99 275/254/92
f 276/253/2 130/567/2 126/341/2 275/254/2
f 277/289/65 138/284/60 130/283/60 276/290/65
f 278/269/2 142/568/2 138/569/2 277/270/2
f 278/293/67 143/304/75 135/303/74 279/294/67
f 280/229/2 125/236/2 134/235/2 279/230/2
f 308/374/6 299/570/6 297/571/6 307/375/6
f 309/572/6 300/573/6 299/574/6 308/575/6
f 310/576/6 301/577/6 300/573/6 309/572/6
f 311/578/6 302/579/6 301/577/6 310/576/6
f 312/580/6 303/581/6 302/579/6 311/578/6
f 313/582/6 304/583/6 303/581/6 312/580/6
f 313/246/6 306/584/6 295/585/6 314/247/6
f 287/237/4 121/228/4 136/227/4 288/238/4
f 289/309/78 141/288/64 133/287/63 288/310/78
f 289/277/4 144/586/4 140/587/4 290/278/4
f 290/305/76 140/300/71 132/299/71 291/306/76
f 291/261/4 132/588/4 122/329/4 292/262/4
f 293/314/81 152/589/87 128/263/87 292/262/81
f 294/313/4 156/590/4 152/589/4 293/314/4
f 294/330/83 153/351/101 145/244/58 265/243/57
f 314/247/4 287/237/4 127/240/4 298/248/4
f 298/248/3 127/240/3 174/372/3 304/591/3
f 296/376/1 123/232/1 175/390/1 305/592/1
f 307/375/2 280/229/2 123/232/2 296/376/2
f 305/593/4 175/594/4 281/379/4 308/595/4
f 297/571/2 125/236/2 280/229/2 307/375/2
f 299/596/3 169/233/3 125/236/3 297/571/3
f 300/597/3 170/364/3 169/233/3 299/596/3
f 308/595/1 281/379/1 282/378/1 309/598/1
f 301/599/3 171/366/3 170/364/3 300/597/3
f 309/598/1 282/378/1 283/382/1 310/600/1
f 302/601/3 172/368/3 171/366/3 301/599/3
f 310/600/1 283/382/1 284/384/1 311/602/1
f 303/603/3 173/370/3 172/368/3 302/601/3
f 311/602/1 284/384/1 285/386/1 312/604/1
f 304/591/3 174/372/3 173/370/3 303/603/3
f 312/604/1 285/386/1 286/388/1 313/605/1
f 295/585/4 121/228/4 287/237/4 314/247/4
f 306/606/1 180/225/1 121/228/1 295/585/1
f 313/605/2 286/388/2 180/607/2 306/608/2
o Cube_11_Mesh.001
v 0.378932 -3.987576 -0.419901
v -0.498908 -3.987576 -0.584835
v 0.378932 -4.181505 -0.419901
v -0.498908 -4.181505 -0.584835
v 0.227523 -4.181505 0.385952
v -0.650316 -4.181505 0.221018
v 0.227523 -3.987577 0.385952
v -0.650316 -3.987576 0.221018
v 0.380973 -3.978693 -0.430765
v -0.496867 -3.978693 -0.595698
v 0.380973 -4.190389 -0.430765
v -0.496867 -4.190389 -0.595698
v 0.227523 -4.190389 0.385952
v -0.650316 -4.190389 0.221018
v 0.227523 -3.978693 0.385952
v -0.650316 -3.978693 0.221018
v 0.389783 -4.053955 -0.477655
v 0.389783 -4.115127 -0.477655
v 0.387742 -4.056522 -0.466792
v 0.387742 -4.112560 -0.466792
v -0.490098 -4.056522 -0.631725
v -0.490098 -4.112560 -0.631725
v -0.488057 -4.053955 -0.642589
v -0.488057 -4.115127 -0.642589
v 0.355822 -3.992231 -0.416717
v -0.478531 -3.992231 -0.573480
v 0.355822 -4.176851 -0.416717
v -0.478531 -4.176851 -0.573480
v 0.210314 -4.176851 0.357735
v -0.624039 -4.176851 0.200972
v 0.210314 -3.992231 0.357735
v -0.624039 -3.992231 0.200972
v 0.210314 -4.129378 0.357735
v 0.210314 -4.039704 0.357735
v 0.364559 -4.117115 -0.463218
v 0.364559 -4.051967 -0.463218
v -0.469794 -4.117115 -0.619981
v -0.469794 -4.051967 -0.619981
v -0.624039 -4.129378 0.200972
v -0.624039 -4.039704 0.200972
v -0.524856 -3.119610 0.337419
v 0.064326 -3.119610 0.337419
v -0.524856 -3.247531 0.337419
v 0.064326 -3.247531 0.337419
v -0.524856 -3.247531 -0.203448
v 0.064326 -3.247531 -0.203448
v -0.524856 -3.119610 -0.203448
v 0.064326 -3.119610 -0.203448
v -0.524856 -3.113750 0.344710
v 0.064326 -3.113750 0.344710
v -0.524856 -3.253391 0.344710
v 0.064326 -3.253391 0.344710
v -0.524856 -3.253391 -0.203448
v 0.064326 -3.253391 -0.203448
v -0.524856 -3.113750 -0.203448
v 0.064326 -3.113750 -0.203448
v -0.524856 -3.163395 0.376181
v -0.524856 -3.203746 0.376181
v -0.524856 -3.165088 0.368890
v -0.524856 -3.202053 0.368890
v 0.064326 -3.165088 0.368890
v 0.064326 -3.202053 0.368890
v 0.064326 -3.163395 0.376181
v 0.064326 -3.203746 0.376181
v -0.510262 -3.122680 0.332539
v 0.049733 -3.122680 0.332539
v -0.510262 -3.244461 0.332539
v 0.049733 -3.244461 0.332539
v -0.510262 -3.244461 -0.187252
v 0.049733 -3.244461 -0.187252
v -0.510262 -3.122680 -0.187251
v 0.049733 -3.122680 -0.187251
v -0.510262 -3.213146 -0.187252
v -0.510262 -3.153995 -0.187251
v -0.510262 -3.205057 0.363750
v -0.510262 -3.162084 0.363750
v 0.049733 -3.205057 0.363750
v 0.049733 -3.162084 0.363750
v 0.049733 -3.213146 -0.187252
v 0.049733 -3.153995 -0.187251
v -0.128421 -2.957669 0.444690
v 0.219893 -2.957669 -0.030507
v -0.128421 -3.085590 0.444690
v 0.219893 -3.085590 -0.030507
v -0.564650 -3.085590 0.124939
v -0.216336 -3.085590 -0.350258
v -0.564650 -2.957669 0.124939
v -0.216336 -2.957669 -0.350258
v -0.122540 -2.951809 0.449000
v 0.225774 -2.951809 -0.026197
v -0.122540 -3.091450 0.449000
v 0.225774 -3.091449 -0.026197
v -0.564650 -3.091449 0.124939
v -0.216336 -3.091449 -0.350258
v -0.564650 -2.951809 0.124939
v -0.216336 -2.951809 -0.350258
v -0.097157 -3.001454 0.467606
v -0.097157 -3.041805 0.467606
v -0.103038 -3.003147 0.463295
v -0.103038 -3.040112 0.463295
v 0.245276 -3.003147 -0.011902
v 0.245276 -3.040112 -0.011902
v 0.251157 -3.001454 -0.007591
v 0.251157 -3.041805 -0.007591
v -0.123729 -2.960739 0.430035
v 0.207331 -2.960739 -0.021622
v -0.123729 -3.082520 0.430035
v 0.207331 -3.082520 -0.021622
v -0.542960 -3.082520 0.122744
v -0.211900 -3.082520 -0.328913
v -0.542960 -2.960739 0.122744
v -0.211900 -2.960739 -0.328913
v -0.542960 -3.051205 0.122744
v -0.542960 -2.992053 0.122744
v -0.098556 -3.043116 0.448486
v -0.098556 -3.000143 0.448486
v 0.232503 -3.043116 -0.003170
v 0.232503 -3.000142 -0.003170
v -0.211900 -3.051205 -0.328913
v -0.211900 -2.992053 -0.328913
v 0.069166 -2.035201 0.337419
v 0.272015 -1.337532 0.337419
v 0.222007 -2.079640 0.337419
v 0.424856 -1.381971 0.337419
v 0.222007 -2.079640 -0.203447
v 0.424856 -1.381971 -0.203447
v 0.069166 -2.035201 -0.203447
v 0.272015 -1.337532 -0.203447
v 0.062165 -2.033165 0.344710
v 0.265014 -1.335496 0.344710
v 0.229009 -2.081676 0.344710
v 0.431857 -1.384007 0.344710
v 0.229009 -2.081676 -0.203447
v 0.431857 -1.384007 -0.203447
v 0.062165 -2.033165 -0.203447
v 0.265014 -1.335496 -0.203447
v 0.121481 -2.050412 0.376182
v 0.169693 -2.064430 0.376182
v 0.123504 -2.051000 0.368890
v 0.167669 -2.063841 0.368890
v 0.326353 -1.353331 0.368891
v 0.370518 -1.366172 0.368891
v 0.324329 -1.352743 0.376182
v 0.372541 -1.366760 0.376182
v 0.077859 -2.018987 0.332540
v 0.270659 -1.355879 0.332540
v 0.223363 -2.061293 0.332540
v 0.416163 -1.398185 0.332540
v 0.223363 -2.061293 -0.187251
v 0.416163 -1.398185 -0.187251
v 0.077859 -2.018987 -0.187251
v 0.270659 -1.355879 -0.187251
v 0.185948 -2.050414 -0.187251
v 0.115274 -2.029866 -0.187251
v 0.176284 -2.047604 0.363750
v 0.124939 -2.032676 0.363750
v 0.369083 -1.384496 0.363750
v 0.317738 -1.369568 0.363750
v 0.378748 -1.387306 -0.187251
v 0.308074 -1.366758 -0.187251
v -0.160199 -2.079485 0.337419
v -0.147737 -1.490435 0.337419
v -0.001064 -2.082852 0.337419
v 0.011397 -1.493802 0.337419
v -0.001064 -2.082852 -0.203447
v 0.011397 -1.493802 -0.203447
v -0.160199 -2.079485 -0.203447
v -0.147737 -1.490435 -0.203447
v -0.167488 -2.079331 0.344710
v -0.155027 -1.490281 0.344710
v 0.006226 -2.083006 0.344710
v 0.018687 -1.493956 0.344710
v 0.006226 -2.083006 -0.203447
v 0.018687 -1.493956 -0.203447
v -0.167488 -2.079331 -0.203447
v -0.155027 -1.490281 -0.203447
v -0.105730 -2.080638 0.376182
v -0.055533 -2.081700 0.376182
v -0.103623 -2.080682 0.368890
v -0.057639 -2.081655 0.368890
v -0.091162 -1.491632 0.368891
v -0.045178 -1.492605 0.368891
v -0.093269 -1.491588 0.376182
v -0.043072 -1.492650 0.376182
v -0.156071 -2.064976 0.332540
v -0.144227 -1.505107 0.332540
v -0.004574 -2.068181 0.332540
v 0.007269 -1.508312 0.332540
v -0.004574 -2.068181 -0.187251
v 0.007269 -1.508311 -0.187251
v -0.156071 -2.064976 -0.187251
v -0.144227 -1.505106 -0.187251
v -0.043530 -2.067357 -0.187251
v -0.117115 -2.065800 -0.187251
v -0.053593 -2.067144 0.363750
v -0.107052 -2.066013 0.363750
v -0.041749 -1.507275 0.363750
v -0.095208 -1.506144 0.363750
v -0.031686 -1.507487 -0.187251
v -0.105271 -1.505931 -0.187251
v -0.660175 -2.072954 0.337419
v -0.660175 -1.483773 0.337419
v -0.532254 -2.072954 0.337419
v -0.532254 -1.483773 0.337419
v -0.532254 -2.072954 -0.203447
v -0.532254 -1.483772 -0.203447
v -0.660175 -2.072954 -0.203447
v -0.660175 -1.483772 -0.203447
v -0.666035 -2.072954 0.344710
v -0.666035 -1.483773 0.344710
v -0.526394 -2.072954 0.344710
v -0.526394 -1.483773 0.344710
v -0.526394 -2.072954 -0.203447
v -0.526394 -1.483772 -0.203447
v -0.666035 -2.072954 -0.203447
v -0.666035 -1.483772 -0.203447
v -0.616390 -2.072954 0.376182
v -0.576039 -2.072954 0.376182
v -0.614697 -2.072954 0.368890
v -0.577732 -2.072954 0.368890
v -0.614697 -1.483773 0.368891
v -0.577732 -1.483773 0.368891
v -0.616390 -1.483773 0.376182
v -0.576039 -1.483773 0.376182
v -0.657105 -2.058361 0.332540
v -0.657105 -1.498366 0.332540
v -0.535324 -2.058361 0.332540
v -0.535324 -1.498366 0.332540
v -0.535324 -2.058361 -0.187251
v -0.535324 -1.498366 -0.187251
v -0.657105 -2.058361 -0.187251
v -0.657105 -1.498366 -0.187251
v -0.566639 -2.058361 -0.187251
v -0.625790 -2.058361 -0.187251
v -0.574728 -2.058361 0.363750
v -0.617701 -2.058361 0.363750
v -0.574728 -1.498366 0.363750
v -0.617701 -1.498366 0.363750
v -0.566639 -1.498366 -0.187251
v -0.625790 -1.498366 -0.187251
v -0.498234 -2.072954 0.337419
v -0.498234 -1.483773 0.337419
v -0.370313 -2.072954 0.337419
v -0.370313 -1.483773 0.337419
v -0.370313 -2.072954 -0.203447
v -0.370313 -1.483772 -0.203447
v -0.498234 -2.072954 -0.203447
v -0.498234 -1.483772 -0.203447
v -0.504094 -2.072954 0.344710
v -0.504094 -1.483773 0.344710
v -0.364453 -2.072954 0.344710
v -0.364453 -1.483773 0.344710
v -0.364453 -2.072954 -0.203447
v -0.364453 -1.483772 -0.203447
v -0.504094 -2.072954 -0.203447
v -0.504094 -1.483772 -0.203447
v -0.454449 -2.072954 0.376182
v -0.414098 -2.072954 0.376182
v -0.452756 -2.072954 0.368890
v -0.415791 -2.072954 0.368890
v -0.452756 -1.483773 0.368891
v -0.415791 -1.483773 0.368891
v -0.454449 -1.483773 0.376182
v -0.414098 -1.483773 0.376182
v -0.495164 -2.058361 0.332540
v -0.495164 -1.498366 0.332540
v -0.373383 -2.058361 0.332540
v -0.373383 -1.498366 0.332540
v -0.373383 -2.058361 -0.187251
v -0.373383 -1.498366 -0.187251
v -0.495164 -2.058361 -0.187251
v -0.495164 -1.498366 -0.187251
v -0.404698 -2.058361 -0.187251
v -0.463849 -2.058361 -0.187251
v -0.412787 -2.058361 0.363750
v -0.455760 -2.058361 0.363750
v -0.412787 -1.498366 0.363750
v -0.455760 -1.498366 0.363750
v -0.404698 -1.498366 -0.187251
v -0.463849 -1.498366 -0.187251
v 0.325512 -0.952602 0.337419
v -0.038960 -0.489682 0.337419
v 0.406862 -0.888553 0.337419
v 0.042390 -0.425633 0.337419
v 0.406862 -0.888553 -0.203447
v 0.042390 -0.425633 -0.203447
v 0.325512 -0.952602 -0.203447
v -0.038960 -0.489682 -0.203447
v 0.321786 -0.955536 0.344710
v -0.042687 -0.492616 0.344710
v 0.410588 -0.885619 0.344710
v 0.046116 -0.422699 0.344710
v 0.410588 -0.885619 -0.203447
v 0.046116 -0.422699 -0.203447
v 0.321786 -0.955536 -0.203447
v -0.042687 -0.492616 -0.203447
v 0.353357 -0.930680 0.376182
v 0.379017 -0.910476 0.376182
v 0.354433 -0.929832 0.368891
v 0.377940 -0.911324 0.368891
v -0.010039 -0.466912 0.368891
v 0.013468 -0.448404 0.368891
v -0.011116 -0.467759 0.376182
v 0.014545 -0.447556 0.376182
v 0.318437 -0.939599 0.332540
v -0.027980 -0.499611 0.332540
v 0.395882 -0.878624 0.332540
v 0.049465 -0.438636 0.332540
v 0.395882 -0.878624 -0.187251
v 0.049465 -0.438636 -0.187251
v 0.318437 -0.939599 -0.187251
v -0.027980 -0.499611 -0.187251
v 0.375968 -0.894303 -0.187251
v 0.338351 -0.923920 -0.187251
v 0.370823 -0.898353 0.363750
v 0.343495 -0.919870 0.363750
v 0.024407 -0.458365 0.363750
v -0.002922 -0.479882 0.363750
v 0.029551 -0.454315 -0.187251
v -0.008066 -0.483932 -0.187251
v -0.042872 -0.946669 0.337419
v -0.239730 -0.391348 0.337419
v 0.079917 -0.903141 0.337419
v -0.116941 -0.347820 0.337419
v 0.079917 -0.903141 -0.203447
v -0.116941 -0.347820 -0.203447
v -0.042872 -0.946669 -0.203447
v -0.239730 -0.391348 -0.203447
v -0.048496 -0.948663 0.344710
v -0.245354 -0.393341 0.344710
v 0.085542 -0.901147 0.344710
v -0.111316 -0.345826 0.344710
v 0.085542 -0.901147 -0.203447
v -0.111316 -0.345826 -0.203447
v -0.048496 -0.948663 -0.203447
v -0.245354 -0.393341 -0.203447
v -0.000843 -0.931771 0.376182
v 0.037889 -0.918040 0.376182
v 0.000782 -0.931194 0.368891
v 0.036264 -0.918616 0.368891
v -0.196076 -0.375873 0.368891
v -0.160594 -0.363295 0.368891
v -0.197701 -0.376449 0.376182
v -0.158969 -0.362719 0.376182
v -0.044801 -0.931870 0.332540
v -0.231907 -0.404058 0.332540
v 0.072094 -0.890431 0.332540
v -0.115011 -0.362619 0.332540
v 0.072094 -0.890431 -0.187251
v -0.115011 -0.362619 -0.187251
v -0.044801 -0.931870 -0.187251
v -0.231907 -0.404058 -0.187251
v 0.042036 -0.901087 -0.187251
v -0.014742 -0.921214 -0.187251
v 0.034272 -0.903839 0.363750
v -0.006978 -0.918462 0.363750
v -0.152834 -0.376027 0.363750
v -0.194084 -0.390650 0.363750
v -0.145070 -0.373275 -0.187251
v -0.201848 -0.393402 -0.187251
v -0.425211 -0.955244 0.337419
v -0.425211 -0.366063 0.337419
v -0.266041 -0.955244 0.337419
v -0.266041 -0.366063 0.337419
v -0.266041 -0.955244 -0.203447
v -0.266041 -0.366063 -0.203447
v -0.425211 -0.955244 -0.203447
v -0.425211 -0.366063 -0.203447
v -0.432503 -0.955244 0.344710
v -0.432503 -0.366063 0.344710
v -0.258750 -0.955244 0.344710
v -0.258750 -0.366063 0.344710
v -0.258750 -0.955244 -0.203447
v -0.258750 -0.366063 -0.203447
v -0.432503 -0.955244 -0.203447
v -0.432503 -0.366063 -0.203447
v -0.370730 -0.955245 0.376182
v -0.320522 -0.955245 0.376182
v -0.368623 -0.955245 0.368891
v -0.322629 -0.955245 0.368891
v -0.368623 -0.366063 0.368891
v -0.322629 -0.366063 0.368891
v -0.370730 -0.366063 0.376182
v -0.320522 -0.366063 0.376182
v -0.421391 -0.940651 0.332540
v -0.421391 -0.380656 0.332540
v -0.269861 -0.940651 0.332540
v -0.269861 -0.380656 0.332540
v -0.269861 -0.940651 -0.187251
v -0.269861 -0.380656 -0.187251
v -0.421391 -0.940651 -0.187251
v -0.421391 -0.380656 -0.187251
v -0.308825 -0.940651 -0.187251
v -0.382427 -0.940651 -0.187251
v -0.318891 -0.940651 0.363750
v -0.372362 -0.940651 0.363750
v -0.318891 -0.380656 0.363750
v -0.372362 -0.380656 0.363750
v -0.308825 -0.380656 -0.187251
v -0.382427 -0.380656 -0.187251
v -0.626712 -0.955244 0.337419
v -0.626712 -0.366063 0.337419
v -0.467542 -0.955244 0.337419
v -0.467542 -0.366063 0.337419
v -0.467542 -0.955244 -0.203447
v -0.467542 -0.366063 -0.203447
v -0.626712 -0.955244 -0.203447
v -0.626712 -0.366063 -0.203447
v -0.634003 -0.955244 0.344710
v -0.634003 -0.366063 0.344710
v -0.460251 -0.955244 0.344710
v -0.460251 -0.366063 0.344710
v -0.460251 -0.955244 -0.203447
v -0.460251 -0.366063 -0.203447
v -0.634003 -0.955244 -0.203447
v -0.634003 -0.366063 -0.203447
v -0.572231 -0.955245 0.376182
v -0.522023 -0.955245 0.376182
v -0.570124 -0.955245 0.368891
v -0.524130 -0.955245 0.368891
v -0.570124 -0.366063 0.368891
v -0.524130 -0.366063 0.368891
v -0.572231 -0.366063 0.376182
v -0.522023 -0.366063 0.376182
v -0.622892 -0.940651 0.332540
v -0.622892 -0.380656 0.332540
v -0.471362 -0.940651 0.332540
v -0.471362 -0.380656 0.332540
v -0.471362 -0.940651 -0.187251
v -0.471362 -0.380656 -0.187251
v -0.622892 -0.940651 -0.187251
v -0.622892 -0.380656 -0.187251
v -0.510326 -0.940651 -0.187251
v -0.583928 -0.940651 -0.187251
v -0.520391 -0.940651 0.363750
v -0.573863 -0.940651 0.363750
v -0.520391 -0.380656 0.363750
v -0.573863 -0.380656 0.363750
v -0.510326 -0.380656 -0.187251
v -0.583928 -0.380656 -0.187251
v -0.106969 -0.408646 0.453520
v -0.106969 0.408646 0.453520
v 0.106969 -0.408646 0.453520
v 0.106969 0.408646 0.453520
v 0.106969 -0.408646 -0.453520
v 0.106969 0.408646 -0.453520
v -0.106969 -0.408646 -0.453520
v -0.106969 0.408646 -0.453520
vt 0.108105 0.094526
vt 0.108125 0.102231
vt 0.026045 0.102450
vt 0.026025 0.094745
vt 0.108160 0.115085
vt 0.108361 0.190434
vt 0.026281 0.190654
vt 0.026080 0.115304
vt 0.107903 0.019177
vt 0.025823 0.019396
vt 0.026529 0.282118
vt 0.108609 0.281899
vt 0.108631 0.290088
vt 0.026551 0.290307
vt 0.026288 0.191943
vt 0.108368 0.191724
vt 0.108572 0.268089
vt 0.026492 0.268308
vt 0.108835 0.366453
vt 0.026755 0.366672
vt 0.239602 0.366672
vt 0.239347 0.365484
vt 0.246780 0.360442
vt 0.247726 0.361634
vt 0.233281 0.230421
vt 0.233546 0.231607
vt 0.226154 0.236708
vt 0.225198 0.235524
vt 0.228323 0.299545
vt 0.229272 0.299591
vt 0.226195 0.359978
vt 0.225198 0.361120
vt 0.226877 0.297525
vt 0.225921 0.297534
vt 0.107896 0.017888
vt 0.025816 0.018107
vt 0.246544 0.299621
vt 0.247499 0.299619
vt 0.245093 0.297458
vt 0.244144 0.297419
vt 0.246741 0.237008
vt 0.247729 0.235859
vt 0.239831 0.230524
vt 0.239530 0.231700
vt 0.108139 0.107380
vt 0.026059 0.107600
vt 0.233054 0.366517
vt 0.233364 0.365344
vt 0.026514 0.276497
vt 0.108594 0.276278
vt 0.205910 0.263901
vt 0.127790 0.264165
vt 0.127767 0.257152
vt 0.205887 0.256889
vt 0.206199 0.349420
vt 0.128079 0.349683
vt 0.127834 0.277172
vt 0.205954 0.276908
vt 0.127522 0.184641
vt 0.205642 0.184377
vt 0.123710 0.349698
vt 0.122323 0.272836
vt 0.206213 0.353788
vt 0.128094 0.354052
vt 0.211436 0.272536
vt 0.210567 0.349405
vt 0.217431 0.272515
vt 0.218819 0.349377
vt 0.222943 0.276851
vt 0.223187 0.349362
vt 0.205930 0.269896
vt 0.127811 0.270159
vt 0.115459 0.349726
vt 0.116328 0.272857
vt 0.111090 0.349741
vt 0.110845 0.277229
vt 0.206241 0.362040
vt 0.128121 0.362303
vt 0.206256 0.366408
vt 0.128136 0.366672
vt 0.810970 0.084997
vt 0.818444 0.084986
vt 0.818558 0.164607
vt 0.811084 0.164618
vt 0.830913 0.084968
vt 0.904005 0.084862
vt 0.904120 0.164484
vt 0.831028 0.164590
vt 0.737878 0.085102
vt 0.737992 0.164723
vt 0.654721 0.164846
vt 0.654606 0.085225
vt 0.662550 0.085214
vt 0.662664 0.164835
vt 0.905371 0.164479
vt 0.905256 0.084857
vt 0.979334 0.084750
vt 0.979448 0.164372
vt 0.736627 0.085107
vt 0.736741 0.164729
vt 0.691230 0.079241
vt 0.690974 0.078091
vt 0.698167 0.073176
vt 0.699086 0.074330
vt 0.657526 0.014502
vt 0.657786 0.015650
vt 0.650596 0.020555
vt 0.649682 0.019401
vt 0.678805 0.014368
vt 0.679725 0.014390
vt 0.678123 0.072931
vt 0.677178 0.074056
vt 0.650075 0.079241
vt 0.649153 0.079231
vt 0.698120 0.014277
vt 0.699045 0.014279
vt 0.671680 0.079140
vt 0.670761 0.079143
vt 0.670738 0.020629
vt 0.671660 0.019485
vt 0.663869 0.014528
vt 0.663600 0.015673
vt 0.823439 0.084979
vt 0.823554 0.164600
vt 0.684880 0.079157
vt 0.685165 0.078016
vt 0.649268 0.164854
vt 0.649153 0.085233
vt 0.987392 0.164361
vt 0.987277 0.084739
vt 0.396402 0.654731
vt 0.339839 0.654540
vt 0.339856 0.649463
vt 0.396419 0.649654
vt 0.396193 0.716652
vt 0.339630 0.716461
vt 0.339807 0.663958
vt 0.396371 0.664149
vt 0.340033 0.596961
vt 0.396597 0.597152
vt 0.336467 0.716450
vt 0.335838 0.660792
vt 0.396183 0.719815
vt 0.339620 0.719624
vt 0.400361 0.661010
vt 0.399356 0.716662
vt 0.404702 0.661025
vt 0.405331 0.716682
vt 0.408671 0.664191
vt 0.408494 0.716693
vt 0.396388 0.659072
vt 0.339824 0.658881
vt 0.330492 0.716430
vt 0.331497 0.660778
vt 0.327329 0.716419
vt 0.327507 0.663917
vt 0.396163 0.725789
vt 0.339599 0.725598
vt 0.396152 0.728952
vt 0.339589 0.728761
vt 0.799887 0.547735
vt 0.807780 0.547747
vt 0.807901 0.463659
vt 0.800008 0.463648
vt 0.820949 0.547766
vt 0.898141 0.547877
vt 0.898262 0.463789
vt 0.821070 0.463678
vt 0.722695 0.547624
vt 0.722816 0.463537
vt 0.634874 0.463406
vt 0.634752 0.547494
vt 0.643141 0.547506
vt 0.643263 0.463418
vt 0.899583 0.463795
vt 0.899462 0.547882
vt 0.977695 0.547995
vt 0.977816 0.463907
vt 0.721374 0.547619
vt 0.721495 0.463531
vt 0.643834 0.388765
vt 0.643564 0.389980
vt 0.651160 0.395171
vt 0.652130 0.393952
vt 0.666374 0.457263
vt 0.666660 0.456053
vt 0.659137 0.450778
vt 0.658155 0.451982
vt 0.630712 0.457278
vt 0.631684 0.457254
vt 0.629992 0.395430
vt 0.628993 0.394242
vt 0.659772 0.388773
vt 0.658798 0.388765
vt 0.651110 0.457373
vt 0.652087 0.457372
vt 0.680938 0.388872
vt 0.679965 0.388875
vt 0.680340 0.450826
vt 0.681317 0.452034
vt 0.673079 0.457278
vt 0.672798 0.456067
vt 0.813056 0.547754
vt 0.813177 0.463667
vt 0.511616 0.267604
vt 0.503052 0.267717
vt 0.503436 0.269257
vt 0.511271 0.269155
vt 0.637128 0.388854
vt 0.637429 0.390060
vt 0.629115 0.463398
vt 0.628993 0.547485
vt 0.986205 0.463920
vt 0.986084 0.548007
vt 0.169228 0.527177
vt 0.225791 0.527368
vt 0.225808 0.522290
vt 0.169245 0.522100
vt 0.169019 0.589097
vt 0.225582 0.589288
vt 0.225759 0.536786
vt 0.169196 0.536595
vt 0.225985 0.469788
vt 0.169422 0.469597
vt 0.228745 0.589299
vt 0.229750 0.533647
vt 0.169008 0.592260
vt 0.225571 0.592451
vt 0.165226 0.533429
vt 0.165856 0.589086
vt 0.160886 0.533414
vt 0.159881 0.589066
vt 0.156895 0.536553
vt 0.156718 0.589056
vt 0.169213 0.531517
vt 0.225776 0.531708
vt 0.234720 0.589319
vt 0.234090 0.533661
vt 0.237883 0.589330
vt 0.238060 0.536827
vt 0.168988 0.598235
vt 0.225551 0.598426
vt 0.168977 0.601398
vt 0.225540 0.601589
vt 0.387035 0.225191
vt 0.387005 0.234398
vt 0.283688 0.234060
vt 0.283718 0.224853
vt 0.386953 0.250146
vt 0.386702 0.327057
vt 0.283385 0.326719
vt 0.283636 0.249808
vt 0.387286 0.148279
vt 0.283970 0.147941
vt 0.284267 0.058512
vt 0.387584 0.058850
vt 0.387551 0.068708
vt 0.284234 0.068370
vt 0.283375 0.328342
vt 0.386692 0.328680
vt 0.386437 0.406628
vt 0.283120 0.406290
vt 0.387296 0.146656
vt 0.283980 0.146318
vt 0.408134 0.220444
vt 0.407823 0.219335
vt 0.416492 0.214692
vt 0.417577 0.215819
vt 0.430642 0.143979
vt 0.430962 0.145085
vt 0.422389 0.149890
vt 0.421276 0.148788
vt 0.389459 0.144526
vt 0.390562 0.144499
vt 0.392189 0.214671
vt 0.391103 0.215793
vt 0.422925 0.220437
vt 0.421817 0.220444
vt 0.418319 0.144376
vt 0.419424 0.144406
vt 0.446754 0.220317
vt 0.445648 0.220306
vt 0.446477 0.149940
vt 0.447593 0.148845
vt 0.438262 0.143998
vt 0.437937 0.145102
vt 0.386983 0.240939
vt 0.283666 0.240600
vt 0.400523 0.220437
vt 0.400836 0.219330
vt 0.284290 0.051372
vt 0.387607 0.051710
vt 0.283087 0.416148
vt 0.386404 0.416487
vt 0.509736 0.304977
vt 0.411379 0.304608
vt 0.411411 0.296330
vt 0.509767 0.296699
vt 0.509398 0.394904
vt 0.411042 0.394535
vt 0.411320 0.320502
vt 0.509676 0.320871
vt 0.411689 0.222297
vt 0.510045 0.222666
vt 0.405492 0.394514
vt 0.404353 0.316030
vt 0.509378 0.400454
vt 0.411021 0.400084
vt 0.516676 0.316452
vt 0.514948 0.394925
vt 0.524292 0.316481
vt 0.525431 0.394965
vt 0.531259 0.320952
vt 0.530981 0.394985
vt 0.509707 0.312593
vt 0.411351 0.312224
vt 0.395009 0.394475
vt 0.396737 0.316002
vt 0.389459 0.394454
vt 0.389737 0.320421
vt 0.509338 0.410937
vt 0.410981 0.410567
vt 0.509317 0.416487
vt 0.410961 0.416117
vt 0.519722 0.778491
vt 0.519705 0.785856
vt 0.452687 0.785696
vt 0.452705 0.778331
vt 0.519675 0.798453
vt 0.519528 0.859975
vt 0.452510 0.859815
vt 0.452657 0.798293
vt 0.519869 0.716969
vt 0.452852 0.716809
vt 0.453020 0.645519
vt 0.520038 0.645679
vt 0.520019 0.653565
vt 0.453001 0.653405
vt 0.452510 0.860868
vt 0.519527 0.861027
vt 0.519379 0.923379
vt 0.452361 0.923219
vt 0.519870 0.715916
vt 0.452852 0.715756
vt 0.684332 0.758755
vt 0.683446 0.759005
vt 0.679718 0.752094
vt 0.680615 0.751225
vt 0.623539 0.738197
vt 0.624428 0.737956
vt 0.628100 0.744906
vt 0.627194 0.745768
vt 0.623560 0.773623
vt 0.623539 0.772741
vt 0.679721 0.771504
vt 0.680619 0.772373
vt 0.684338 0.746578
vt 0.684311 0.747462
vt 0.623583 0.750868
vt 0.623604 0.749986
vt 0.684345 0.723946
vt 0.684356 0.724827
vt 0.628271 0.725500
vt 0.627383 0.724624
vt 0.623598 0.732114
vt 0.624480 0.732372
vt 0.519692 0.791088
vt 0.452675 0.790928
vt 0.684334 0.764839
vt 0.683449 0.764589
vt 0.453034 0.639808
vt 0.520051 0.639968
vt 0.452342 0.931105
vt 0.519360 0.931265
vt 0.603807 0.842142
vt 0.540061 0.841933
vt 0.540082 0.835317
vt 0.603829 0.835526
vt 0.603572 0.914015
vt 0.539825 0.913806
vt 0.540019 0.854636
vt 0.603766 0.854845
vt 0.540276 0.776147
vt 0.604023 0.776356
vt 0.535390 0.913792
vt 0.534449 0.851065
vt 0.603557 0.918451
vt 0.539811 0.918242
vt 0.609358 0.851311
vt 0.608007 0.914030
vt 0.615445 0.851331
vt 0.616385 0.914057
vt 0.621015 0.854902
vt 0.620821 0.914072
vt 0.603787 0.848229
vt 0.540041 0.848020
vt 0.527011 0.913764
vt 0.528363 0.851045
vt 0.522576 0.913750
vt 0.522770 0.854580
vt 0.603530 0.926829
vt 0.539783 0.926620
vt 0.603515 0.931265
vt 0.539769 0.931055
vt 0.192006 0.665322
vt 0.197585 0.665330
vt 0.197671 0.605899
vt 0.192092 0.605891
vt 0.206892 0.665343
vt 0.261450 0.665422
vt 0.261535 0.605991
vt 0.206978 0.605912
vt 0.137449 0.665243
vt 0.137535 0.605812
vt 0.075380 0.605720
vt 0.075294 0.665151
vt 0.081223 0.665159
vt 0.081309 0.605729
vt 0.262469 0.605995
vt 0.262383 0.665426
vt 0.317676 0.665505
vt 0.317761 0.606074
vt 0.136516 0.665239
vt 0.136601 0.605808
vt 0.122197 0.417363
vt 0.122005 0.418221
vt 0.127356 0.421917
vt 0.128049 0.421060
vt 0.077041 0.465941
vt 0.077242 0.465086
vt 0.071914 0.461377
vt 0.071224 0.462231
vt 0.113627 0.465897
vt 0.114314 0.465870
vt 0.112450 0.422129
vt 0.111735 0.421296
vt 0.072016 0.417616
vt 0.071329 0.417616
vt 0.126819 0.465952
vt 0.127511 0.465958
vt 0.087841 0.417683
vt 0.087153 0.417678
vt 0.086936 0.461432
vt 0.087620 0.462291
vt 0.081777 0.465958
vt 0.081581 0.465102
vt 0.201314 0.665335
vt 0.201399 0.605905
vt 0.117455 0.417436
vt 0.117672 0.418287
vt 0.071309 0.605714
vt 0.071224 0.665145
vt 0.323690 0.606083
vt 0.323605 0.665514
vt 0.254618 0.527854
vt 0.311181 0.527663
vt 0.311164 0.522586
vt 0.254601 0.522777
vt 0.254826 0.589775
vt 0.311390 0.589584
vt 0.311213 0.537081
vt 0.254649 0.537272
vt 0.310986 0.470084
vt 0.254423 0.470275
vt 0.314553 0.589573
vt 0.315182 0.533915
vt 0.254837 0.592938
vt 0.311400 0.592746
vt 0.250659 0.534133
vt 0.251663 0.589785
vt 0.246318 0.534148
vt 0.245689 0.589805
vt 0.242349 0.537314
vt 0.242526 0.589816
vt 0.254632 0.532195
vt 0.311195 0.532004
vt 0.320527 0.589553
vt 0.319523 0.533901
vt 0.323690 0.589542
vt 0.323513 0.537040
vt 0.254857 0.598912
vt 0.311421 0.598721
vt 0.254868 0.602075
vt 0.311431 0.601884
vt 0.192006 0.728760
vt 0.197585 0.728768
vt 0.197671 0.669338
vt 0.192092 0.669330
vt 0.206892 0.728782
vt 0.261450 0.728860
vt 0.261535 0.669429
vt 0.206978 0.669351
vt 0.137449 0.728682
vt 0.137535 0.669251
vt 0.075380 0.669159
vt 0.075294 0.728589
vt 0.081223 0.728598
vt 0.081309 0.669167
vt 0.262469 0.669433
vt 0.262383 0.728864
vt 0.317676 0.728944
vt 0.317761 0.669513
vt 0.136516 0.728678
vt 0.136601 0.669247
vt 0.142150 0.417363
vt 0.141958 0.418221
vt 0.147309 0.421916
vt 0.148002 0.421059
vt 0.097297 0.465941
vt 0.097498 0.465086
vt 0.092170 0.461377
vt 0.091480 0.462231
vt 0.133581 0.465897
vt 0.134268 0.465870
vt 0.132403 0.422129
vt 0.131688 0.421296
vt 0.092271 0.417616
vt 0.091584 0.417616
vt 0.146772 0.465952
vt 0.147464 0.465958
vt 0.108096 0.417683
vt 0.107408 0.417678
vt 0.107192 0.461432
vt 0.107876 0.462291
vt 0.102033 0.465958
vt 0.101837 0.465102
vt 0.201314 0.728774
vt 0.201399 0.669343
vt 0.137408 0.417436
vt 0.137625 0.418287
vt 0.071309 0.669153
vt 0.071224 0.728583
vt 0.323690 0.669521
vt 0.323605 0.728952
vt 0.339599 0.519101
vt 0.396162 0.518910
vt 0.396144 0.513833
vt 0.339581 0.514023
vt 0.339807 0.581021
vt 0.396371 0.580830
vt 0.396193 0.528328
vt 0.339630 0.528519
vt 0.395967 0.461330
vt 0.339404 0.461521
vt 0.399534 0.580820
vt 0.400163 0.525162
vt 0.339818 0.584184
vt 0.396381 0.583993
vt 0.335640 0.525380
vt 0.336644 0.581032
vt 0.331299 0.525394
vt 0.330670 0.581052
vt 0.327329 0.528560
vt 0.327507 0.581063
vt 0.339613 0.523441
vt 0.396176 0.523251
vt 0.405508 0.580799
vt 0.404503 0.525147
vt 0.408671 0.580789
vt 0.408494 0.528286
vt 0.339838 0.590159
vt 0.396401 0.589968
vt 0.339849 0.593322
vt 0.396412 0.593131
vt 0.187024 0.889301
vt 0.193115 0.889294
vt 0.193209 0.963397
vt 0.187118 0.963404
vt 0.202969 0.889281
vt 0.270995 0.889195
vt 0.271089 0.963298
vt 0.203063 0.963384
vt 0.118998 0.889388
vt 0.119091 0.963490
vt 0.042565 0.963583
vt 0.042471 0.889480
vt 0.048891 0.889472
vt 0.048984 0.963575
vt 0.272253 0.963292
vt 0.272159 0.889189
vt 0.341102 0.889101
vt 0.341196 0.963205
vt 0.117834 0.889385
vt 0.117927 0.963487
vt 0.213254 0.887664
vt 0.213019 0.886514
vt 0.218803 0.881495
vt 0.219556 0.882643
vt 0.205725 0.778751
vt 0.205944 0.779906
vt 0.200110 0.784886
vt 0.199362 0.783731
vt 0.199035 0.834111
vt 0.199785 0.834069
vt 0.202264 0.881830
vt 0.201558 0.883014
vt 0.199784 0.832564
vt 0.199035 0.832556
vt 0.219223 0.834020
vt 0.219969 0.834030
vt 0.218139 0.832688
vt 0.217386 0.832703
vt 0.216583 0.784820
vt 0.217322 0.783654
vt 0.210900 0.778726
vt 0.210691 0.779884
vt 0.196878 0.889289
vt 0.196972 0.963392
vt 0.208090 0.887776
vt 0.208275 0.886615
vt 0.038457 0.963588
vt 0.038364 0.889485
vt 0.347616 0.963196
vt 0.347522 0.889093
vt 0.114180 0.875069
vt 0.113912 0.804508
vt 0.119535 0.804487
vt 0.119802 0.875048
vt 0.038679 0.875356
vt 0.038411 0.804795
vt 0.103906 0.804546
vt 0.104174 0.875107
vt 0.185030 0.804238
vt 0.185298 0.874799
vt 0.038399 0.801601
vt 0.107824 0.800513
vt 0.197718 0.874752
vt 0.194524 0.874765
vt 0.194256 0.804203
vt 0.197450 0.804191
vt 0.108122 0.879111
vt 0.038691 0.878550
vt 0.108139 0.883494
vt 0.038714 0.884582
vt 0.104222 0.887527
vt 0.038726 0.887776
vt 0.109797 0.875086
vt 0.109529 0.804525
vt 0.038376 0.795569
vt 0.107807 0.796130
vt 0.038364 0.792375
vt 0.103859 0.792126
vt 0.188491 0.874787
vt 0.188223 0.804226
vt 0.752180 0.345486
vt 0.761894 0.345497
vt 0.762006 0.243279
vt 0.752291 0.243268
vt 0.778141 0.345515
vt 0.871976 0.345617
vt 0.872088 0.243399
vt 0.778252 0.243297
vt 0.658344 0.345384
vt 0.658456 0.243166
vt 0.551417 0.243054
vt 0.551306 0.345271
vt 0.561638 0.345283
vt 0.561749 0.243065
vt 0.873694 0.243397
vt 0.873582 0.345615
vt 0.968683 0.345718
vt 0.968794 0.243500
vt 0.656738 0.345387
vt 0.656850 0.243169
vt 0.566034 0.152558
vt 0.565668 0.154012
vt 0.574881 0.160385
vt 0.576081 0.158935
vt 0.593189 0.235963
vt 0.593559 0.234509
vt 0.584425 0.228013
vt 0.583196 0.229444
vt 0.544177 0.235926
vt 0.545372 0.235980
vt 0.548626 0.159882
vt 0.547481 0.158378
vt 0.586692 0.152007
vt 0.585498 0.151975
vt 0.575032 0.236070
vt 0.576221 0.236065
vt 0.611413 0.151853
vt 0.610212 0.151854
vt 0.610428 0.228330
vt 0.611624 0.229799
vt 0.601432 0.236070
vt 0.601099 0.234604
vt 0.768426 0.345504
vt 0.768537 0.243286
vt 0.557810 0.152394
vt 0.558118 0.153864
vt 0.544288 0.243046
vt 0.544177 0.345263
vt 0.979126 0.243512
vt 0.979015 0.345730
vt 0.083708 0.527491
vt 0.140271 0.527234
vt 0.140247 0.522100
vt 0.083684 0.522356
vt 0.083989 0.589548
vt 0.140552 0.589292
vt 0.140314 0.536790
vt 0.083751 0.537046
vt 0.140009 0.469597
vt 0.083447 0.469854
vt 0.143773 0.589277
vt 0.144353 0.533619
vt 0.084003 0.592769
vt 0.140566 0.592513
vt 0.079683 0.533912
vt 0.080768 0.589563
vt 0.075263 0.533932
vt 0.074683 0.589590
vt 0.071224 0.537103
vt 0.071462 0.589605
vt 0.083728 0.531911
vt 0.140291 0.531655
vt 0.149858 0.589250
vt 0.148773 0.533599
vt 0.153079 0.589235
vt 0.152841 0.536733
vt 0.084031 0.598854
vt 0.140594 0.598598
vt 0.084046 0.602075
vt 0.140608 0.601819
vt 0.930839 0.734048
vt 0.930824 0.740464
vt 0.872440 0.740325
vt 0.872455 0.733908
vt 0.930797 0.751438
vt 0.930670 0.805034
vt 0.872286 0.804895
vt 0.872414 0.751299
vt 0.930967 0.680451
vt 0.872583 0.680312
vt 0.872729 0.618207
vt 0.931113 0.618346
vt 0.931097 0.625216
vt 0.872713 0.625077
vt 0.872285 0.805812
vt 0.930669 0.805951
vt 0.930539 0.860270
vt 0.872155 0.860130
vt 0.930968 0.679534
vt 0.872584 0.679395
vt 0.988762 0.854643
vt 0.987990 0.854860
vt 0.984740 0.848838
vt 0.985522 0.848080
vt 0.935778 0.835532
vt 0.936548 0.835309
vt 0.939851 0.841294
vt 0.939078 0.842059
vt 0.935762 0.867140
vt 0.935751 0.866371
vt 0.984693 0.865724
vt 0.985470 0.866487
vt 0.988748 0.841720
vt 0.988740 0.842488
vt 0.935784 0.847883
vt 0.935799 0.847114
vt 0.988769 0.822653
vt 0.988785 0.823423
vt 0.939767 0.824415
vt 0.938984 0.823657
vt 0.935751 0.830230
vt 0.936524 0.830446
vt 0.930813 0.745022
vt 0.872429 0.744882
vt 0.988748 0.859944
vt 0.987977 0.859723
vt 0.872741 0.613231
vt 0.931125 0.613370
vt 0.872139 0.867000
vt 0.930523 0.867140
vt 0.640747 0.842142
vt 0.704494 0.841933
vt 0.704472 0.835317
vt 0.640725 0.835526
vt 0.640983 0.914015
vt 0.704729 0.913806
vt 0.704535 0.854636
vt 0.640789 0.854845
vt 0.704278 0.776147
vt 0.640532 0.776356
vt 0.709165 0.913792
vt 0.710105 0.851065
vt 0.640997 0.918451
vt 0.704744 0.918242
vt 0.635196 0.851311
vt 0.636547 0.914030
vt 0.629109 0.851331
vt 0.628169 0.914057
vt 0.623539 0.854902
vt 0.623733 0.914072
vt 0.640767 0.848229
vt 0.704514 0.848020
vt 0.717543 0.913764
vt 0.716192 0.851045
vt 0.721979 0.913750
vt 0.721785 0.854580
vt 0.641025 0.926829
vt 0.704771 0.926620
vt 0.641039 0.931265
vt 0.704786 0.931055
vt 0.851591 0.784013
vt 0.851570 0.792568
vt 0.773721 0.792383
vt 0.773741 0.783827
vt 0.851535 0.807201
vt 0.851365 0.878667
vt 0.773515 0.878481
vt 0.773686 0.807016
vt 0.851761 0.712547
vt 0.773912 0.712361
vt 0.774107 0.629549
vt 0.851957 0.629734
vt 0.851935 0.638894
vt 0.774085 0.638709
vt 0.773514 0.879704
vt 0.851364 0.879890
vt 0.851191 0.952319
vt 0.773341 0.952133
vt 0.851762 0.711324
vt 0.773912 0.711138
vt 0.928826 0.944817
vt 0.927797 0.945106
vt 0.923464 0.937076
vt 0.924505 0.936065
vt 0.858177 0.919333
vt 0.859203 0.919035
vt 0.863607 0.927017
vt 0.862577 0.928037
vt 0.858156 0.961480
vt 0.858141 0.960454
vt 0.923401 0.959592
vt 0.924436 0.960609
vt 0.928807 0.927585
vt 0.928797 0.928609
vt 0.858184 0.935803
vt 0.858205 0.934778
vt 0.928835 0.902161
vt 0.928857 0.903187
vt 0.863496 0.904510
vt 0.862452 0.903499
vt 0.858141 0.912264
vt 0.859171 0.912551
vt 0.851556 0.798646
vt 0.773706 0.798460
vt 0.928807 0.951885
vt 0.927780 0.951590
vt 0.774123 0.622915
vt 0.851973 0.623100
vt 0.773319 0.961294
vt 0.851169 0.961480
vt 0.539784 0.684501
vt 0.603530 0.684292
vt 0.603508 0.677676
vt 0.539762 0.677885
vt 0.540019 0.756374
vt 0.603766 0.756165
vt 0.603572 0.696995
vt 0.539825 0.697204
vt 0.603315 0.618506
vt 0.539568 0.618715
vt 0.608201 0.756150
vt 0.609141 0.693424
vt 0.540034 0.760809
vt 0.603780 0.760600
vt 0.534232 0.693669
vt 0.535584 0.756388
vt 0.528145 0.693689
vt 0.527205 0.756416
vt 0.522576 0.697260
vt 0.522770 0.756431
vt 0.539804 0.690588
vt 0.603550 0.690379
vt 0.616579 0.756123
vt 0.615228 0.693404
vt 0.621015 0.756108
vt 0.620821 0.696938
vt 0.540061 0.769188
vt 0.603808 0.768979
vt 0.540076 0.773623
vt 0.603822 0.773414
vn -0.1518 -0.5690 0.8082
vn -0.1763 -0.2981 0.9381
vn 0.0000 1.0000 -0.0000
vn -0.0000 -1.0000 0.0000
vn 0.1773 0.2788 -0.9438
vn 0.1560 0.5354 -0.8301
vn -0.9828 -0.0000 -0.1847
vn 0.9828 0.0000 0.1847
vn 0.9828 0.0000 0.1846
vn -0.1847 0.0000 0.9828
vn -0.1763 0.2981 0.9381
vn -0.1518 0.5690 0.8082
vn 0.1773 -0.2788 -0.9438
vn 0.1560 -0.5354 -0.8301
vn 0.1744 0.3287 -0.9282
vn 0.1447 0.6209 -0.7704
vn 0.1744 -0.3287 -0.9282
vn 0.1447 -0.6209 -0.7704
vn 0.0000 -0.5690 -0.8223
vn 0.0000 -0.2981 -0.9545
vn 0.0000 0.2788 0.9604
vn 0.0000 0.5354 0.8446
vn 1.0000 0.0000 0.0000
vn -1.0000 -0.0000 0.0000
vn 0.0000 0.0000 -1.0000
vn 0.0000 0.2981 -0.9545
vn 0.0000 0.5690 -0.8223
vn 0.0000 -0.2788 0.9604
vn 0.0000 -0.5354 0.8446
vn 0.0000 0.3287 0.9444
vn 0.0000 0.6209 0.7839
vn 0.0000 -0.3287 0.9444
vn 0.0000 -0.6209 0.7839
vn -0.6632 -0.5690 -0.4861
vn -0.7699 -0.2981 -0.5643
vn 0.7746 0.2788 0.5677
vn 0.6812 0.5354 0.4993
vn 0.5912 -0.0000 -0.8065
vn -0.5912 -0.0000 0.8065
vn -0.8065 0.0000 -0.5912
vn -0.5912 0.0000 0.8066
vn -0.7699 0.2981 -0.5643
vn -0.6632 0.5690 -0.4861
vn 0.7746 -0.2788 0.5678
vn 0.6812 -0.5354 0.4993
vn 0.7617 0.3287 0.5583
vn 0.6322 0.6209 0.4634
vn 0.7617 -0.3287 0.5583
vn 0.6322 -0.6209 0.4634
vn 0.4667 -0.1357 -0.8739
vn 0.2411 -0.0701 -0.9680
vn -0.9602 0.2792 0.0000
vn 0.9602 -0.2792 -0.0000
vn -0.2241 0.0652 0.9724
vn -0.4359 0.1267 0.8910
vn 0.2792 0.9602 -0.0000
vn -0.2792 -0.9602 -0.0000
vn -0.2411 0.0701 -0.9680
vn -0.4667 0.1357 -0.8739
vn 0.2241 -0.0652 0.9724
vn 0.4359 -0.1267 0.8910
vn -0.2685 0.0781 0.9601
vn -0.5156 0.1499 0.8436
vn 0.2685 -0.0781 0.9601
vn 0.5156 -0.1499 0.8436
vn 0.4859 -0.0103 -0.8739
vn 0.2510 -0.0053 -0.9680
vn -0.9998 0.0211 0.0000
vn 0.9998 -0.0211 -0.0000
vn -0.2334 0.0049 0.9724
vn -0.4539 0.0096 0.8910
vn 0.0211 0.9998 0.0000
vn -0.0212 -0.9998 -0.0000
vn -0.2510 0.0053 -0.9680
vn -0.4859 0.0103 -0.8739
vn 0.2334 -0.0049 0.9724
vn 0.4539 -0.0096 0.8910
vn -0.2796 0.0059 0.9601
vn -0.5369 0.0114 0.8436
vn 0.0212 0.9998 0.0000
vn -0.0211 -0.9998 0.0000
vn 0.2796 -0.0059 0.9601
vn 0.5369 -0.0114 0.8436
vn 0.5690 0.0000 -0.8223
vn 0.2981 0.0000 -0.9545
vn -0.2788 -0.0000 0.9604
vn -0.5354 -0.0000 0.8446
vn -0.2981 0.0000 -0.9545
vn -0.5690 0.0000 -0.8223
vn 0.2788 -0.0000 0.9604
vn 0.5354 -0.0000 0.8446
vn -0.3287 -0.0000 0.9444
vn -0.6209 -0.0000 0.7839
vn 0.3287 -0.0000 0.9444
vn 0.6209 -0.0000 0.7839
vn 0.5106 0.4020 -0.7601
vn -0.7857 -0.6186 0.0000
vn 0.7857 0.6186 0.0000
vn -0.2562 -0.2018 0.9453
vn -0.4845 -0.3814 0.7873
vn -0.6186 0.7857 -0.0000
vn 0.6186 -0.7857 -0.0000
vn -0.5106 -0.4020 -0.7601
vn 0.2562 0.2018 0.9453
vn 0.4845 0.3814 0.7873
vn -0.5495 -0.4327 0.7147
vn 0.5495 0.4327 0.7147
vn 0.0000 -0.0000 1.0000
vn 0.5297 0.1878 -0.8271
vn 0.2771 0.0982 -0.9558
vn -0.9425 -0.3341 0.0000
vn 0.9425 0.3341 0.0000
vn -0.2590 -0.0918 0.9615
vn -0.4981 -0.1766 0.8490
vn -0.3341 0.9425 -0.0000
vn 0.3341 -0.9425 -0.0000
vn -0.2771 -0.0982 -0.9558
vn -0.5297 -0.1878 -0.8271
vn 0.2590 0.0918 0.9615
vn 0.4981 0.1766 0.8490
vn -0.3059 -0.1084 0.9459
vn -0.5786 -0.2051 0.7894
vn 0.3059 0.1084 0.9459
vn 0.5786 0.2051 0.7894
vn 0.4860 0.0000 -0.8739
vn 0.2511 0.0000 -0.9680
vn -0.2334 -0.0000 0.9724
vn -0.4540 -0.0000 0.8910
vn -0.2511 0.0000 -0.9680
vn -0.4860 0.0000 -0.8739
vn 0.2334 -0.0000 0.9724
vn 0.4540 -0.0000 0.8910
vn -0.2797 -0.0000 0.9601
vn -0.5370 -0.0000 0.8436
vn 0.2797 -0.0000 0.9601
vn 0.5370 -0.0000 0.8436
usemtl Material.002
s 1
f 316/609/169 335/610/170 333/611/170 315/612/169
f 318/613/171 320/614/171 319/615/171 317/616/171
f 322/617/172 316/609/172 315/612/172 321/618/172
f 331/619/173 337/620/173 324/621/174 323/622/174
f 327/623/172 328/624/172 326/625/172 325/626/172
f 323/622/171 324/621/171 330/627/171 329/628/171
f 337/629/175 335/630/175 316/631/175 324/632/175
f 332/633/176 334/634/176 317/635/177 325/636/176
f 328/637/175 320/638/175 318/639/175 326/640/175
f 327/623/178 319/615/178 320/614/178 328/624/178
f 325/636/176 317/635/177 319/641/177 327/642/177
f 330/643/178 322/617/178 321/618/178 329/644/178
f 324/632/175 316/631/175 322/645/175 330/646/175
f 329/647/176 321/648/176 315/649/176 323/650/176
f 331/651/176 323/650/176 315/649/176 333/652/176
f 332/633/176 331/651/176 333/652/176 334/634/176
f 335/610/170 336/653/179 334/654/179 333/611/170
f 336/653/179 318/613/180 317/616/180 334/654/179
f 337/629/175 338/655/175 336/656/175 335/630/175
f 338/655/175 326/640/175 318/639/175 336/656/175
f 331/619/173 332/657/181 338/658/181 337/620/173
f 332/657/181 325/626/182 326/625/182 338/658/181
f 350/659/183 352/660/183 340/661/184 339/662/184
f 343/663/172 344/664/172 342/665/172 341/666/172
f 339/662/171 340/661/171 346/667/171 345/668/171
f 344/664/175 353/669/175 351/670/175 342/665/175
f 343/663/178 347/671/178 353/672/178 344/664/178
f 341/666/176 349/673/176 347/674/176 343/663/176
f 349/673/176 350/675/176 348/676/176 347/674/176
f 350/675/176 339/677/176 345/678/176 348/676/176
f 349/679/185 341/666/186 342/665/186 351/680/185
f 350/659/183 349/679/185 351/680/185 352/660/183
f 353/669/175 354/681/175 352/682/175 351/670/175
f 354/681/175 346/683/175 340/684/175 352/682/175
f 347/671/178 348/685/178 354/686/178 353/672/178
f 348/685/178 345/687/178 346/688/178 354/686/178
f 356/689/187 375/690/188 373/691/188 355/692/187
f 358/693/171 360/694/171 359/695/171 357/696/171
f 362/697/172 356/689/172 355/692/172 361/698/172
f 371/699/189 377/700/189 364/701/190 363/702/190
f 367/703/172 368/704/172 366/705/172 365/706/172
f 363/702/171 364/701/171 370/707/171 369/708/171
f 377/709/191 375/710/191 356/711/191 364/712/191
f 372/713/192 374/714/192 357/715/192 365/716/192
f 368/717/191 360/718/191 358/719/191 366/720/191
f 367/703/193 359/695/193 360/694/193 368/704/193
f 365/716/192 357/715/192 359/721/192 367/722/192
f 370/707/193 362/697/193 361/698/193 369/708/193
f 364/712/191 356/711/191 362/723/191 370/724/191
f 369/725/192 361/726/192 355/727/192 363/728/192
f 371/729/192 363/728/192 355/727/192 373/730/192
f 372/713/192 371/729/192 373/730/192 374/714/192
f 375/690/188 376/731/194 374/732/194 373/691/188
f 376/731/194 358/693/195 357/696/195 374/732/194
f 377/709/191 378/733/191 376/734/191 375/710/191
f 378/733/191 366/720/191 358/719/191 376/734/191
f 371/699/189 372/735/196 378/736/196 377/700/189
f 372/737/196 365/706/197 366/705/197 378/738/196
f 390/739/198 392/740/198 380/741/199 379/742/199
f 383/743/172 384/744/172 382/745/172 381/746/172
f 379/742/171 380/741/171 386/747/171 385/748/171
f 384/744/191 393/749/191 391/750/191 382/745/191
f 383/743/193 387/751/193 393/752/193 384/744/193
f 381/746/192 389/753/192 387/754/192 383/743/192
f 389/753/192 390/755/192 388/756/192 387/754/192
f 390/755/192 379/757/192 385/758/192 388/756/192
f 389/759/200 381/746/201 382/745/201 391/760/200
f 390/739/198 389/759/200 391/760/200 392/740/198
f 393/749/191 394/761/191 392/762/191 391/750/191
f 394/761/191 386/763/191 380/764/191 392/762/191
f 387/751/193 388/765/193 394/766/193 393/752/193
f 388/765/193 385/767/193 386/768/193 394/766/193
f 396/769/202 415/770/203 413/771/203 395/772/202
f 398/773/171 400/774/171 399/775/171 397/776/171
f 402/777/172 396/769/172 395/772/172 401/778/172
f 411/779/204 417/780/204 404/781/205 403/782/205
f 407/783/172 408/784/172 406/785/172 405/786/172
f 403/782/171 404/781/171 410/787/171 409/788/171
f 417/789/206 415/790/206 396/791/206 404/792/206
f 412/793/207 414/794/207 397/795/207 405/796/207
f 408/797/206 400/798/206 398/799/206 406/800/206
f 407/783/208 399/775/208 400/774/208 408/784/208
f 405/796/207 397/795/207 399/801/209 407/802/209
f 410/787/208 402/777/208 401/778/208 409/788/208
f 404/792/206 396/791/206 402/803/206 410/804/206
f 409/805/207 401/806/207 395/807/207 403/808/207
f 411/809/207 403/808/207 395/807/207 413/810/207
f 412/793/207 411/809/207 413/810/207 414/794/207
f 415/770/203 416/811/210 414/812/210 413/771/203
f 416/811/210 398/773/211 397/776/211 414/812/210
f 417/813/206 418/814/206 416/815/206 415/816/206
f 418/817/206 406/800/206 398/799/206 416/818/206
f 411/779/204 412/819/212 418/820/212 417/780/204
f 412/821/212 405/786/213 406/785/213 418/822/212
f 430/823/214 432/824/214 420/825/215 419/826/215
f 423/827/172 424/828/172 422/829/172 421/830/172
f 419/826/171 420/825/171 426/831/171 425/832/171
f 424/828/206 433/833/206 431/834/206 422/829/206
f 423/827/208 427/835/208 433/836/208 424/828/208
f 421/830/207 429/837/207 427/838/207 423/827/207
f 429/837/207 430/839/207 428/840/207 427/838/207
f 430/839/207 419/841/207 425/842/207 428/840/207
f 429/843/216 421/830/217 422/829/217 431/844/216
f 430/823/214 429/843/216 431/844/216 432/824/214
f 433/833/206 434/845/206 432/846/206 431/834/206
f 434/845/206 426/847/206 420/848/206 432/846/206
f 427/835/208 428/849/208 434/850/208 433/836/208
f 428/849/208 425/851/208 426/852/208 434/850/208
f 436/853/218 455/854/219 453/855/219 435/856/218
f 438/857/220 440/858/220 439/859/220 437/860/220
f 442/861/221 436/853/221 435/856/221 441/862/221
f 451/863/222 457/864/222 444/865/223 443/866/223
f 447/867/221 448/868/221 446/869/221 445/870/221
f 443/866/220 444/865/220 450/871/220 449/872/220
f 457/873/224 455/874/224 436/875/224 444/876/224
f 452/877/225 454/878/225 437/879/225 445/880/225
f 448/881/224 440/882/224 438/883/224 446/884/224
f 447/867/193 439/859/193 440/858/193 448/868/193
f 445/880/225 437/879/225 439/885/225 447/886/225
f 450/871/193 442/861/193 441/862/193 449/872/193
f 444/876/224 436/875/224 442/887/224 450/888/224
f 449/889/225 441/890/225 435/891/225 443/892/225
f 451/893/225 443/892/225 435/891/225 453/894/225
f 452/877/225 451/893/225 453/894/225 454/878/225
f 455/854/219 456/895/226 454/896/226 453/855/219
f 456/895/226 438/857/227 437/860/227 454/896/226
f 457/873/224 458/897/224 456/898/224 455/874/224
f 458/897/224 446/884/224 438/883/224 456/898/224
f 451/863/222 452/899/228 458/900/228 457/864/222
f 452/901/228 445/870/229 446/869/229 458/902/228
f 470/903/230 472/904/230 460/905/231 459/906/231
f 463/907/221 464/908/221 462/909/221 461/910/221
f 459/906/220 460/905/220 466/911/220 465/912/220
f 464/908/224 473/913/224 471/914/224 462/909/224
f 463/907/193 467/915/193 473/916/193 464/908/193
f 461/910/225 469/917/225 467/918/225 463/907/225
f 469/917/225 470/919/225 468/920/225 467/918/225
f 470/919/225 459/921/225 465/922/225 468/920/225
f 469/923/232 461/910/233 462/909/233 471/924/232
f 470/903/230 469/923/232 471/924/232 472/904/230
f 473/913/224 474/925/224 472/926/224 471/914/224
f 474/925/224 466/927/224 460/928/224 472/926/224
f 467/915/193 468/929/193 474/930/193 473/916/193
f 468/929/193 465/931/193 466/932/193 474/930/193
f 476/933/234 495/934/235 493/935/235 475/936/234
f 478/937/236 480/938/236 479/939/236 477/940/236
f 482/941/237 476/933/237 475/936/237 481/942/237
f 491/943/238 497/944/238 484/945/239 483/946/239
f 487/947/237 488/948/237 486/949/237 485/950/237
f 483/946/236 484/945/236 490/951/236 489/952/236
f 497/953/240 495/954/240 476/955/240 484/956/240
f 492/957/241 494/958/241 477/959/241 485/960/241
f 488/961/240 480/962/240 478/963/240 486/964/240
f 487/947/193 479/939/193 480/938/193 488/948/193
f 485/960/241 477/959/241 479/965/241 487/966/241
f 490/951/193 482/941/193 481/942/193 489/952/193
f 484/956/240 476/955/240 482/967/240 490/968/240
f 489/969/241 481/970/241 475/971/241 483/972/241
f 491/973/241 483/972/241 475/971/241 493/974/241
f 492/957/241 491/973/241 493/974/241 494/958/241
f 495/934/235 496/975/242 494/976/242 493/935/235
f 496/975/242 478/937/243 477/940/243 494/976/242
f 497/953/240 498/977/240 496/978/240 495/954/240
f 498/977/240 486/964/240 478/963/240 496/978/240
f 491/943/238 492/979/244 498/980/244 497/944/238
f 492/981/244 485/950/245 486/949/245 498/982/244
f 510/983/246 512/984/246 500/985/247 499/986/247
f 503/987/237 504/988/237 502/989/237 501/990/237
f 499/986/236 500/985/236 506/991/236 505/992/236
f 504/988/248 513/993/248 511/994/248 502/989/248
f 503/987/193 507/995/193 513/996/193 504/988/193
f 501/990/241 509/997/241 507/998/241 503/987/241
f 509/997/241 510/999/249 508/1000/249 507/998/241
f 510/999/249 499/1001/249 505/1002/249 508/1000/249
f 509/1003/250 501/990/251 502/989/251 511/1004/250
f 510/983/246 509/1003/250 511/1004/250 512/984/246
f 513/993/248 514/1005/248 512/1006/248 511/994/248
f 514/1005/248 506/1007/248 500/1008/248 512/1006/248
f 507/995/193 508/1009/193 514/1010/193 513/996/193
f 508/1009/193 505/1011/193 506/1012/193 514/1010/193
f 516/1013/252 535/1014/253 533/1015/253 515/1016/252
f 518/1017/192 520/1018/192 519/1019/192 517/1020/192
f 522/1021/191 516/1013/191 515/1016/191 521/1022/191
f 531/1023/254 537/1024/254 524/1025/255 523/1026/255
f 527/1027/191 528/1028/191 526/1029/191 525/1030/191
f 523/1026/192 524/1025/192 530/1031/192 529/1032/192
f 537/1033/171 535/1034/171 516/1035/171 524/1036/171
f 532/1037/172 534/1038/172 517/1039/172 525/1040/172
f 528/1041/171 520/1042/171 518/1043/171 526/1044/171
f 527/1027/193 519/1019/193 520/1018/193 528/1028/193
f 525/1040/172 517/1039/172 519/1045/172 527/1046/172
f 530/1031/193 522/1021/193 521/1022/193 529/1032/193
f 524/1036/171 516/1035/171 522/1047/171 530/1048/171
f 529/1049/172 521/1050/172 515/1051/172 523/1052/172
f 531/1053/172 523/1052/172 515/1051/172 533/1054/172
f 532/1037/172 531/1053/172 533/1054/172 534/1038/172
f 535/1014/253 536/1055/256 534/1056/256 533/1015/253
f 536/1055/256 518/1017/257 517/1020/257 534/1056/256
f 537/1033/171 538/1057/171 536/1058/171 535/1034/171
f 538/1057/171 526/1044/171 518/1043/171 536/1058/171
f 531/1023/254 532/1059/258 538/1060/258 537/1024/254
f 532/1061/258 525/1030/259 526/1029/259 538/1062/258
f 550/1063/260 552/1064/260 540/1065/261 539/1066/261
f 543/1067/191 544/1068/191 542/1069/191 541/1070/191
f 539/1066/192 540/1065/192 546/1071/192 545/1072/192
f 544/1068/171 553/1073/171 551/1074/171 542/1069/171
f 543/1067/193 547/1075/193 553/1076/193 544/1068/193
f 541/1070/172 549/1077/172 547/1078/172 543/1067/172
f 549/1077/172 550/1079/172 548/1080/172 547/1078/172
f 550/1079/172 539/1081/172 545/1082/172 548/1080/172
f 549/1083/262 541/1070/263 542/1069/263 551/1084/262
f 550/1063/260 549/1083/262 551/1084/262 552/1064/260
f 553/1073/171 554/1085/171 552/1086/171 551/1074/171
f 554/1085/171 546/1087/171 540/1088/171 552/1086/171
f 547/1075/193 548/1089/193 554/1090/193 553/1076/193
f 548/1089/193 545/1091/193 546/1092/193 554/1090/193
f 556/1093/252 575/1094/253 573/1095/253 555/1096/252
f 558/1097/192 560/1098/192 559/1099/192 557/1100/192
f 562/1101/191 556/1093/191 555/1096/191 561/1102/191
f 571/1103/254 577/1104/254 564/1105/255 563/1106/255
f 567/1107/191 568/1108/191 566/1109/191 565/1110/191
f 563/1106/192 564/1105/192 570/1111/192 569/1112/192
f 577/1113/171 575/1114/171 556/1115/171 564/1116/171
f 572/1117/172 574/1118/172 557/1119/172 565/1120/172
f 568/1121/171 560/1122/171 558/1123/171 566/1124/171
f 567/1107/193 559/1099/193 560/1098/193 568/1108/193
f 565/1120/172 557/1119/172 559/1125/172 567/1126/172
f 570/1111/193 562/1101/193 561/1102/193 569/1112/193
f 564/1116/171 556/1115/171 562/1127/171 570/1128/171
f 569/1129/172 561/1130/172 555/1131/172 563/1132/172
f 571/1133/172 563/1132/172 555/1131/172 573/1134/172
f 572/1117/172 571/1133/172 573/1134/172 574/1118/172
f 575/1094/253 576/1135/256 574/1136/256 573/1095/253
f 576/1135/256 558/1097/257 557/1100/257 574/1136/256
f 577/1113/171 578/1137/171 576/1138/171 575/1114/171
f 578/1137/171 566/1124/171 558/1123/171 576/1138/171
f 571/1103/254 572/1139/258 578/1140/258 577/1104/254
f 572/1141/258 565/1110/259 566/1109/259 578/1142/258
f 590/1143/260 592/1144/260 580/1145/261 579/1146/261
f 583/1147/191 584/1148/191 582/1149/191 581/1150/191
f 579/1146/192 580/1145/192 586/1151/192 585/1152/192
f 584/1148/171 593/1153/171 591/1154/171 582/1149/171
f 583/1147/193 587/1155/193 593/1156/193 584/1148/193
f 581/1150/172 589/1157/172 587/1158/172 583/1147/172
f 589/1157/172 590/1159/172 588/1160/172 587/1158/172
f 590/1159/172 579/1161/172 585/1162/172 588/1160/172
f 589/1163/262 581/1150/263 582/1149/263 591/1164/262
f 590/1143/260 589/1163/262 591/1164/262 592/1144/260
f 593/1153/171 594/1165/171 592/1166/171 591/1154/171
f 594/1165/171 586/1167/171 580/1168/171 592/1166/171
f 587/1155/193 588/1169/193 594/1170/193 593/1156/193
f 588/1169/193 585/1171/193 586/1172/193 594/1170/193
f 596/1173/264 615/1174/264 613/1175/264 595/1176/264
f 598/1177/265 600/1178/265 599/1179/265 597/1180/265
f 602/1181/266 596/1173/266 595/1176/266 601/1182/266
f 611/1183/267 617/1184/267 604/1185/268 603/1186/268
f 607/1187/266 608/1188/266 606/1189/266 605/1190/266
f 603/1186/265 604/1185/265 610/1191/265 609/1192/265
f 617/1193/269 615/1194/269 596/1195/269 604/1196/269
f 612/1197/270 614/1198/270 597/1199/270 605/1200/270
f 608/1201/269 600/1202/269 598/1203/269 606/1204/269
f 607/1187/193 599/1179/193 600/1178/193 608/1188/193
f 605/1200/270 597/1199/270 599/1205/270 607/1206/270
f 610/1191/193 602/1181/193 601/1182/193 609/1192/193
f 604/1196/269 596/1195/269 602/1207/269 610/1208/269
f 609/1209/270 601/1210/270 595/1211/270 603/1212/270
f 611/1213/270 603/1212/270 595/1211/270 613/1214/270
f 612/1197/270 611/1213/270 613/1214/270 614/1198/270
f 615/1174/193 616/1215/193 614/1216/193 613/1175/193
f 616/1215/271 598/1177/271 597/1180/271 614/1216/271
f 617/1193/269 618/1217/269 616/1218/269 615/1194/269
f 618/1217/269 606/1204/269 598/1203/269 616/1218/269
f 611/1183/267 612/1219/272 618/1220/272 617/1184/267
f 612/1221/272 605/1190/273 606/1189/273 618/1222/272
f 630/1223/274 632/1224/274 620/1225/274 619/1226/274
f 623/1227/266 624/1228/266 622/1229/266 621/1230/266
f 619/1226/265 620/1225/265 626/1231/265 625/1232/265
f 624/1228/269 633/1233/269 631/1234/269 622/1229/269
f 623/1235/193 627/1236/193 633/1237/193 624/1238/193
f 621/1230/270 629/1239/270 627/1240/270 623/1227/270
f 629/1239/270 630/1241/270 628/1242/270 627/1240/270
f 630/1241/270 619/1243/270 625/1244/270 628/1242/270
f 629/1245/275 621/1230/275 622/1229/275 631/1246/275
f 630/1223/276 629/1245/276 631/1246/276 632/1224/276
f 633/1233/269 634/1247/269 632/1248/269 631/1234/269
f 634/1247/269 626/1249/269 620/1250/269 632/1248/269
f 627/1236/193 628/1251/193 634/1252/193 633/1237/193
f 628/1251/193 625/1232/193 626/1231/193 634/1252/193
f 636/1253/277 655/1254/278 653/1255/278 635/1256/277
f 638/1257/279 640/1258/279 639/1259/279 637/1260/279
f 642/1261/280 636/1253/280 635/1256/280 641/1262/280
f 651/1263/281 657/1264/281 644/1265/282 643/1266/282
f 647/1267/280 648/1268/280 646/1269/280 645/1270/280
f 643/1266/279 644/1265/279 650/1271/279 649/1272/279
f 657/1273/283 655/1274/283 636/1275/283 644/1276/283
f 652/1277/284 654/1278/284 637/1279/284 645/1280/284
f 648/1281/283 640/1282/283 638/1283/283 646/1284/283
f 647/1267/193 639/1259/193 640/1258/193 648/1268/193
f 645/1280/284 637/1279/284 639/1285/284 647/1286/284
f 650/1271/193 642/1261/193 641/1262/193 649/1272/193
f 644/1276/283 636/1275/283 642/1287/283 650/1288/283
f 649/1289/284 641/1290/284 635/1291/284 643/1292/284
f 651/1293/284 643/1292/284 635/1291/284 653/1294/284
f 652/1277/284 651/1293/284 653/1294/284 654/1278/284
f 655/1254/278 656/1295/285 654/1296/285 653/1255/278
f 656/1295/285 638/1257/286 637/1260/286 654/1296/285
f 657/1273/283 658/1297/283 656/1298/283 655/1274/283
f 658/1297/283 646/1284/283 638/1283/283 656/1298/283
f 651/1263/281 652/1299/287 658/1300/287 657/1264/281
f 652/1301/287 645/1270/288 646/1269/288 658/1302/287
f 670/1303/289 672/1304/289 660/1305/290 659/1306/290
f 663/1307/280 664/1308/280 662/1309/280 661/1310/280
f 659/1306/279 660/1305/279 666/1311/279 665/1312/279
f 664/1308/283 673/1313/283 671/1314/283 662/1309/283
f 663/1307/193 667/1315/193 673/1316/193 664/1308/193
f 661/1310/284 669/1317/284 667/1318/284 663/1307/284
f 669/1317/284 670/1319/284 668/1320/284 667/1318/284
f 670/1319/284 659/1321/284 665/1322/284 668/1320/284
f 669/1323/291 661/1310/292 662/1309/292 671/1324/291
f 670/1303/289 669/1323/291 671/1324/291 672/1304/289
f 673/1313/283 674/1325/283 672/1326/283 671/1314/283
f 674/1325/283 666/1327/283 660/1328/283 672/1326/283
f 667/1315/193 668/1329/193 674/1330/193 673/1316/193
f 668/1329/193 665/1331/193 666/1332/193 674/1330/193
f 676/1333/293 695/1334/294 693/1335/294 675/1336/293
f 678/1337/192 680/1338/192 679/1339/192 677/1340/192
f 682/1341/191 676/1333/191 675/1336/191 681/1342/191
f 691/1343/295 697/1344/295 684/1345/296 683/1346/296
f 687/1347/191 688/1348/191 686/1349/191 685/1350/191
f 683/1346/192 684/1345/192 690/1351/192 689/1352/192
f 697/1353/171 695/1354/171 676/1355/171 684/1356/171
f 692/1357/172 694/1358/172 677/1359/172 685/1360/172
f 688/1361/171 680/1362/171 678/1363/171 686/1364/171
f 687/1347/193 679/1339/193 680/1338/193 688/1348/193
f 685/1360/172 677/1359/172 679/1365/172 687/1366/172
f 690/1351/193 682/1341/193 681/1342/193 689/1352/193
f 684/1356/171 676/1355/171 682/1367/171 690/1368/171
f 689/1369/172 681/1370/172 675/1371/172 683/1372/172
f 691/1373/172 683/1372/172 675/1371/172 693/1374/172
f 692/1357/172 691/1373/172 693/1374/172 694/1358/172
f 695/1334/294 696/1375/297 694/1376/297 693/1335/294
f 696/1375/297 678/1337/298 677/1340/298 694/1376/297
f 697/1353/171 698/1377/171 696/1378/171 695/1354/171
f 698/1377/171 686/1364/171 678/1363/171 696/1378/171
f 691/1343/295 692/1379/299 698/1380/299 697/1344/295
f 692/1381/299 685/1350/300 686/1349/300 698/1382/299
f 710/1383/301 712/1384/301 700/1385/302 699/1386/302
f 703/1387/191 704/1388/191 702/1389/191 701/1390/191
f 699/1386/192 700/1385/192 706/1391/192 705/1392/192
f 704/1388/171 713/1393/171 711/1394/171 702/1389/171
f 703/1387/193 707/1395/193 713/1396/193 704/1388/193
f 701/1390/172 709/1397/172 707/1398/172 703/1387/172
f 709/1397/172 710/1399/172 708/1400/172 707/1398/172
f 710/1399/172 699/1401/172 705/1402/172 708/1400/172
f 709/1403/303 701/1390/304 702/1389/304 711/1404/303
f 710/1383/301 709/1403/303 711/1404/303 712/1384/301
f 713/1393/171 714/1405/171 712/1406/171 711/1394/171
f 714/1405/171 706/1407/171 700/1408/171 712/1406/171
f 707/1395/193 708/1409/193 714/1410/193 713/1396/193
f 708/1409/193 705/1411/193 706/1412/193 714/1410/193
f 716/1413/293 735/1414/294 733/1415/294 715/1416/293
f 718/1417/192 720/1418/192 719/1419/192 717/1420/192
f 722/1421/191 716/1413/191 715/1416/191 721/1422/191
f 731/1423/295 737/1424/295 724/1425/296 723/1426/296
f 727/1427/191 728/1428/191 726/1429/191 725/1430/191
f 723/1426/192 724/1425/192 730/1431/192 729/1432/192
f 737/1433/171 735/1434/171 716/1435/171 724/1436/171
f 732/1437/172 734/1438/172 717/1439/172 725/1440/172
f 728/1441/171 720/1442/171 718/1443/171 726/1444/171
f 727/1427/193 719/1419/193 720/1418/193 728/1428/193
f 725/1440/172 717/1439/172 719/1445/172 727/1446/172
f 730/1431/193 722/1421/193 721/1422/193 729/1432/193
f 724/1436/171 716/1435/171 722/1447/171 730/1448/171
f 729/1449/172 721/1450/172 715/1451/172 723/1452/172
f 731/1453/172 723/1452/172 715/1451/172 733/1454/172
f 732/1437/172 731/1453/172 733/1454/172 734/1438/172
f 735/1414/294 736/1455/297 734/1456/297 733/1415/294
f 736/1455/297 718/1417/298 717/1420/298 734/1456/297
f 737/1433/171 738/1457/171 736/1458/171 735/1434/171
f 738/1457/171 726/1444/171 718/1443/171 736/1458/171
f 731/1423/295 732/1459/299 738/1460/299 737/1424/295
f 732/1461/299 725/1430/300 726/1429/300 738/1462/299
f 750/1463/301 752/1464/301 740/1465/302 739/1466/302
f 743/1467/191 744/1468/191 742/1469/191 741/1470/191
f 739/1466/192 740/1465/192 746/1471/192 745/1472/192
f 744/1468/171 753/1473/171 751/1474/171 742/1469/171
f 743/1467/193 747/1475/193 753/1476/193 744/1468/193
f 741/1470/172 749/1477/172 747/1478/172 743/1467/172
f 749/1477/172 750/1479/172 748/1480/172 747/1478/172
f 750/1479/172 739/1481/172 745/1482/172 748/1480/172
f 749/1483/303 741/1470/304 742/1469/304 751/1484/303
f 750/1463/301 749/1483/303 751/1484/303 752/1464/301
f 753/1473/171 754/1485/171 752/1486/171 751/1474/171
f 754/1485/171 746/1487/171 740/1488/171 752/1486/171
f 747/1475/193 748/1489/193 754/1490/193 753/1476/193
f 748/1489/193 745/1491/193 746/1492/193 754/1490/193
