# Blender 5.1.2
# www.blender.org
mtllib mesa_2.mtl
o Desk_LP
v -1.000000 0.763789 -0.490000
v -1.000000 0.763789 0.490000
v -1.000000 0.805905 0.490000
v -1.000000 0.805905 -0.490000
v -0.996058 0.759847 0.486058
v -0.996058 0.759847 -0.486058
v -0.996058 0.809847 -0.486058
v -0.996058 0.809847 0.486058
v -0.986058 0.809847 0.496058
v -0.990000 0.805905 0.500000
v 0.990000 0.805905 0.500000
v 0.986058 0.809847 0.496058
v -0.986058 0.759847 -0.496058
v -0.990000 0.763789 -0.500000
v 0.990000 0.763789 -0.500000
v 0.986058 0.759847 -0.496058
v -0.990000 0.805905 -0.500000
v 0.990000 0.805905 -0.500000
v -0.990000 0.763789 0.500000
v -0.986058 0.759847 0.496058
v 0.986058 0.759847 0.496058
v 0.990000 0.763789 0.500000
v -0.986058 0.809847 -0.496058
v 0.986058 0.809847 -0.496058
v 0.996058 0.759847 0.486058
v 0.996058 0.759847 -0.486058
v 0.996058 0.809847 0.486058
v 0.996058 0.809847 -0.486058
v 1.000000 0.763789 -0.490000
v 1.000000 0.805905 -0.490000
v 1.000000 0.805905 0.490000
v 1.000000 0.763789 0.490000
v -0.879300 0.516666 0.015607
v 0.879299 0.516666 0.015607
v 0.879299 0.572489 0.007694
v -0.879300 0.572490 0.007694
v -0.880971 0.461630 -0.006118
v -0.880971 0.457814 -0.002303
v -0.880971 0.457814 0.002303
v -0.880971 0.461630 0.006118
v -0.880971 0.516666 0.013936
v -0.880971 0.516666 -0.013936
v -0.880971 0.571703 0.006118
v -0.880971 0.575518 0.002303
v -0.880971 0.575518 -0.002303
v -0.880971 0.571703 -0.006118
v -0.879300 0.577189 0.002995
v 0.879299 0.577189 0.002995
v -0.879300 0.456143 0.002995
v -0.879300 0.456143 -0.002995
v -0.879300 0.577189 -0.002995
v -0.879300 0.460842 0.007694
v -0.879300 0.460842 -0.007694
v -0.879300 0.516666 -0.015607
v -0.879300 0.572490 -0.007694
v 0.879299 0.516666 -0.015607
v 0.879299 0.460842 -0.007694
v 0.879299 0.572489 -0.007694
v 0.879299 0.456143 0.002995
v 0.879299 0.456143 -0.002995
v 0.879299 0.577189 -0.002995
v 0.879299 0.460842 0.007694
v 0.880971 0.461629 -0.006118
v 0.880971 0.516666 -0.013936
v 0.880971 0.516666 0.013936
v 0.880971 0.461629 0.006118
v 0.880971 0.457814 0.002303
v 0.880971 0.457814 -0.002303
v 0.880971 0.571702 -0.006118
v 0.880971 0.575518 -0.002303
v 0.880971 0.575518 0.002303
v 0.880971 0.571702 0.006118
v -0.823955 0.530708 -0.061733
v -0.823955 0.506328 -0.061733
v -0.823955 0.506328 0.061733
v -0.823955 0.530708 0.061733
v -0.793526 0.533135 -0.061733
v -0.821527 0.533135 -0.061733
v -0.821527 0.533135 0.061733
v -0.793526 0.533135 0.061733
v -0.793526 0.530708 0.064160
v -0.821527 0.530708 0.064160
v -0.821527 0.506328 0.064160
v -0.793526 0.506328 0.064160
v -0.793526 0.503900 0.061733
v -0.821527 0.503900 0.061733
v -0.821527 0.503900 -0.061733
v -0.793526 0.503900 -0.061733
v -0.793526 0.506328 -0.064160
v -0.821527 0.506328 -0.064160
v -0.821527 0.530708 -0.064160
v -0.793526 0.530708 -0.064160
v -0.810090 0.000000 0.459889
v -0.817814 0.000000 0.452165
v -0.817814 0.000000 0.286107
v -0.668509 -0.000000 0.286107
v -0.668509 -0.000000 0.452165
v -0.676233 -0.000000 0.459889
v -0.676233 0.083204 0.459889
v -0.810090 0.083204 0.459889
v -0.668509 0.108954 0.423215
v -0.668509 0.080004 0.452165
v -0.817814 0.011218 0.275643
v -0.668509 0.011218 0.275643
v -0.817814 0.080004 0.452165
v -0.817814 0.108954 0.423215
v -0.817814 0.011218 -0.275643
v -0.668509 0.011218 -0.275643
v -0.810090 0.116678 0.426414
v -0.676233 0.116678 0.426414
v -0.817814 0.108954 -0.423215
v -0.810090 0.116678 -0.426414
v -0.810090 0.000000 -0.459889
v -0.676233 -0.000000 -0.459889
v -0.668509 -0.000000 -0.452165
v -0.668509 -0.000000 -0.286107
v -0.817814 0.000000 -0.286108
v -0.817814 0.000000 -0.452165
v -0.810090 0.083204 -0.459889
v -0.676233 0.083204 -0.459889
v -0.668509 0.080004 -0.452165
v -0.668509 0.108954 -0.423215
v -0.817814 0.080004 -0.452165
v -0.676233 0.116678 -0.426414
v -0.793526 0.098471 0.388512
v -0.697648 0.098471 0.388512
v -0.697648 0.139093 0.388512
v -0.716735 0.158180 0.388512
v -0.774439 0.158180 0.388512
v -0.793526 0.139093 0.388512
v -0.697648 0.095931 0.294504
v -0.697648 0.165724 0.203626
v -0.697648 0.165316 0.370809
v -0.716735 0.733966 0.277717
v -0.697648 0.753033 0.278584
v -0.697648 0.760000 0.278901
v -0.793526 0.760000 0.278901
v -0.793526 0.753033 0.278584
v -0.774439 0.733966 0.277717
v -0.793526 0.734294 0.258633
v -0.793526 0.760000 -0.278901
v -0.716735 0.475967 0.155434
v -0.716735 0.556246 0.164913
v -0.774439 0.556246 0.164913
v -0.774439 0.475967 0.155434
v -0.697648 0.475967 0.023385
v -0.697648 0.553685 0.025511
v -0.697648 0.556246 0.145826
v -0.697648 0.475966 0.136347
v -0.786552 0.475967 0.018905
v -0.786552 0.556534 0.019145
v -0.704622 0.556534 0.019145
v -0.704622 0.475966 0.018905
v -0.716735 0.441800 0.164822
v -0.774439 0.441800 0.164822
v -0.697648 0.451898 0.013592
v -0.697648 0.441800 0.145735
v -0.786552 0.456304 0.008185
v -0.704623 0.456304 0.008185
v -0.793526 0.440377 0.145789
v -0.793526 0.471558 0.136863
v -0.793526 0.473600 0.025465
v -0.793526 0.451898 0.013592
v -0.716735 0.276176 0.248852
v -0.716735 0.357132 0.191268
v -0.774439 0.357132 0.191268
v -0.774439 0.276176 0.248852
v -0.793526 0.280868 0.230351
v -0.793526 0.367821 0.175455
v -0.793526 0.450701 0.000000
v -0.774439 0.079384 0.304018
v -0.774439 0.149065 0.212943
v -0.716735 0.149065 0.212943
v -0.716735 0.079384 0.304018
v -0.774439 0.184445 0.158156
v -0.716735 0.184445 0.158156
v -0.774439 0.221183 0.075065
v -0.774439 0.231600 0.030274
v -0.716735 0.231600 0.030274
v -0.716735 0.221183 0.075065
v -0.716735 0.634486 0.192904
v -0.716735 0.680138 0.228690
v -0.774439 0.680138 0.228690
v -0.774439 0.634486 0.192904
v -0.786552 0.577363 0.006963
v -0.786552 0.577838 -0.000000
v -0.701375 0.577838 -0.000000
v -0.704622 0.577363 0.006963
v -0.793526 0.630911 0.174155
v -0.793526 0.677946 0.209730
v -0.793526 0.583551 0.000000
v -0.793526 0.580218 0.013326
v -0.793526 0.556042 0.026102
v -0.793526 0.553236 0.146064
v -0.774439 0.233588 -0.000000
v -0.716735 0.233588 -0.000000
v -0.697648 0.581144 0.009262
v -0.697648 0.634486 0.173817
v -0.697648 0.733466 0.258637
v -0.793526 0.162934 0.370027
v -0.697648 0.285963 0.232465
v -0.697648 0.365809 0.174267
v -0.697648 0.680138 0.209603
v -0.793526 0.097712 0.298688
v -0.793526 0.167438 0.207769
v -0.793526 0.201083 0.148802
v -0.793526 0.238899 0.067963
v -0.793526 0.250448 0.027261
v -0.697648 0.239152 0.068631
v -0.697648 0.200336 0.147582
v -0.793526 0.252576 0.000000
v -0.697648 0.250448 0.027261
v -0.697648 0.582230 -0.000000
v -0.697648 0.450701 -0.000000
v -0.786552 0.456577 -0.000000
v -0.704622 0.456577 0.000000
v -0.697648 0.252576 -0.000000
v -0.793526 0.098471 -0.388512
v -0.793526 0.139093 -0.388512
v -0.774439 0.158180 -0.388512
v -0.716735 0.158180 -0.388512
v -0.697648 0.139093 -0.388512
v -0.697648 0.098471 -0.388512
v -0.697648 0.250448 -0.027261
v -0.716735 0.733966 -0.277717
v -0.774439 0.733966 -0.277717
v -0.793526 0.753033 -0.278584
v -0.697648 0.760000 -0.278901
v -0.697648 0.753033 -0.278584
v -0.793526 0.734294 -0.258633
v -0.716735 0.475967 -0.155434
v -0.774439 0.475967 -0.155434
v -0.774439 0.556246 -0.164913
v -0.716735 0.556246 -0.164913
v -0.697648 0.475967 -0.023385
v -0.697648 0.475966 -0.136347
v -0.697648 0.556246 -0.145826
v -0.697648 0.553685 -0.025511
v -0.786552 0.475967 -0.018905
v -0.704622 0.475966 -0.018905
v -0.704622 0.556534 -0.019145
v -0.786552 0.556534 -0.019145
v -0.716735 0.441800 -0.164822
v -0.774439 0.441800 -0.164822
v -0.697648 0.451898 -0.013592
v -0.697648 0.441800 -0.145735
v -0.786552 0.456304 -0.008185
v -0.704622 0.456304 -0.008185
v -0.793526 0.440377 -0.145789
v -0.793526 0.451898 -0.013592
v -0.793526 0.473600 -0.025465
v -0.793526 0.471558 -0.136863
v -0.716735 0.276176 -0.248852
v -0.774439 0.276176 -0.248852
v -0.774439 0.357132 -0.191268
v -0.716735 0.357132 -0.191268
v -0.793526 0.280868 -0.230351
v -0.793526 0.367821 -0.175455
v -0.774439 0.079384 -0.304018
v -0.716735 0.079384 -0.304018
v -0.716735 0.149065 -0.212943
v -0.774439 0.149065 -0.212943
v -0.716735 0.184445 -0.158156
v -0.774439 0.184445 -0.158156
v -0.774439 0.221183 -0.075065
v -0.716735 0.221183 -0.075065
v -0.716735 0.231600 -0.030274
v -0.774439 0.231600 -0.030274
v -0.716735 0.634486 -0.192904
v -0.774439 0.634486 -0.192904
v -0.774439 0.680138 -0.228690
v -0.716735 0.680138 -0.228690
v -0.786552 0.577363 -0.006963
v -0.704622 0.577363 -0.006963
v -0.793526 0.630911 -0.174155
v -0.793526 0.580218 -0.013326
v -0.793526 0.677946 -0.209730
v -0.793526 0.553236 -0.146064
v -0.793526 0.556042 -0.026102
v -0.697648 0.634486 -0.173817
v -0.697648 0.581144 -0.009262
v -0.697648 0.733466 -0.258637
v -0.697648 0.165316 -0.370809
v -0.793526 0.162934 -0.370027
v -0.697648 0.365809 -0.174267
v -0.697648 0.285963 -0.232465
v -0.697648 0.680138 -0.209603
v -0.793526 0.167438 -0.207769
v -0.793526 0.097712 -0.298688
v -0.793526 0.201083 -0.148802
v -0.697648 0.095931 -0.294504
v -0.697648 0.165724 -0.203626
v -0.793526 0.250448 -0.027261
v -0.793526 0.238899 -0.067963
v -0.697648 0.200336 -0.147582
v -0.697648 0.239152 -0.068631
v 0.823955 0.530707 -0.061733
v 0.823955 0.506328 -0.061733
v 0.823955 0.506328 0.061732
v 0.823955 0.530707 0.061732
v 0.793526 0.533135 -0.061733
v 0.821527 0.533135 -0.061733
v 0.821527 0.533135 0.061732
v 0.793526 0.533135 0.061732
v 0.793526 0.530707 0.064160
v 0.821527 0.530707 0.064160
v 0.821527 0.506328 0.064160
v 0.793526 0.506328 0.064160
v 0.793526 0.503900 0.061732
v 0.821527 0.503900 0.061732
v 0.821527 0.503900 -0.061733
v 0.793526 0.503900 -0.061733
v 0.793526 0.506328 -0.064161
v 0.821527 0.506328 -0.064161
v 0.821527 0.530707 -0.064161
v 0.793526 0.530707 -0.064161
v 0.810090 -0.000000 0.459888
v 0.817814 -0.000000 0.452165
v 0.817814 -0.000000 0.286107
v 0.668509 -0.000000 0.286107
v 0.668509 -0.000000 0.452165
v 0.676233 -0.000000 0.459888
v 0.676233 0.083203 0.459888
v 0.810090 0.083203 0.459888
v 0.668509 0.108954 0.423215
v 0.668509 0.080004 0.452165
v 0.817814 0.011218 0.275643
v 0.668509 0.011218 0.275643
v 0.817814 0.080004 0.452165
v 0.817814 0.108954 0.423215
v 0.817814 0.011218 -0.275644
v 0.668509 0.011218 -0.275643
v 0.810090 0.116678 0.426414
v 0.676233 0.116678 0.426414
v 0.817813 0.108954 -0.423216
v 0.810090 0.116678 -0.426415
v 0.810090 -0.000000 -0.459889
v 0.676233 -0.000000 -0.459889
v 0.668509 -0.000000 -0.452166
v 0.668509 -0.000000 -0.286108
v 0.817814 -0.000000 -0.286108
v 0.817813 -0.000000 -0.452166
v 0.810090 0.083203 -0.459889
v 0.676233 0.083203 -0.459889
v 0.668509 0.080004 -0.452166
v 0.668509 0.108954 -0.423215
v 0.817813 0.080004 -0.452166
v 0.676233 0.116678 -0.426415
v 0.793526 0.098471 0.388512
v 0.697648 0.098471 0.388512
v 0.697649 0.139093 0.388512
v 0.716735 0.158179 0.388512
v 0.774439 0.158179 0.388512
v 0.793526 0.139093 0.388512
v 0.697648 0.095930 0.294503
v 0.697648 0.165724 0.203626
v 0.697648 0.165315 0.370809
v 0.716735 0.733966 0.277717
v 0.697648 0.753033 0.278584
v 0.697648 0.760000 0.278901
v 0.793526 0.760000 0.278901
v 0.793526 0.753033 0.278584
v 0.774439 0.733966 0.277716
v 0.793526 0.734293 0.258632
v 0.793526 0.760000 -0.278902
v 0.716735 0.475966 0.155433
v 0.716735 0.556245 0.164912
v 0.774439 0.556245 0.164912
v 0.774439 0.475966 0.155433
v 0.697648 0.475966 0.023385
v 0.697648 0.553685 0.025510
v 0.697648 0.556245 0.145825
v 0.697648 0.475966 0.136346
v 0.786552 0.475966 0.018904
v 0.786552 0.556534 0.019145
v 0.704622 0.556534 0.019145
v 0.704622 0.475966 0.018904
v 0.716735 0.441800 0.164822
v 0.774439 0.441800 0.164822
v 0.697648 0.451898 0.013591
v 0.697648 0.441800 0.145735
v 0.786552 0.456304 0.008185
v 0.704622 0.456304 0.008185
v 0.793526 0.440376 0.145788
v 0.793526 0.471558 0.136862
v 0.793526 0.473600 0.025464
v 0.793526 0.451898 0.013591
v 0.716735 0.276176 0.248852
v 0.716735 0.357132 0.191268
v 0.774439 0.357132 0.191268
v 0.774439 0.276176 0.248852
v 0.793526 0.280868 0.230350
v 0.793526 0.367820 0.175454
v 0.793526 0.450701 -0.000000
v 0.774439 0.079384 0.304018
v 0.774439 0.149065 0.212943
v 0.716735 0.149065 0.212943
v 0.716735 0.079384 0.304018
v 0.774439 0.184445 0.158155
v 0.716735 0.184445 0.158155
v 0.774439 0.221182 0.075064
v 0.774439 0.231600 0.030273
v 0.716735 0.231600 0.030273
v 0.716735 0.221182 0.075064
v 0.716735 0.634486 0.192904
v 0.716735 0.680138 0.228690
v 0.774439 0.680138 0.228690
v 0.774439 0.634486 0.192903
v 0.786552 0.577362 0.006962
v 0.786552 0.577837 -0.000000
v 0.701375 0.577837 -0.000000
v 0.704622 0.577362 0.006962
v 0.793526 0.630911 0.174154
v 0.793526 0.677945 0.209729
v 0.793526 0.583551 -0.000000
v 0.793526 0.580218 0.013325
v 0.793526 0.556042 0.026101
v 0.793526 0.553236 0.146064
v 0.774439 0.233588 -0.000000
v 0.716735 0.233588 -0.000000
v 0.697648 0.581144 0.009261
v 0.697648 0.634486 0.173817
v 0.697648 0.733466 0.258636
v 0.793526 0.162934 0.370026
v 0.697648 0.285962 0.232465
v 0.697648 0.365809 0.174267
v 0.697648 0.680138 0.209603
v 0.793526 0.097711 0.298687
v 0.793526 0.167437 0.207768
v 0.793526 0.201083 0.148801
v 0.793526 0.238899 0.067963
v 0.793526 0.250448 0.027261
v 0.697648 0.239152 0.068630
v 0.697648 0.200336 0.147581
v 0.793526 0.252576 -0.000000
v 0.697648 0.250447 0.027261
v 0.697648 0.582230 -0.000000
v 0.697648 0.450701 -0.000000
v 0.786552 0.456577 -0.000000
v 0.704622 0.456577 -0.000000
v 0.697648 0.252576 -0.000000
v 0.793526 0.098471 -0.388513
v 0.793526 0.139093 -0.388513
v 0.774439 0.158179 -0.388512
v 0.716735 0.158179 -0.388512
v 0.697648 0.139093 -0.388512
v 0.697648 0.098471 -0.388512
v 0.697648 0.250447 -0.027262
v 0.716735 0.733966 -0.277717
v 0.774439 0.733966 -0.277717
v 0.793526 0.753033 -0.278585
v 0.697648 0.760000 -0.278902
v 0.697648 0.753033 -0.278585
v 0.793526 0.734293 -0.258633
v 0.716735 0.475966 -0.155434
v 0.774439 0.475966 -0.155434
v 0.774439 0.556245 -0.164913
v 0.716735 0.556245 -0.164913
v 0.697648 0.475966 -0.023385
v 0.697648 0.475966 -0.136347
v 0.697648 0.556245 -0.145826
v 0.697648 0.553685 -0.025511
v 0.786552 0.475966 -0.018905
v 0.704622 0.475966 -0.018905
v 0.704622 0.556534 -0.019146
v 0.786552 0.556534 -0.019146
v 0.716735 0.441800 -0.164823
v 0.774439 0.441800 -0.164823
v 0.697648 0.451898 -0.013592
v 0.697648 0.441800 -0.145736
v 0.786552 0.456304 -0.008186
v 0.704622 0.456304 -0.008186
v 0.793526 0.440376 -0.145789
v 0.793526 0.451898 -0.013592
v 0.793526 0.473600 -0.025465
v 0.793526 0.471558 -0.136863
v 0.716735 0.276176 -0.248853
v 0.774439 0.276176 -0.248853
v 0.774439 0.357132 -0.191269
v 0.716735 0.357132 -0.191269
v 0.793526 0.280868 -0.230351
v 0.793526 0.367820 -0.175455
v 0.774439 0.079384 -0.304019
v 0.716735 0.079384 -0.304019
v 0.716735 0.149065 -0.212944
v 0.774439 0.149065 -0.212944
v 0.716735 0.184445 -0.158156
v 0.774439 0.184445 -0.158156
v 0.774439 0.221182 -0.075065
v 0.716735 0.221182 -0.075065
v 0.716735 0.231600 -0.030274
v 0.774439 0.231600 -0.030274
v 0.716735 0.634486 -0.192904
v 0.774439 0.634486 -0.192904
v 0.774439 0.680138 -0.228691
v 0.716735 0.680138 -0.228691
v 0.786552 0.577362 -0.006963
v 0.704622 0.577362 -0.006963
v 0.793526 0.630911 -0.174155
v 0.793526 0.580218 -0.013326
v 0.793526 0.677945 -0.209730
v 0.793526 0.553236 -0.146065
v 0.793526 0.556042 -0.026102
v 0.697648 0.634486 -0.173818
v 0.697648 0.581144 -0.009262
v 0.697648 0.733466 -0.258637
v 0.697648 0.165315 -0.370810
v 0.793526 0.162934 -0.370027
v 0.697648 0.365809 -0.174268
v 0.697648 0.285962 -0.232466
v 0.697648 0.680138 -0.209604
v 0.793526 0.167437 -0.207769
v 0.793526 0.097711 -0.298688
v 0.793526 0.201083 -0.148802
v 0.697648 0.095930 -0.294504
v 0.697648 0.165724 -0.203627
v 0.793526 0.250448 -0.027262
v 0.793526 0.238899 -0.067964
v 0.697648 0.200336 -0.147582
v 0.697648 0.239152 -0.068631
vn -1.0000 -0.0000 -0.0000
vn -0.7071 -0.7071 -0.0000
vn -0.7071 0.7071 -0.0000
vn -0.2623 0.8008 0.5385
vn 0.2623 0.8008 0.5385
vn 0.1765 0.7786 0.6021
vn -0.1765 0.7786 0.6021
vn -0.2623 -0.8008 -0.5385
vn 0.2623 -0.8008 -0.5385
vn 0.1765 -0.7786 -0.6021
vn -0.1765 -0.7786 -0.6021
vn -0.0000 -0.0000 -1.0000
vn -0.1765 -0.7786 0.6021
vn 0.1765 -0.7786 0.6021
vn 0.2623 -0.8008 0.5385
vn -0.2623 -0.8008 0.5385
vn -0.1765 0.7786 -0.6021
vn 0.1765 0.7787 -0.6021
vn 0.2623 0.8008 -0.5385
vn -0.2622 0.8008 -0.5385
vn -0.0000 -1.0000 -0.0000
vn -0.0000 1.0000 -0.0000
vn -0.0000 -0.0000 1.0000
vn 1.0000 -0.0000 -0.0000
vn 0.7071 -0.7071 -0.0000
vn 0.7071 0.7071 -0.0000
vn -0.7071 -0.0000 0.7071
vn -0.7071 -0.0000 -0.7071
vn -0.4083 -0.8165 0.4083
vn -0.4082 -0.8165 -0.4082
vn -0.4082 0.8165 0.4082
vn -0.4083 0.8165 -0.4082
vn -0.4083 0.8165 -0.4083
vn 0.7071 -0.0000 0.7071
vn 0.7071 -0.0000 -0.7071
vn 0.4083 -0.8165 0.4083
vn 0.4083 -0.8165 -0.4083
vn 0.4083 0.8165 0.4082
vn 0.4083 0.8165 -0.4083
vn -0.3711 -0.0000 0.9286
vn 0.3711 -0.0000 0.9286
vn 0.3685 0.4153 0.8317
vn -0.3685 0.4153 0.8317
vn -0.8991 -0.4044 -0.1675
vn -0.8991 -0.4044 0.1675
vn -0.9018 -0.1930 0.3866
vn -0.9115 -0.0001 0.4112
vn -0.9115 0.0001 -0.4112
vn -0.9018 -0.1931 -0.3866
vn -0.9018 0.1931 0.3866
vn -0.8991 0.4044 0.1675
vn -0.8991 0.4044 -0.1675
vn -0.9018 0.1930 -0.3866
vn 0.3688 0.8587 0.3557
vn -0.3688 0.8587 0.3557
vn -0.3689 -0.8587 0.3557
vn -0.3688 -0.8587 -0.3557
vn -0.3689 0.8587 -0.3557
vn -0.3686 -0.4153 0.8317
vn -0.3685 -0.4153 -0.8317
vn -0.3711 0.0001 -0.9286
vn -0.3686 0.4153 -0.8317
vn 0.3711 0.0001 -0.9286
vn 0.3685 -0.4153 -0.8317
vn 0.3685 0.4153 -0.8317
vn 0.3688 -0.8587 0.3557
vn 0.3688 -0.8587 -0.3557
vn 0.3688 0.8587 -0.3557
vn 0.3685 -0.4153 0.8317
vn 0.9018 -0.1931 0.3866
vn 0.8991 -0.4044 0.1675
vn 0.8991 -0.4044 -0.1675
vn 0.9115 -0.0001 0.4112
vn 0.9115 0.0001 -0.4112
vn 0.9018 -0.1931 -0.3865
vn 0.9018 0.1931 -0.3866
vn 0.8991 0.4044 -0.1675
vn 0.8991 0.4044 0.1675
vn 0.9018 0.1931 0.3866
vn -0.5774 0.5774 -0.5774
vn -0.5774 0.5774 0.5774
vn -0.5774 -0.5774 -0.5774
vn -0.5773 -0.5774 0.5774
vn -0.0000 0.7071 -0.7071
vn -0.0000 0.7071 0.7071
vn -0.0000 -0.7071 0.7071
vn -0.0000 -0.7071 -0.7071
vn -0.0000 -0.6821 -0.7312
vn -0.7071 0.5000 0.5000
vn 0.7071 0.5000 0.5000
vn -0.0000 -0.6821 0.7312
vn -0.7071 0.5000 -0.5000
vn 0.7071 0.5000 -0.5000
vn -0.0000 -0.0455 0.9990
vn -0.0000 -0.0454 0.9990
vn 0.3855 -0.2157 0.8971
vn -0.3714 -0.2197 0.9021
vn -0.3956 0.0641 0.9162
vn 0.3994 0.0720 0.9140
vn -0.0000 -0.2601 -0.9656
vn -0.0000 0.2484 -0.9687
vn -0.3674 0.2772 0.8878
vn 0.3744 0.2620 0.8895
vn -0.0000 0.4786 -0.8780
vn 0.2546 0.4620 0.8496
vn -0.2299 0.4465 0.8648
vn -0.2346 0.6764 0.6982
vn 0.1123 0.6956 0.7096
vn -0.2765 0.6940 0.6648
vn 0.2422 0.6819 0.6902
vn -0.2733 -0.7861 -0.5544
vn 0.1963 -0.7967 -0.5716
vn 0.1293 -0.7875 -0.6025
vn -0.2009 -0.7778 -0.5955
vn -0.2357 -0.8467 -0.4769
vn 0.2156 -0.8543 -0.4730
vn -0.3776 -0.9153 -0.1403
vn 0.3721 -0.9165 -0.1467
vn 0.3173 -0.8920 -0.3219
vn -0.3220 -0.8923 -0.3164
vn 0.3192 -0.6163 0.7199
vn -0.2937 -0.6201 0.7275
vn -0.3219 -0.4777 0.8175
vn 0.3588 -0.4653 0.8092
vn -0.0000 -0.8821 -0.4711
vn -0.0000 -0.8500 -0.5268
vn -0.3851 -0.9229 -0.0000
vn 0.3851 -0.9229 -0.0000
vn 0.3472 -0.6419 0.6836
vn -0.3538 -0.6406 0.6815
vn -0.5718 -0.5980 0.5616
vn -0.5966 -0.5470 0.5873
vn 0.5631 -0.5900 0.5787
vn 0.5789 -0.5606 0.5921
vn 0.4883 0.4883 0.7233
vn 0.3665 0.6562 0.6596
vn -0.5225 0.5225 0.6738
vn -0.4386 0.6504 0.6201
vn -0.5794 -0.5099 0.6359
vn -0.7045 0.0660 0.7066
vn -0.6976 0.2281 0.6792
vn 0.7063 0.0492 0.7062
vn 0.6985 -0.1560 0.6985
vn -0.5091 0.3274 0.7960
vn 0.6833 0.2075 0.7000
vn 0.3193 0.6061 0.7285
vn 0.5191 0.3652 0.7728
vn -0.4924 0.5550 0.6705
vn -0.6259 -0.3467 0.6986
vn -0.6817 -0.1523 0.7156
vn 0.6651 -0.3394 0.6651
vn 0.6099 -0.5060 0.6099
vn -0.5094 -0.6828 -0.5237
vn -0.5562 -0.7030 -0.4431
vn -0.4939 -0.7738 -0.3967
vn 0.4037 -0.7583 -0.5119
vn 0.3605 -0.7407 -0.5669
vn -0.6011 -0.7569 -0.2567
vn -0.6854 -0.7203 -0.1065
vn 0.6280 -0.7391 -0.2437
vn 0.4597 -0.7958 -0.3943
vn -0.7053 -0.7089 -0.0000
vn 0.6911 -0.7140 -0.1120
vn 0.5977 -0.8008 0.0389
vn 0.7625 -0.6470 -0.0000
vn 0.6307 -0.7760 -0.0000
vn 0.4997 -0.8603 -0.1009
vn 0.5400 0.1540 -0.8275
vn 0.5560 0.1813 -0.8112
vn 0.5799 -0.2759 -0.7665
vn 0.6348 -0.1403 -0.7599
vn -0.7059 0.1692 -0.6879
vn -0.7056 0.1838 -0.6843
vn -0.6917 -0.1521 -0.7059
vn -0.6911 -0.2042 -0.6934
vn 0.6603 0.3392 -0.6700
vn 0.4484 0.8087 -0.3808
vn -0.7015 0.3418 -0.6253
vn -0.7011 0.3422 -0.6255
vn -0.5704 -0.8081 -0.1469
vn -0.5261 -0.8250 -0.2064
vn -0.5825 -0.8128 -0.0000
vn -0.6337 -0.7735 -0.0000
vn 0.4906 -0.4432 -0.7503
vn 0.4885 -0.4444 -0.7509
vn -0.6923 -0.3578 -0.6266
vn -0.7051 -0.3580 -0.6121
vn -0.0000 0.9994 0.0334
vn 0.7053 -0.7089 -0.0000
vn 0.6014 0.7982 -0.0339
vn 0.5720 0.8171 -0.0719
vn 0.6087 0.7934 -0.0000
vn 0.6443 0.7648 -0.0000
vn -0.6087 0.7934 -0.0000
vn -0.5720 0.8171 -0.0719
vn -0.6014 0.7982 -0.0339
vn -0.6443 0.7648 -0.0000
vn -0.0000 -0.0455 -0.9990
vn -0.0000 -0.0454 -0.9990
vn 0.3855 -0.2157 -0.8971
vn 0.3994 0.0720 -0.9140
vn -0.3956 0.0641 -0.9162
vn -0.3714 -0.2197 -0.9021
vn -0.0000 -0.2601 0.9656
vn -0.0000 0.2484 0.9687
vn 0.3744 0.2620 -0.8895
vn -0.3674 0.2772 -0.8878
vn -0.0000 0.4786 0.8780
vn 0.2546 0.4620 -0.8496
vn 0.1123 0.6956 -0.7096
vn -0.2346 0.6764 -0.6982
vn -0.2299 0.4465 -0.8648
vn 0.2422 0.6819 -0.6902
vn -0.2765 0.6940 -0.6648
vn -0.2733 -0.7861 0.5544
vn -0.2009 -0.7778 0.5955
vn 0.1293 -0.7875 0.6025
vn 0.1963 -0.7967 0.5716
vn -0.2357 -0.8467 0.4769
vn 0.2156 -0.8543 0.4730
vn -0.3776 -0.9153 0.1403
vn -0.3220 -0.8923 0.3164
vn 0.3173 -0.8920 0.3219
vn 0.3721 -0.9165 0.1467
vn 0.3192 -0.6163 -0.7199
vn 0.3588 -0.4653 -0.8092
vn -0.3219 -0.4777 -0.8175
vn -0.2937 -0.6201 -0.7275
vn -0.0000 -0.8500 0.5268
vn -0.0000 -0.8821 0.4711
vn 0.3472 -0.6419 -0.6836
vn -0.3538 -0.6406 -0.6815
vn -0.5718 -0.5980 -0.5616
vn -0.5966 -0.5470 -0.5873
vn 0.5631 -0.5900 -0.5787
vn 0.5789 -0.5606 -0.5921
vn 0.4883 0.4883 -0.7233
vn 0.3665 0.6562 -0.6596
vn -0.5225 0.5225 -0.6738
vn -0.4386 0.6504 -0.6201
vn -0.5794 -0.5099 -0.6359
vn -0.6976 0.2281 -0.6792
vn -0.7045 0.0660 -0.7066
vn 0.6985 -0.1560 -0.6985
vn 0.7062 0.0492 -0.7063
vn -0.5091 0.3274 -0.7960
vn 0.6833 0.2075 -0.7000
vn 0.5191 0.3652 -0.7728
vn 0.3193 0.6061 -0.7285
vn -0.4924 0.5550 -0.6705
vn -0.6817 -0.1523 -0.7156
vn -0.6259 -0.3467 -0.6986
vn 0.6099 -0.5060 -0.6099
vn 0.6651 -0.3394 -0.6651
vn -0.5562 -0.7030 0.4431
vn -0.5094 -0.6828 0.5237
vn -0.4939 -0.7738 0.3967
vn 0.3604 -0.7408 0.5669
vn 0.3605 -0.7407 0.5669
vn 0.4037 -0.7583 0.5119
vn -0.6854 -0.7203 0.1065
vn -0.6011 -0.7569 0.2567
vn 0.4597 -0.7958 0.3943
vn 0.6280 -0.7391 0.2437
vn 0.6911 -0.7140 0.1120
vn 0.5977 -0.8008 -0.0389
vn 0.4997 -0.8603 0.1009
vn 0.5400 0.1540 0.8275
vn 0.6348 -0.1403 0.7599
vn 0.5799 -0.2759 0.7665
vn 0.5560 0.1813 0.8112
vn -0.7059 0.1692 0.6879
vn -0.6911 -0.2042 0.6934
vn -0.6918 -0.1521 0.7059
vn -0.7056 0.1838 0.6843
vn 0.6603 0.3392 0.6700
vn 0.4484 0.8087 0.3808
vn -0.7015 0.3418 0.6253
vn -0.7011 0.3422 0.6255
vn -0.5704 -0.8081 0.1469
vn -0.5261 -0.8250 0.2064
vn 0.4885 -0.4444 0.7509
vn 0.4906 -0.4432 0.7503
vn -0.7051 -0.3580 0.6121
vn -0.6923 -0.3578 0.6266
vn -0.0000 0.9994 -0.0334
vn 0.6014 0.7982 0.0339
vn 0.5720 0.8171 0.0719
vn -0.6014 0.7982 0.0339
vn -0.5720 0.8171 0.0719
vn 0.5773 0.5773 -0.5774
vn 0.5773 0.5773 0.5774
vn 0.5773 -0.5773 -0.5774
vn 0.5773 -0.5773 0.5774
vn -0.3855 -0.2157 0.8971
vn -0.3994 0.0720 0.9140
vn 0.3956 0.0641 0.9162
vn 0.3714 -0.2197 0.9021
vn -0.3744 0.2620 0.8895
vn 0.3674 0.2772 0.8878
vn -0.2546 0.4620 0.8496
vn -0.1123 0.6956 0.7096
vn 0.2346 0.6764 0.6982
vn 0.2299 0.4465 0.8648
vn -0.2422 0.6819 0.6902
vn 0.2765 0.6940 0.6648
vn 0.2733 -0.7861 -0.5544
vn 0.2009 -0.7778 -0.5955
vn -0.1293 -0.7875 -0.6025
vn -0.1963 -0.7967 -0.5716
vn 0.2357 -0.8467 -0.4769
vn -0.2156 -0.8543 -0.4730
vn 0.3776 -0.9153 -0.1403
vn 0.3220 -0.8923 -0.3164
vn -0.3173 -0.8920 -0.3219
vn -0.3721 -0.9165 -0.1467
vn -0.3192 -0.6163 0.7199
vn -0.3588 -0.4653 0.8092
vn 0.3218 -0.4777 0.8175
vn 0.2937 -0.6201 0.7275
vn -0.3472 -0.6419 0.6836
vn 0.3538 -0.6406 0.6815
vn 0.5718 -0.5980 0.5616
vn 0.5966 -0.5470 0.5873
vn -0.5631 -0.5900 0.5787
vn -0.5789 -0.5606 0.5921
vn -0.4883 0.4883 0.7233
vn -0.3665 0.6562 0.6596
vn 0.5225 0.5225 0.6738
vn 0.4386 0.6504 0.6201
vn 0.5794 -0.5099 0.6359
vn 0.6976 0.2281 0.6792
vn 0.7045 0.0660 0.7067
vn -0.6985 -0.1560 0.6985
vn -0.7062 0.0492 0.7063
vn 0.5091 0.3274 0.7960
vn -0.6833 0.2075 0.7000
vn -0.5191 0.3652 0.7728
vn -0.3193 0.6061 0.7285
vn 0.4924 0.5550 0.6705
vn 0.6817 -0.1523 0.7156
vn 0.6259 -0.3467 0.6986
vn -0.6099 -0.5060 0.6099
vn -0.6651 -0.3394 0.6651
vn 0.5562 -0.7030 -0.4431
vn 0.5094 -0.6828 -0.5237
vn 0.4939 -0.7738 -0.3967
vn -0.3604 -0.7408 -0.5669
vn -0.3605 -0.7407 -0.5669
vn -0.4037 -0.7583 -0.5119
vn 0.6854 -0.7203 -0.1065
vn 0.6011 -0.7569 -0.2567
vn -0.4597 -0.7958 -0.3943
vn -0.6280 -0.7391 -0.2437
vn -0.6911 -0.7140 -0.1120
vn -0.5977 -0.8008 0.0389
vn -0.4997 -0.8603 -0.1009
vn -0.6307 -0.7760 -0.0000
vn -0.7625 -0.6470 -0.0000
vn -0.5400 0.1540 -0.8275
vn -0.6348 -0.1403 -0.7599
vn -0.5800 -0.2759 -0.7665
vn -0.5560 0.1813 -0.8112
vn 0.7059 0.1692 -0.6878
vn 0.6911 -0.2042 -0.6934
vn 0.6918 -0.1521 -0.7059
vn 0.7056 0.1838 -0.6843
vn -0.6603 0.3392 -0.6700
vn -0.4484 0.8087 -0.3808
vn 0.7015 0.3418 -0.6253
vn 0.7011 0.3422 -0.6256
vn 0.5704 -0.8081 -0.1469
vn 0.6337 -0.7735 -0.0000
vn 0.5825 -0.8128 -0.0000
vn 0.5261 -0.8250 -0.2064
vn -0.4885 -0.4444 -0.7509
vn -0.4906 -0.4432 -0.7503
vn 0.7051 -0.3580 -0.6121
vn 0.6923 -0.3578 -0.6266
vn -0.5720 0.8171 -0.0720
vn -0.3855 -0.2157 -0.8971
vn 0.3714 -0.2197 -0.9021
vn 0.3956 0.0641 -0.9162
vn -0.3994 0.0720 -0.9140
vn 0.3674 0.2772 -0.8878
vn -0.3744 0.2620 -0.8895
vn -0.2546 0.4620 -0.8496
vn 0.2299 0.4465 -0.8648
vn 0.2346 0.6764 -0.6982
vn -0.1123 0.6956 -0.7096
vn 0.2765 0.6940 -0.6648
vn -0.2422 0.6819 -0.6902
vn 0.2733 -0.7861 0.5544
vn -0.1963 -0.7967 0.5716
vn -0.1293 -0.7875 0.6025
vn 0.2009 -0.7778 0.5955
vn 0.2357 -0.8467 0.4769
vn -0.2156 -0.8543 0.4730
vn 0.3776 -0.9153 0.1403
vn -0.3721 -0.9165 0.1467
vn -0.3173 -0.8920 0.3219
vn 0.3220 -0.8923 0.3164
vn -0.3192 -0.6163 -0.7199
vn 0.2937 -0.6201 -0.7275
vn 0.3218 -0.4777 -0.8175
vn -0.3588 -0.4653 -0.8092
vn -0.3472 -0.6419 -0.6836
vn 0.3538 -0.6406 -0.6815
vn 0.5718 -0.5980 -0.5616
vn 0.5966 -0.5470 -0.5873
vn -0.5631 -0.5900 -0.5787
vn -0.5789 -0.5606 -0.5921
vn -0.4883 0.4883 -0.7233
vn -0.3665 0.6562 -0.6596
vn 0.5225 0.5225 -0.6738
vn 0.4386 0.6504 -0.6201
vn 0.5794 -0.5099 -0.6359
vn 0.7045 0.0660 -0.7067
vn 0.6976 0.2281 -0.6792
vn -0.7062 0.0492 -0.7063
vn -0.6985 -0.1560 -0.6985
vn 0.5091 0.3274 -0.7960
vn -0.6833 0.2075 -0.7000
vn -0.3193 0.6061 -0.7285
vn -0.5191 0.3652 -0.7728
vn 0.4924 0.5550 -0.6705
vn 0.6259 -0.3467 -0.6986
vn 0.6817 -0.1523 -0.7156
vn -0.6651 -0.3394 -0.6651
vn -0.6099 -0.5060 -0.6099
vn 0.5094 -0.6828 0.5237
vn 0.5562 -0.7030 0.4431
vn 0.4939 -0.7738 0.3967
vn -0.4037 -0.7583 0.5119
vn -0.3605 -0.7407 0.5669
vn 0.6011 -0.7569 0.2567
vn 0.6854 -0.7203 0.1065
vn -0.6280 -0.7391 0.2437
vn -0.4597 -0.7958 0.3943
vn -0.6911 -0.7140 0.1120
vn -0.5977 -0.8008 -0.0389
vn -0.4997 -0.8603 0.1009
vn -0.5400 0.1540 0.8275
vn -0.5560 0.1813 0.8112
vn -0.5799 -0.2759 0.7665
vn -0.6348 -0.1403 0.7599
vn 0.7059 0.1692 0.6878
vn 0.7056 0.1838 0.6843
vn 0.6917 -0.1521 0.7059
vn 0.6911 -0.2042 0.6934
vn -0.6603 0.3392 0.6700
vn -0.4484 0.8087 0.3808
vn 0.7015 0.3418 0.6253
vn 0.7011 0.3422 0.6256
vn 0.5704 -0.8081 0.1469
vn 0.5261 -0.8250 0.2064
vn -0.4906 -0.4432 0.7503
vn -0.4885 -0.4444 0.7509
vn 0.6923 -0.3578 0.6266
vn 0.7051 -0.3580 0.6121
vn -0.5720 0.8171 0.0720
vt 0.009039 0.956712
vt 0.345717 0.956712
vt 0.345717 0.971180
vt 0.009039 0.971180
vt 0.006168 0.343203
vt 0.004590 0.344820
vt 0.002258 0.005666
vt 0.004221 0.007029
vt 0.006024 0.708190
vt 0.004445 0.709806
vt 0.002423 0.370649
vt 0.004384 0.372013
vt 0.006445 0.367773
vt 0.691585 0.367507
vt 0.690118 0.369608
vt 0.008048 0.369190
vt 0.006279 0.002787
vt 0.691416 0.002000
vt 0.689950 0.004102
vt 0.007882 0.004203
vt 0.683331 0.934686
vt 0.003112 0.934686
vt 0.003112 0.920217
vt 0.683331 0.920217
vt 0.009145 0.346966
vt 0.691212 0.346865
vt 0.692816 0.348281
vt 0.007679 0.349068
vt 0.008997 0.711956
vt 0.691067 0.712374
vt 0.692670 0.713791
vt 0.007529 0.714057
vt 0.692927 0.007865
vt 0.694873 0.344039
vt 0.693091 0.373373
vt 0.694731 0.709550
vt 0.683334 0.902000
vt 0.003112 0.902000
vt 0.003112 0.887531
vt 0.683334 0.887531
vt 0.706410 0.954786
vt 0.706410 0.969315
vt 0.368344 0.969315
vt 0.368344 0.954786
vt 0.694505 0.006248
vt 0.696836 0.345402
vt 0.694670 0.371758
vt 0.696692 0.710915
vt 0.350576 0.971180
vt 0.350576 0.956712
vt 0.004181 0.956712
vt 0.004181 0.971180
vt 0.364894 0.954786
vt 0.364894 0.969315
vt 0.709860 0.969315
vt 0.709860 0.954786
vt 0.002563 0.813123
vt 0.610635 0.813123
vt 0.610635 0.832619
vt 0.002563 0.832619
vt 0.622601 0.733539
vt 0.624245 0.733539
vt 0.625607 0.734902
vt 0.628399 0.754554
vt 0.618447 0.754554
vt 0.621238 0.734902
vt 0.625607 0.774207
vt 0.624245 0.775569
vt 0.622601 0.775569
vt 0.621238 0.774207
vt 0.002000 0.838925
vt 0.613514 0.838925
vt 0.613514 0.840744
vt 0.002000 0.840744
vt 0.624492 0.732943
vt 0.622353 0.732943
vt 0.622353 0.776166
vt 0.624492 0.776166
vt 0.628996 0.754554
vt 0.626170 0.734621
vt 0.626170 0.774488
vt 0.620676 0.734621
vt 0.617850 0.754554
vt 0.620676 0.774488
vt 0.610636 0.736302
vt 0.610636 0.755797
vt 0.002563 0.755797
vt 0.002563 0.736302
vt 0.610636 0.775293
vt 0.002563 0.775293
vt 0.613508 0.867354
vt 0.002000 0.867354
vt 0.002000 0.865035
vt 0.613508 0.865035
vt 0.613514 0.843062
vt 0.002000 0.843062
vt 0.002563 0.793628
vt 0.610635 0.793628
vt 0.620236 0.792522
vt 0.621599 0.791160
vt 0.623243 0.791160
vt 0.617445 0.812175
vt 0.627397 0.812175
vt 0.624605 0.792522
vt 0.624605 0.831827
vt 0.623243 0.833189
vt 0.621599 0.833189
vt 0.620236 0.831827
vt 0.002000 0.863217
vt 0.613508 0.863217
vt 0.621351 0.790563
vt 0.623490 0.790563
vt 0.623490 0.833786
vt 0.621351 0.833786
vt 0.616848 0.812175
vt 0.619673 0.792241
vt 0.619673 0.832108
vt 0.625168 0.792241
vt 0.627994 0.812175
vt 0.625168 0.832108
vt 0.002000 0.869172
vt 0.613508 0.869172
vt 0.613514 0.844881
vt 0.002000 0.844881
vt 0.911585 0.384768
vt 0.911585 0.376398
vt 0.953976 0.376398
vt 0.953976 0.384768
vt 0.911585 0.396336
vt 0.911585 0.386722
vt 0.953977 0.386722
vt 0.953977 0.396336
vt 0.933917 0.417089
vt 0.924315 0.417069
vt 0.924315 0.408722
vt 0.933917 0.408702
vt 0.911585 0.406725
vt 0.911585 0.397111
vt 0.953976 0.397111
vt 0.953976 0.406725
vt 0.921189 0.407500
vt 0.921143 0.417116
vt 0.912807 0.417115
vt 0.912788 0.407500
vt 0.912609 0.418265
vt 0.911670 0.417320
vt 0.924109 0.418215
vt 0.923166 0.417263
vt 0.922274 0.417324
vt 0.921332 0.418258
vt 0.923166 0.408528
vt 0.924109 0.407576
vt 0.911585 0.375219
vt 0.953976 0.375219
vt 0.953976 0.385947
vt 0.911585 0.385947
vt 0.911585 0.407511
vt 0.933907 0.418291
vt 0.933907 0.407500
vt 0.922391 0.407515
vt 0.894146 0.891023
vt 0.951160 0.891023
vt 0.953812 0.893675
vt 0.894146 0.942285
vt 0.951160 0.942285
vt 0.953812 0.939633
vt 0.710011 0.367107
vt 0.755970 0.367107
vt 0.755970 0.395674
vt 0.710011 0.395674
vt 0.706287 0.740340
vt 0.657809 0.778839
vt 0.648070 0.768736
vt 0.647872 0.740656
vt 0.962877 0.832441
vt 0.962877 0.883703
vt 0.957610 0.883703
vt 0.957610 0.832441
vt 0.710057 0.744229
vt 0.647899 0.825518
vt 0.648332 0.797196
vt 0.658054 0.787196
vt 0.706523 0.825640
vt 0.710317 0.821734
vt 0.698184 0.940752
vt 0.698184 0.889489
vt 0.887463 0.889489
vt 0.887463 0.940752
vt 0.710703 0.442117
vt 0.710703 0.425864
vt 0.756662 0.425864
vt 0.756662 0.442117
vt 0.643982 0.740725
vt 0.644622 0.770262
vt 0.644894 0.795556
vt 0.643982 0.825398
vt 0.657146 0.785625
vt 0.656242 0.780473
vt 0.958097 0.786966
vt 0.905856 0.821572
vt 0.959654 0.785387
vt 0.721762 0.949389
vt 0.724413 0.946738
vt 0.781428 0.946738
vt 0.781428 0.998000
vt 0.724413 0.998000
vt 0.721762 0.995348
vt 0.755175 0.331767
vt 0.755175 0.360334
vt 0.709216 0.360334
vt 0.709216 0.331767
vt 0.967653 0.768649
vt 0.957904 0.778602
vt 0.909431 0.740156
vt 0.967898 0.740548
vt 0.953093 0.884389
vt 0.947826 0.884389
vt 0.947826 0.833127
vt 0.953093 0.833127
vt 0.905634 0.744061
vt 0.967816 0.797111
vt 0.968244 0.825342
vt 0.909623 0.825463
vt 0.937301 0.881436
vt 0.644490 0.881436
vt 0.644490 0.835477
vt 0.937301 0.835477
vt 0.756026 0.418127
vt 0.710068 0.418127
vt 0.710068 0.401874
vt 0.756026 0.401874
vt 0.971802 0.740624
vt 0.971086 0.770262
vt 0.971264 0.795556
vt 0.972139 0.825227
vt 0.958838 0.780226
vt 0.960403 0.162347
vt 0.960403 0.176294
vt 0.953850 0.182847
vt 0.934038 0.182847
vt 0.927484 0.176294
vt 0.927484 0.162347
vt 0.755839 0.006283
vt 0.787041 0.030246
vt 0.729640 0.030106
vt 0.723562 0.021102
vt 0.723562 0.007155
vt 0.821066 0.019525
vt 0.821066 0.017130
vt 0.827619 0.010577
vt 0.853984 0.019525
vt 0.853984 0.017130
vt 0.847431 0.010577
vt 0.929281 0.477594
vt 0.936131 0.484028
vt 0.936240 0.486420
vt 0.744724 0.486420
vt 0.883662 0.554816
vt 0.883623 0.574881
vt 0.855385 0.574917
vt 0.855479 0.554592
vt 0.848925 0.136765
vt 0.848195 0.163449
vt 0.806886 0.164328
vt 0.810141 0.136765
vt 0.959029 0.142902
vt 0.930503 0.142672
vt 0.930813 0.114541
vt 0.959298 0.114868
vt 0.843035 0.574505
vt 0.843139 0.554820
vt 0.852287 0.128501
vt 0.806917 0.125034
vt 0.930897 0.106711
vt 0.959336 0.107135
vt 0.890537 0.376680
vt 0.887472 0.387386
vt 0.849225 0.388087
vt 0.845148 0.380636
vt 0.812718 0.554528
vt 0.812660 0.574489
vt 0.778139 0.574514
vt 0.778235 0.554454
vt 0.919571 0.321915
vt 0.900722 0.351769
vt 0.840482 0.380225
vt 0.714486 0.573986
vt 0.714668 0.553971
vt 0.919070 0.523471
vt 0.919031 0.503581
vt 0.958483 0.503437
vt 0.958578 0.523266
vt 0.896512 0.523487
vt 0.896555 0.503569
vt 0.849134 0.523284
vt 0.849260 0.503258
vt 0.865202 0.503366
vt 0.865094 0.523377
vt 0.932453 0.555082
vt 0.932485 0.574697
vt 0.912497 0.574893
vt 0.912503 0.554826
vt 0.958450 0.153430
vt 0.929862 0.153632
vt 0.930509 0.151127
vt 0.958882 0.151233
vt 0.912490 0.458247
vt 0.840482 0.425838
vt 0.845057 0.424693
vt 0.900276 0.442098
vt 0.849444 0.416393
vt 0.890632 0.415429
vt 0.838607 0.523176
vt 0.838742 0.503219
vt 0.853774 0.172876
vt 0.797275 0.191191
vt 0.957038 0.555057
vt 0.957151 0.574495
vt 0.962207 0.581996
vt 0.953051 0.582558
vt 0.961913 0.547447
vt 0.952561 0.547206
vt 0.710084 0.545836
vt 0.720959 0.547071
vt 0.710016 0.582195
vt 0.720417 0.581211
vt 0.928047 0.582588
vt 0.854177 0.583959
vt 0.844080 0.583336
vt 0.855751 0.545500
vt 0.882289 0.545842
vt 0.818201 0.581794
vt 0.844717 0.546078
vt 0.784452 0.547560
vt 0.817867 0.546944
vt 0.783574 0.582061
vt 0.908628 0.583168
vt 0.881266 0.583672
vt 0.909623 0.546184
vt 0.928423 0.547051
vt 0.953373 0.530918
vt 0.914092 0.531273
vt 0.891075 0.530931
vt 0.913138 0.496468
vt 0.952396 0.496455
vt 0.860947 0.531524
vt 0.847175 0.532085
vt 0.861365 0.495083
vt 0.890882 0.496328
vt 0.838546 0.532085
vt 0.847440 0.494433
vt 0.928458 0.154077
vt 0.927838 0.151495
vt 0.928081 0.114879
vt 0.927484 0.141280
vt 0.962523 0.114635
vt 0.962246 0.142274
vt 0.927710 0.106753
vt 0.962393 0.107164
vt 0.961973 0.150759
vt 0.960596 0.154460
vt 0.840482 0.312201
vt 0.849842 0.311470
vt 0.761304 0.231893
vt 0.768153 0.225175
vt 0.761196 0.234285
vt 0.856954 0.128090
vt 0.797121 0.098943
vt 0.777139 0.071529
vt 0.931457 0.104055
vt 0.958859 0.104584
vt 0.784989 0.206865
vt 0.856954 0.173249
vt 0.838802 0.494306
vt 0.929238 0.103190
vt 0.960949 0.103785
vt 0.779902 0.177140
vt 0.773348 0.183693
vt 0.753536 0.183693
vt 0.746983 0.177140
vt 0.746983 0.163193
vt 0.779902 0.163193
vt 0.856954 0.060066
vt 0.866314 0.059335
vt 0.893778 0.010582
vt 0.900332 0.017136
vt 0.900332 0.019530
vt 0.867413 0.019530
vt 0.867413 0.017136
vt 0.873966 0.010582
vt 0.751683 0.477594
vt 0.744833 0.484028
vt 0.883632 0.621019
vt 0.855448 0.621214
vt 0.855377 0.600889
vt 0.883615 0.600955
vt 0.864983 0.136765
vt 0.903767 0.136765
vt 0.907022 0.164328
vt 0.865713 0.163449
vt 0.749858 0.144545
vt 0.749592 0.116511
vt 0.778076 0.116186
vt 0.778385 0.144317
vt 0.843108 0.620972
vt 0.843027 0.601287
vt 0.861620 0.128501
vt 0.906991 0.125034
vt 0.749554 0.108778
vt 0.777992 0.108356
vt 0.790427 0.376680
vt 0.835815 0.380636
vt 0.831739 0.388087
vt 0.793491 0.387386
vt 0.812686 0.621227
vt 0.778202 0.621258
vt 0.778132 0.601198
vt 0.812652 0.601266
vt 0.761393 0.321915
vt 0.780241 0.351769
vt 0.714632 0.621660
vt 0.714475 0.601644
vt 0.758166 0.522427
vt 0.718683 0.521783
vt 0.718973 0.501958
vt 0.758437 0.502540
vt 0.780712 0.522718
vt 0.780920 0.502803
vt 0.828080 0.523140
vt 0.812122 0.523019
vt 0.812278 0.503008
vt 0.828223 0.503114
vt 0.932423 0.620804
vt 0.912473 0.621040
vt 0.912488 0.600973
vt 0.932474 0.601190
vt 0.750437 0.155074
vt 0.750005 0.152876
vt 0.778379 0.152771
vt 0.779026 0.155276
vt 0.835907 0.424693
vt 0.768473 0.458247
vt 0.780687 0.442098
vt 0.790332 0.415429
vt 0.831520 0.416393
vt 0.916632 0.191191
vt 0.860134 0.172876
vt 0.957007 0.620853
vt 0.957138 0.601416
vt 0.962202 0.593921
vt 0.953047 0.593349
vt 0.961874 0.628467
vt 0.952522 0.628699
vt 0.710038 0.629789
vt 0.720914 0.628568
vt 0.710016 0.593428
vt 0.720416 0.594426
vt 0.928044 0.593295
vt 0.844082 0.592457
vt 0.854179 0.591846
vt 0.882250 0.629993
vt 0.855711 0.630307
vt 0.818203 0.593968
vt 0.844677 0.629717
vt 0.817826 0.628818
vt 0.784410 0.628161
vt 0.783576 0.593657
vt 0.881267 0.592163
vt 0.908628 0.592695
vt 0.928385 0.628830
vt 0.909584 0.629679
vt 0.763049 0.530283
vt 0.723799 0.529488
vt 0.786052 0.530228
vt 0.725140 0.495040
vt 0.764416 0.495493
vt 0.829919 0.531966
vt 0.816159 0.531217
vt 0.786686 0.495631
vt 0.816227 0.494775
vt 0.830163 0.494314
vt 0.781049 0.153139
vt 0.780429 0.155722
vt 0.780808 0.116524
vt 0.781404 0.142925
vt 0.746642 0.143917
vt 0.746367 0.116278
vt 0.781180 0.108398
vt 0.746497 0.108807
vt 0.748291 0.156104
vt 0.746914 0.152402
vt 0.789392 0.294521
vt 0.817147 0.307505
vt 0.945754 0.225175
vt 0.952603 0.231893
vt 0.952712 0.234285
vt 0.936768 0.071529
vt 0.916787 0.098943
vt 0.750031 0.106228
vt 0.777433 0.105700
vt 0.928919 0.206865
vt 0.779651 0.104834
vt 0.747941 0.105429
vt 0.863816 0.307505
vt 0.891571 0.294521
vt 0.831122 0.311470
vt 0.707090 0.273237
vt 0.707090 0.259290
vt 0.737930 0.259030
vt 0.769146 0.282969
vt 0.713437 0.281423
vt 0.911817 0.282969
vt 0.967527 0.281423
vt 0.943033 0.259030
vt 0.973873 0.259290
vt 0.973873 0.273237
vt 0.847594 0.059335
vt 0.880518 0.055457
vt 0.907625 0.042130
vt 0.833390 0.055457
vt 0.806283 0.042130
vt 0.926867 0.030246
vt 0.984267 0.030106
vt 0.958069 0.006283
vt 0.990345 0.007155
vt 0.990345 0.021102
s 1
usemtl 01_-_Default
f 1/1/1 2/2/1 3/3/1
f 3/3/1 4/4/1 1/1/1
f 5/5/2 2/6/2 1/7/2
f 1/7/2 6/8/2 5/5/2
f 7/9/3 4/10/3 3/11/3
f 3/11/3 8/12/3 7/9/3
f 10/13/4 11/14/5 12/15/6
f 12/15/6 9/16/7 10/13/4
f 14/17/8 15/18/9 16/19/10
f 16/19/10 13/20/11 14/17/8
f 17/21/12 18/22/12 15/23/12
f 15/23/12 14/24/12 17/21/12
f 20/25/13 21/26/14 22/27/15
f 22/27/15 19/28/16 20/25/13
f 23/29/17 24/30/18 18/31/19
f 18/31/19 17/32/20 23/29/17
f 21/26/21 20/25/21 5/5/21
f 5/5/21 6/8/21 13/20/21
f 13/20/21 16/19/21 26/33/21
f 5/5/21 13/20/21 26/33/21
f 21/26/21 5/5/21 26/33/21
f 25/34/21 21/26/21 26/33/21
f 27/35/22 28/36/22 24/30/22
f 24/30/22 23/29/22 7/9/22
f 7/9/22 8/12/22 9/16/22
f 24/30/22 7/9/22 9/16/22
f 27/35/22 24/30/22 9/16/22
f 12/15/22 27/35/22 9/16/22
f 11/37/23 10/38/23 19/39/23
f 19/39/23 22/40/23 11/37/23
f 29/41/24 30/42/24 31/43/24
f 31/43/24 32/44/24 29/41/24
f 29/45/25 32/46/25 25/34/25
f 25/34/25 26/33/25 29/45/25
f 31/47/26 30/48/26 28/36/26
f 28/36/26 27/35/26 31/47/26
f 10/49/27 3/3/27 2/2/27
f 2/2/27 19/50/27 10/49/27
f 14/51/28 1/1/28 4/4/28
f 4/4/28 17/52/28 14/51/28
f 19/28/16 2/6/29 5/5/29
f 5/5/29 20/25/13 19/28/16
f 13/20/11 6/8/30 1/7/30
f 1/7/30 14/17/8 13/20/11
f 9/16/7 8/12/31 3/11/31
f 3/11/31 10/13/4 9/16/7
f 7/9/32 23/29/17 17/32/20
f 17/32/20 4/10/33 7/9/32
f 22/53/34 32/44/34 31/43/34
f 31/43/34 11/54/34 22/53/34
f 18/55/35 30/42/35 29/41/35
f 29/41/35 15/56/35 18/55/35
f 21/26/14 25/34/36 32/46/36
f 32/46/36 22/27/15 21/26/14
f 15/18/9 29/45/37 26/33/37
f 26/33/37 16/19/10 15/18/9
f 11/14/5 31/47/38 27/35/38
f 27/35/38 12/15/6 11/14/5
f 30/48/39 18/31/19 24/30/18
f 24/30/18 28/36/39 30/48/39
f 33/57/40 34/58/41 35/59/42
f 35/59/42 36/60/43 33/57/40
f 38/61/44 39/62/45 40/63/46
f 38/61/44 40/63/46 41/64/47
f 38/61/44 41/64/47 42/65/48
f 37/66/49 38/61/44 42/65/48
f 41/64/47 43/67/50 44/68/51
f 42/65/48 41/64/47 44/68/51
f 44/68/51 45/69/52 46/70/53
f 42/65/48 44/68/51 46/70/53
f 36/71/43 35/72/42 48/73/54
f 48/73/54 47/74/55 36/71/43
f 49/75/56 39/62/45 38/61/44
f 38/61/44 50/76/57 49/75/56
f 51/77/58 45/69/52 44/68/51
f 44/68/51 47/78/55 51/77/58
f 33/79/40 41/64/47 40/63/46
f 40/63/46 52/80/59 33/79/40
f 36/81/43 43/67/50 41/64/47
f 41/64/47 33/79/40 36/81/43
f 53/82/60 37/66/49 42/65/48
f 42/65/48 54/83/61 53/82/60
f 54/83/61 42/65/48 46/70/53
f 46/70/53 55/84/62 54/83/61
f 52/80/59 40/63/46 39/62/45
f 39/62/45 49/75/56 52/80/59
f 50/76/57 38/61/44 37/66/49
f 37/66/49 53/82/60 50/76/57
f 47/78/55 44/68/51 43/67/50
f 43/67/50 36/81/43 47/78/55
f 55/84/62 46/70/53 45/69/52
f 45/69/52 51/77/58 55/84/62
f 53/85/60 54/86/61 56/87/63
f 56/87/63 57/88/64 53/85/60
f 54/86/61 55/89/62 58/90/65
f 58/90/65 56/87/63 54/86/61
f 59/91/66 49/92/56 50/93/57
f 50/93/57 60/94/67 59/91/66
f 48/73/54 61/95/68 51/96/58
f 51/96/58 47/74/55 48/73/54
f 34/58/41 33/57/40 52/97/59
f 52/97/59 62/98/69 34/58/41
f 66/99/70 67/100/71 68/101/72
f 65/102/73 66/99/70 68/101/72
f 64/103/74 65/102/73 68/101/72
f 63/104/75 64/103/74 68/101/72
f 69/105/76 70/106/77 71/107/78
f 64/103/74 69/105/76 71/107/78
f 71/107/78 72/108/79 65/102/73
f 64/103/74 71/107/78 65/102/73
f 50/93/57 53/109/60 57/110/64
f 57/110/64 60/94/67 50/93/57
f 59/111/66 60/112/67 68/101/72
f 68/101/72 67/100/71 59/111/66
f 61/113/68 48/114/54 71/107/78
f 71/107/78 70/106/77 61/113/68
f 34/115/41 62/116/69 66/99/70
f 66/99/70 65/102/73 34/115/41
f 35/117/42 34/115/41 65/102/73
f 65/102/73 72/108/79 35/117/42
f 57/118/64 56/119/63 64/103/74
f 64/103/74 63/104/75 57/118/64
f 56/119/63 58/120/65 69/105/76
f 69/105/76 64/103/74 56/119/63
f 62/116/69 59/111/66 67/100/71
f 67/100/71 66/99/70 62/116/69
f 60/112/67 57/118/64 63/104/75
f 63/104/75 68/101/72 60/112/67
f 48/114/54 35/117/42 72/108/79
f 72/108/79 71/107/78 48/114/54
f 58/120/65 61/113/68 70/106/77
f 70/106/77 69/105/76 58/120/65
f 52/121/59 49/92/56 59/91/66
f 59/91/66 62/122/69 52/121/59
f 51/96/58 61/95/68 58/123/65
f 58/123/65 55/124/62 51/96/58
f 73/125/1 74/126/1 75/127/1
f 75/127/1 76/128/1 73/125/1
f 77/129/22 78/130/22 79/131/22
f 79/131/22 80/132/22 77/129/22
f 81/133/23 82/134/23 83/135/23
f 83/135/23 84/136/23 81/133/23
f 85/137/21 86/138/21 87/139/21
f 87/139/21 88/140/21 85/137/21
f 89/141/12 90/142/12 91/143/12
f 91/143/12 92/144/12 89/141/12
f 91/143/80 73/145/80 78/146/80
f 79/147/81 76/148/81 82/134/81
f 87/149/82 74/150/82 90/142/82
f 83/135/83 75/151/83 86/152/83
f 73/145/28 91/143/28 90/142/28
f 90/142/28 74/150/28 73/145/28
f 74/126/2 87/153/2 86/154/2
f 86/154/2 75/127/2 74/126/2
f 75/151/27 83/135/27 82/134/27
f 82/134/27 76/148/27 75/151/27
f 76/128/3 79/155/3 78/156/3
f 78/156/3 73/125/3 76/128/3
f 77/157/84 92/144/84 91/143/84
f 91/143/84 78/146/84 77/157/84
f 79/147/85 82/134/85 81/133/85
f 81/133/85 80/158/85 79/147/85
f 83/135/86 86/152/86 85/159/86
f 85/159/86 84/136/86 83/135/86
f 87/149/87 90/142/87 89/141/87
f 89/141/87 88/160/87 87/149/87
f 96/161/21 97/162/21 98/163/21
f 95/164/21 96/161/21 98/163/21
f 94/165/21 95/164/21 98/163/21
f 93/166/21 94/165/21 98/163/21
f 93/167/23 98/168/23 99/169/23
f 99/169/23 100/170/23 93/167/23
f 96/171/24 101/172/24 102/173/24
f 102/173/24 97/174/24 96/171/24
f 103/175/88 104/176/88 96/177/88
f 96/177/88 95/178/88 103/175/88
f 96/171/24 104/179/24 101/172/24
f 94/180/1 105/181/1 106/182/1
f 106/182/1 95/183/1 94/180/1
f 103/184/1 95/183/1 106/182/1
f 107/185/21 108/186/21 104/187/21
f 104/187/21 103/188/21 107/185/21
f 109/189/85 100/190/85 99/191/85
f 99/191/85 110/192/85 109/189/85
f 98/193/34 97/174/34 102/173/34
f 102/173/34 99/194/34 98/193/34
f 100/195/27 105/181/27 94/180/27
f 94/180/27 93/196/27 100/195/27
f 109/197/89 106/182/89 105/181/89
f 105/181/89 100/195/89 109/197/89
f 99/194/90 102/173/90 101/172/90
f 101/172/90 110/198/90 99/194/90
f 103/184/1 106/182/1 111/199/1
f 111/199/1 107/200/1 103/184/1
f 106/182/3 109/197/3 112/201/3
f 112/201/3 111/199/3 106/182/3
f 114/202/21 115/203/21 116/204/21
f 114/202/21 116/204/21 117/205/21
f 114/202/21 117/205/21 118/206/21
f 113/207/21 114/202/21 118/206/21
f 113/208/12 119/209/12 120/210/12
f 120/210/12 114/211/12 113/208/12
f 121/212/24 122/213/24 116/214/24
f 116/214/24 115/215/24 121/212/24
f 107/216/91 117/217/91 116/218/91
f 116/218/91 108/219/91 107/216/91
f 116/214/24 122/213/24 108/220/24
f 111/199/1 123/221/1 118/222/1
f 118/222/1 117/223/1 111/199/1
f 107/200/1 111/199/1 117/223/1
f 112/224/22 109/225/22 110/226/22
f 110/226/22 124/227/22 112/224/22
f 108/220/24 122/213/24 101/172/24
f 101/172/24 104/179/24 108/220/24
f 112/228/84 124/229/84 120/230/84
f 120/230/84 119/231/84 112/228/84
f 114/232/35 120/233/35 121/212/35
f 121/212/35 115/215/35 114/232/35
f 119/234/28 113/235/28 118/222/28
f 118/222/28 123/221/28 119/234/28
f 110/198/26 101/172/26 122/213/26
f 122/213/26 124/236/26 110/198/26
f 112/201/92 119/234/92 123/221/92
f 123/221/92 111/199/92 112/201/92
f 120/233/93 124/236/93 122/213/93
f 122/213/93 121/212/93 120/233/93
f 126/237/23 127/238/23 128/239/23
f 128/239/23 129/240/23 130/241/23
f 126/237/23 128/239/23 130/241/23
f 125/242/23 126/237/23 130/241/23
f 131/243/24 132/244/24 133/245/24
f 131/243/24 133/245/24 127/246/24
f 126/247/24 131/243/24 127/246/24
f 137/248/94 138/249/94 139/250/94
f 136/251/95 137/248/94 139/250/94
f 135/252/95 136/251/95 139/250/94
f 134/253/94 135/252/95 139/250/94
f 140/254/1 138/255/1 137/256/1
f 137/256/1 141/257/1 140/254/1
f 143/258/96 144/259/97 145/260/98
f 145/260/98 142/261/99 143/258/96
f 146/262/24 147/263/24 148/264/24
f 148/264/24 149/265/24 146/262/24
f 151/266/100 152/267/100 153/268/101
f 153/268/101 150/269/101 151/266/100
f 142/261/99 145/260/98 155/270/102
f 155/270/102 154/271/103 142/261/99
f 156/272/24 146/262/24 149/265/24
f 149/265/24 157/273/24 156/272/24
f 150/269/101 153/268/101 159/274/104
f 159/274/104 158/275/104 150/269/101
f 160/276/1 161/277/1 162/278/1
f 162/278/1 163/279/1 160/276/1
f 165/280/105 166/281/106 167/282/107
f 167/282/107 164/283/108 165/280/105
f 168/284/1 169/285/1 170/286/1
f 164/283/108 167/282/107 129/287/109
f 129/287/109 128/288/110 164/283/108
f 172/289/111 173/290/112 174/291/113
f 174/291/113 171/292/114 172/289/111
f 175/293/115 176/294/116 173/290/112
f 173/290/112 172/289/111 175/293/115
f 178/295/117 179/296/118 180/297/119
f 180/297/119 177/298/120 178/295/117
f 182/299/121 183/300/122 184/301/123
f 184/301/123 181/302/124 182/299/121
f 186/303/21 187/304/21 188/305/125
f 188/305/125 185/306/126 186/303/21
f 190/307/1 191/308/1 192/309/1
f 192/309/1 189/310/1 190/307/1
f 192/309/1 193/311/1 194/312/1
f 194/312/1 189/310/1 192/309/1
f 195/313/127 196/314/128 179/296/118
f 179/296/118 178/295/117 195/313/127
f 177/298/120 180/297/119 176/294/116
f 176/294/116 175/293/115 177/298/120
f 154/271/103 155/270/102 166/281/106
f 166/281/106 165/280/105 154/271/103
f 160/276/1 163/279/1 170/286/1
f 170/286/1 169/285/1 160/276/1
f 181/302/124 184/301/123 144/259/97
f 144/259/97 143/258/96 181/302/124
f 197/315/24 198/316/24 148/264/24
f 148/264/24 147/263/24 197/315/24
f 185/306/126 188/305/125 152/267/100
f 152/267/100 151/266/100 185/306/126
f 162/278/1 161/277/1 194/312/1
f 194/312/1 193/311/1 162/278/1
f 134/317/129 139/318/130 183/300/122
f 183/300/122 182/299/121 134/317/129
f 140/254/1 141/257/1 191/308/1
f 191/308/1 190/307/1 140/254/1
f 138/319/131 140/320/132 139/318/130
f 135/321/133 134/317/129 199/322/134
f 127/323/135 133/324/136 128/288/110
f 130/325/137 129/287/109 200/326/138
f 139/318/130 140/320/132 190/327/139
f 190/327/139 183/300/122 139/318/130
f 145/260/98 161/328/140 160/329/141
f 160/329/141 155/270/102 145/260/98
f 142/261/99 149/330/142 148/331/143
f 148/331/143 143/258/96 142/261/99
f 155/270/102 160/329/141 169/332/144
f 169/332/144 166/281/106 155/270/102
f 154/271/103 157/333/145 149/330/142
f 149/330/142 142/261/99 154/271/103
f 164/283/108 201/334/146 202/335/147
f 202/335/147 165/280/105 164/283/108
f 167/282/107 168/336/148 200/326/138
f 200/326/138 129/287/109 167/282/107
f 128/288/110 133/324/136 201/334/146
f 201/334/146 164/283/108 128/288/110
f 184/301/123 189/337/149 194/338/150
f 194/338/150 144/259/97 184/301/123
f 181/302/124 198/339/151 203/340/152
f 203/340/152 182/299/121 181/302/124
f 166/281/106 169/332/144 168/336/148
f 168/336/148 167/282/107 166/281/106
f 165/280/105 202/335/147 157/333/145
f 157/333/145 154/271/103 165/280/105
f 144/259/97 194/338/150 161/328/140
f 161/328/140 145/260/98 144/259/97
f 143/258/96 148/331/143 198/339/151
f 198/339/151 181/302/124 143/258/96
f 183/300/122 190/327/139 189/337/149
f 189/337/149 184/301/123 183/300/122
f 182/299/121 203/340/152 199/322/134
f 199/322/134 134/317/129 182/299/121
f 171/292/114 204/341/153 205/342/154
f 205/342/154 172/289/111 171/292/114
f 172/289/111 205/342/154 206/343/155
f 206/343/155 175/293/115 172/289/111
f 173/290/112 132/344/156 131/345/157
f 131/345/157 174/291/113 173/290/112
f 177/298/120 207/346/158 208/347/159
f 208/347/159 178/295/117 177/298/120
f 180/297/119 209/348/160 210/349/161
f 210/349/161 176/294/116 180/297/119
f 208/347/159 211/350/162 195/313/127
f 195/313/127 178/295/117 208/347/159
f 179/296/118 212/351/163 209/348/160
f 209/348/160 180/297/119 179/296/118
f 175/293/115 206/343/155 207/346/158
f 207/346/158 177/298/120 175/293/115
f 176/294/116 210/349/161 132/344/156
f 132/344/156 173/290/112 176/294/116
f 188/305/164 187/304/165 213/352/166
f 213/352/166 197/353/167 188/305/164
f 146/354/168 153/268/169 152/267/170
f 152/267/170 147/355/171 146/354/168
f 150/269/172 162/356/173 193/357/174
f 193/357/174 151/266/175 150/269/172
f 156/358/176 159/274/177 153/268/169
f 153/268/169 146/354/168 156/358/176
f 158/275/178 163/359/179 162/356/173
f 162/356/173 150/269/172 158/275/178
f 185/306/180 192/360/181 191/361/182
f 191/361/182 186/303/183 185/306/180
f 147/355/171 152/267/170 188/305/184
f 188/305/184 197/353/185 147/355/171
f 151/266/175 193/357/174 192/360/186
f 192/360/186 185/306/187 151/266/175
f 211/362/1 208/363/1 170/286/1
f 135/364/24 199/365/24 136/366/24
f 214/367/24 202/368/24 201/369/24
f 156/272/24 157/273/24 202/368/24
f 202/368/24 214/367/24 156/272/24
f 158/275/188 159/274/177 216/370/22
f 216/370/22 215/371/22 158/275/188
f 136/366/24 199/365/24 203/372/24
f 203/372/24 213/373/24 136/366/24
f 212/351/163 179/296/118 196/314/128
f 196/314/128 217/374/189 212/351/163
f 159/274/190 156/358/191 214/375/192
f 214/375/192 216/370/193 159/274/190
f 170/376/194 163/359/195 158/275/196
f 158/275/196 215/371/197 170/376/194
f 198/316/24 197/315/24 213/373/24
f 213/373/24 203/372/24 198/316/24
f 219/377/12 220/378/12 221/379/12
f 221/379/12 222/380/12 223/381/12
f 219/377/12 221/379/12 223/381/12
f 218/382/12 219/377/12 223/381/12
f 214/367/24 217/383/24 224/384/24
f 226/385/198 227/386/199 141/387/199
f 226/385/198 141/387/199 228/388/198
f 226/385/199 228/388/199 229/389/199
f 225/390/198 226/385/199 229/389/199
f 230/391/1 141/257/1 227/392/1
f 234/393/200 231/394/201 232/395/202
f 232/395/202 233/396/203 234/393/200
f 235/397/24 236/398/24 237/399/24
f 237/399/24 238/400/24 235/397/24
f 242/401/204 239/402/205 240/403/205
f 240/403/205 241/404/204 242/401/204
f 231/394/201 243/405/206 244/406/207
f 244/406/207 232/395/202 231/394/201
f 245/407/24 246/408/24 236/398/24
f 236/398/24 235/397/24 245/407/24
f 239/402/205 247/409/208 248/410/208
f 248/410/208 240/403/205 239/402/205
f 249/411/1 250/412/1 251/413/1
f 251/413/1 252/414/1 249/411/1
f 256/415/209 253/416/210 254/417/211
f 254/417/211 255/418/212 256/415/209
f 257/419/1 170/286/1 258/420/1
f 253/416/210 221/421/213 220/422/214
f 220/422/214 254/417/211 253/416/210
f 262/423/215 259/424/216 260/425/217
f 260/425/217 261/426/218 262/423/215
f 264/427/219 262/423/215 261/426/218
f 261/426/218 263/428/220 264/427/219
f 268/429/221 265/430/222 266/431/223
f 266/431/223 267/432/224 268/429/221
f 272/433/225 269/434/226 270/435/227
f 270/435/227 271/436/228 272/433/225
f 186/437/21 273/438/229 274/439/230
f 274/439/230 187/440/21 186/437/21
f 276/441/1 191/308/1 277/442/1
f 277/442/1 275/443/1 276/441/1
f 276/441/1 275/443/1 278/444/1
f 278/444/1 279/445/1 276/441/1
f 195/313/127 268/429/221 267/432/224
f 267/432/224 196/314/128 195/313/127
f 265/430/222 264/427/219 263/428/220
f 263/428/220 266/431/223 265/430/222
f 243/405/206 256/415/209 255/418/212
f 255/418/212 244/406/207 243/405/206
f 170/286/1 250/412/1 249/411/1
f 249/411/1 258/420/1 170/286/1
f 269/434/226 234/393/200 233/396/203
f 233/396/203 270/435/227 269/434/226
f 237/399/24 280/446/24 281/447/24
f 281/447/24 238/400/24 237/399/24
f 273/438/229 242/401/204 241/404/204
f 241/404/204 274/439/230 273/438/229
f 278/444/1 252/414/1 251/413/1
f 251/413/1 279/445/1 278/444/1
f 225/448/231 272/433/225 271/436/228
f 271/436/228 226/449/232 225/448/231
f 191/308/1 141/257/1 230/391/1
f 230/391/1 277/442/1 191/308/1
f 227/450/233 226/449/232 230/451/234
f 229/452/235 282/453/236 225/448/231
f 222/454/237 221/421/213 283/455/238
f 219/456/239 284/457/240 220/422/214
f 226/449/232 271/436/228 277/458/241
f 277/458/241 230/451/234 226/449/232
f 232/395/202 244/406/207 249/459/242
f 249/459/242 252/460/243 232/395/202
f 231/394/201 234/393/200 237/461/244
f 237/461/244 236/462/245 231/394/201
f 244/406/207 255/418/212 258/463/246
f 258/463/246 249/459/242 244/406/207
f 243/405/206 231/394/201 236/462/245
f 236/462/245 246/464/247 243/405/206
f 253/416/210 256/415/209 285/465/248
f 285/465/248 286/466/249 253/416/210
f 254/417/211 220/422/214 284/457/240
f 284/457/240 257/467/250 254/417/211
f 221/421/213 253/416/210 286/466/249
f 286/466/249 283/455/238 221/421/213
f 270/435/227 233/396/203 278/468/251
f 278/468/251 275/469/252 270/435/227
f 269/434/226 272/433/225 287/470/253
f 287/470/253 280/471/254 269/434/226
f 255/418/212 254/417/211 257/467/250
f 257/467/250 258/463/246 255/418/212
f 256/415/209 243/405/206 246/464/247
f 246/464/247 285/465/248 256/415/209
f 233/396/203 232/395/202 252/460/243
f 252/460/243 278/468/251 233/396/203
f 234/393/200 269/434/226 280/471/254
f 280/471/254 237/461/244 234/393/200
f 271/436/228 270/435/227 275/469/252
f 275/469/252 277/458/241 271/436/228
f 272/433/225 225/448/231 282/453/236
f 282/453/236 287/470/253 272/433/225
f 259/424/216 262/423/215 288/472/255
f 288/472/255 289/473/256 259/424/216
f 262/423/215 264/427/219 290/474/257
f 290/474/257 288/472/255 262/423/215
f 261/426/218 260/425/217 291/475/258
f 291/475/259 292/476/260 261/426/218
f 265/430/222 268/429/221 293/477/261
f 293/477/261 294/478/262 265/430/222
f 266/431/223 263/428/220 295/479/263
f 295/479/263 296/480/264 266/431/223
f 293/477/261 268/429/221 195/313/127
f 195/313/127 211/350/162 293/477/261
f 267/432/224 266/431/223 296/480/264
f 296/480/264 224/481/265 267/432/224
f 264/427/219 265/430/222 294/478/262
f 294/478/262 290/474/257 264/427/219
f 263/428/220 261/426/218 292/476/260
f 292/476/260 295/479/263 263/428/220
f 274/439/266 281/482/267 213/483/166
f 213/483/166 187/440/165 274/439/266
f 235/484/268 238/485/269 241/404/270
f 241/404/270 240/403/271 235/484/268
f 239/402/272 242/401/273 279/486/274
f 279/486/274 251/487/275 239/402/272
f 245/488/276 235/484/268 240/403/271
f 240/403/271 248/410/277 245/488/276
f 247/409/278 239/402/272 251/487/275
f 251/487/275 250/489/279 247/409/278
f 273/438/280 186/437/183 191/490/182
f 191/490/182 276/491/281 273/438/280
f 238/485/269 281/482/282 274/439/283
f 274/439/283 241/404/270 238/485/269
f 242/401/273 273/438/284 276/491/285
f 276/491/285 279/486/274 242/401/273
f 257/419/1 290/492/1 294/493/1
f 294/493/1 170/286/1 257/419/1
f 282/494/24 229/495/24 228/496/24
f 228/496/24 136/366/24 282/494/24
f 214/367/24 286/497/24 285/498/24
f 285/498/24 246/408/24 245/407/24
f 245/407/24 214/367/24 285/498/24
f 247/409/286 215/499/22 216/500/22
f 216/500/22 248/410/277 247/409/286
f 136/366/24 213/373/24 287/501/24
f 287/501/24 282/494/24 136/366/24
f 224/481/265 217/374/189 196/314/128
f 196/314/128 267/432/224 224/481/265
f 248/410/287 216/500/193 214/502/192
f 214/502/192 245/488/288 248/410/287
f 170/503/194 215/499/197 247/409/289
f 247/409/289 250/489/290 170/503/194
f 213/373/24 281/447/24 280/446/24
f 280/446/24 287/501/24 213/373/24
f 208/363/1 207/504/1 170/286/1
f 207/504/1 206/505/1 168/284/1
f 168/284/1 170/286/1 207/504/1
f 293/506/1 211/362/1 170/286/1
f 294/493/1 293/506/1 170/286/1
f 219/507/1 218/508/1 289/509/1
f 219/507/1 289/509/1 288/510/1
f 284/511/1 219/507/1 288/510/1
f 206/505/1 205/512/1 200/513/1
f 200/513/1 168/284/1 206/505/1
f 205/512/1 204/514/1 125/515/1
f 125/515/1 130/516/1 200/513/1
f 205/512/1 125/515/1 200/513/1
f 288/510/1 290/492/1 257/419/1
f 257/419/1 284/511/1 288/510/1
f 212/517/24 217/383/24 214/367/24
f 224/384/24 296/518/24 214/367/24
f 296/518/24 295/519/24 286/497/24
f 286/497/24 214/367/24 296/518/24
f 209/520/24 212/517/24 214/367/24
f 209/520/24 214/367/24 201/369/24
f 201/369/24 210/521/24 209/520/24
f 132/244/24 210/521/24 201/369/24
f 201/369/24 133/245/24 132/244/24
f 295/519/24 292/522/24 283/523/24
f 283/523/24 286/497/24 295/519/24
f 292/522/24 291/524/24 223/525/24
f 223/525/24 222/526/24 283/523/24
f 292/522/24 223/525/24 283/523/24
f 297/125/24 300/128/24 299/127/24
f 299/127/24 298/126/24 297/125/24
f 301/129/22 304/132/22 303/131/22
f 303/131/22 302/130/22 301/129/22
f 305/133/23 308/136/23 307/135/23
f 307/135/23 306/134/23 305/133/23
f 309/137/21 312/140/21 311/139/21
f 311/139/21 310/138/21 309/137/21
f 313/141/12 316/144/12 315/143/12
f 315/143/12 314/142/12 313/141/12
f 315/143/291 302/146/291 297/145/291
f 303/147/292 306/134/292 300/148/292
f 311/149/293 314/142/293 298/150/293
f 307/135/294 310/152/294 299/151/294
f 297/145/35 298/150/35 314/142/35
f 314/142/35 315/143/35 297/145/35
f 298/126/25 299/127/25 310/154/25
f 310/154/25 311/153/25 298/126/25
f 299/151/34 300/148/34 306/134/34
f 306/134/34 307/135/34 299/151/34
f 300/128/26 297/125/26 302/156/26
f 302/156/26 303/155/26 300/128/26
f 301/157/84 302/146/84 315/143/84
f 315/143/84 316/144/84 301/157/84
f 303/147/85 304/158/85 305/133/85
f 305/133/85 306/134/85 303/147/85
f 307/135/86 308/136/86 309/159/86
f 309/159/86 310/152/86 307/135/86
f 311/149/87 312/160/87 313/141/87
f 313/141/87 314/142/87 311/149/87
f 322/163/21 321/162/21 320/161/21
f 322/163/21 320/161/21 319/164/21
f 322/163/21 319/164/21 318/165/21
f 317/166/21 322/163/21 318/165/21
f 317/167/23 324/170/23 323/169/23
f 323/169/23 322/168/23 317/167/23
f 320/171/1 321/174/1 326/173/1
f 326/173/1 325/172/1 320/171/1
f 327/175/88 319/178/88 320/177/88
f 320/177/88 328/176/88 327/175/88
f 320/171/1 325/172/1 328/179/1
f 318/180/24 319/183/24 330/182/24
f 330/182/24 329/181/24 318/180/24
f 327/184/24 330/182/24 319/183/24
f 331/185/21 327/188/21 328/187/21
f 328/187/21 332/186/21 331/185/21
f 333/189/85 334/192/85 323/191/85
f 323/191/85 324/190/85 333/189/85
f 322/193/27 323/194/27 326/173/27
f 326/173/27 321/174/27 322/193/27
f 324/195/34 317/196/34 318/180/34
f 318/180/34 329/181/34 324/195/34
f 333/197/90 324/195/90 329/181/90
f 329/181/90 330/182/90 333/197/90
f 323/194/89 334/198/89 325/172/89
f 325/172/89 326/173/89 323/194/89
f 327/184/24 331/200/24 335/199/24
f 335/199/24 330/182/24 327/184/24
f 330/182/26 335/199/26 336/201/26
f 336/201/26 333/197/26 330/182/26
f 340/204/21 339/203/21 338/202/21
f 341/205/21 340/204/21 338/202/21
f 342/206/21 341/205/21 338/202/21
f 337/207/21 342/206/21 338/202/21
f 337/208/12 338/211/12 344/210/12
f 344/210/12 343/209/12 337/208/12
f 345/212/1 339/215/1 340/214/1
f 340/214/1 346/213/1 345/212/1
f 331/216/91 332/219/91 340/218/91
f 340/218/91 341/217/91 331/216/91
f 340/214/1 332/220/1 346/213/1
f 335/199/24 341/223/24 342/222/24
f 342/222/24 347/221/24 335/199/24
f 331/200/24 341/223/24 335/199/24
f 336/224/22 348/227/22 334/226/22
f 334/226/22 333/225/22 336/224/22
f 332/220/1 328/179/1 325/172/1
f 325/172/1 346/213/1 332/220/1
f 336/228/84 343/231/84 344/230/84
f 344/230/84 348/229/84 336/228/84
f 338/232/28 339/215/28 345/212/28
f 345/212/28 344/233/28 338/232/28
f 343/234/35 347/221/35 342/222/35
f 342/222/35 337/235/35 343/234/35
f 334/198/3 348/236/3 346/213/3
f 346/213/3 325/172/3 334/198/3
f 336/201/93 335/199/93 347/221/93
f 347/221/93 343/234/93 336/201/93
f 344/233/92 345/212/92 346/213/92
f 346/213/92 348/236/92 344/233/92
f 354/241/23 353/240/23 352/239/23
f 352/239/23 351/238/23 350/237/23
f 354/241/23 352/239/23 350/237/23
f 349/242/23 354/241/23 350/237/23
f 357/245/1 356/244/1 355/243/1
f 351/246/1 357/245/1 355/243/1
f 350/247/1 351/246/1 355/243/1
f 363/250/94 362/249/94 361/248/94
f 363/250/94 361/248/94 360/251/94
f 363/250/95 360/251/95 359/252/95
f 358/253/94 363/250/95 359/252/95
f 364/254/24 365/257/24 361/256/24
f 361/256/24 362/255/24 364/254/24
f 367/258/295 366/261/296 369/260/297
f 369/260/297 368/259/298 367/258/295
f 370/262/1 373/265/1 372/264/1
f 372/264/1 371/263/1 370/262/1
f 375/266/100 374/269/101 377/268/101
f 377/268/101 376/267/100 375/266/100
f 366/261/296 378/271/299 379/270/300
f 379/270/300 369/260/297 366/261/296
f 380/272/1 381/273/1 373/265/1
f 373/265/1 370/262/1 380/272/1
f 374/269/101 382/275/104 383/274/104
f 383/274/104 377/268/101 374/269/101
f 384/276/24 387/279/24 386/278/24
f 386/278/24 385/277/24 384/276/24
f 389/280/301 388/283/302 391/282/303
f 391/282/303 390/281/304 389/280/301
f 392/284/24 394/286/24 393/285/24
f 388/283/302 352/288/305 353/287/306
f 353/287/306 391/282/303 388/283/302
f 396/289/307 395/292/308 398/291/309
f 398/291/309 397/290/310 396/289/307
f 399/293/311 396/289/307 397/290/310
f 397/290/310 400/294/312 399/293/311
f 402/295/313 401/298/314 404/297/315
f 404/297/315 403/296/316 402/295/313
f 406/299/317 405/302/318 408/301/319
f 408/301/319 407/300/320 406/299/317
f 410/303/21 409/306/126 412/305/125
f 412/305/125 411/304/21 410/303/21
f 414/307/24 413/310/24 416/309/24
f 416/309/24 415/308/24 414/307/24
f 416/309/24 413/310/24 418/312/24
f 418/312/24 417/311/24 416/309/24
f 419/313/128 402/295/313 403/296/316
f 403/296/316 420/314/127 419/313/128
f 401/298/314 399/293/311 400/294/312
f 400/294/312 404/297/315 401/298/314
f 378/271/299 389/280/301 390/281/304
f 390/281/304 379/270/300 378/271/299
f 384/276/24 393/285/24 394/286/24
f 394/286/24 387/279/24 384/276/24
f 405/302/318 367/258/295 368/259/298
f 368/259/298 408/301/319 405/302/318
f 421/315/1 371/263/1 372/264/1
f 372/264/1 422/316/1 421/315/1
f 409/306/126 375/266/100 376/267/100
f 376/267/100 412/305/125 409/306/126
f 386/278/24 417/311/24 418/312/24
f 418/312/24 385/277/24 386/278/24
f 358/317/321 406/299/317 407/300/320
f 407/300/320 363/318/322 358/317/321
f 364/254/24 414/307/24 415/308/24
f 415/308/24 365/257/24 364/254/24
f 362/319/323 363/318/322 364/320/324
f 359/321/325 423/322/326 358/317/321
f 351/323/327 352/288/305 357/324/328
f 354/325/329 424/326/330 353/287/306
f 363/318/322 407/300/320 414/327/331
f 414/327/331 364/320/324 363/318/322
f 369/260/297 379/270/300 384/329/332
f 384/329/332 385/328/333 369/260/297
f 366/261/296 367/258/295 372/331/334
f 372/331/334 373/330/335 366/261/296
f 379/270/300 390/281/304 393/332/336
f 393/332/336 384/329/332 379/270/300
f 378/271/299 366/261/296 373/330/335
f 373/330/335 381/333/337 378/271/299
f 388/283/302 389/280/301 426/335/338
f 426/335/338 425/334/339 388/283/302
f 391/282/303 353/287/306 424/326/330
f 424/326/330 392/336/340 391/282/303
f 352/288/305 388/283/302 425/334/339
f 425/334/339 357/324/328 352/288/305
f 408/301/319 368/259/298 418/338/341
f 418/338/341 413/337/342 408/301/319
f 405/302/318 406/299/317 427/340/343
f 427/340/343 422/339/344 405/302/318
f 390/281/304 391/282/303 392/336/340
f 392/336/340 393/332/336 390/281/304
f 389/280/301 378/271/299 381/333/337
f 381/333/337 426/335/338 389/280/301
f 368/259/298 369/260/297 385/328/333
f 385/328/333 418/338/341 368/259/298
f 367/258/295 405/302/318 422/339/344
f 422/339/344 372/331/334 367/258/295
f 407/300/320 408/301/319 413/337/342
f 413/337/342 414/327/331 407/300/320
f 406/299/317 358/317/321 423/322/326
f 423/322/326 427/340/343 406/299/317
f 395/292/308 396/289/307 429/342/345
f 429/342/345 428/341/346 395/292/308
f 396/289/307 399/293/311 430/343/347
f 430/343/347 429/342/345 396/289/307
f 397/290/310 398/291/309 355/345/348
f 355/345/349 356/344/350 397/290/310
f 401/298/314 402/295/313 432/347/351
f 432/347/351 431/346/352 401/298/314
f 404/297/315 400/294/312 434/349/353
f 434/349/353 433/348/354 404/297/315
f 432/347/351 402/295/313 419/313/128
f 419/313/128 435/350/189 432/347/351
f 403/296/316 404/297/315 433/348/354
f 433/348/354 436/351/355 403/296/316
f 399/293/311 401/298/314 431/346/352
f 431/346/352 430/343/347 399/293/311
f 400/294/312 397/290/310 356/344/350
f 356/344/350 434/349/353 400/294/312
f 412/305/356 421/353/357 437/352/358
f 437/352/358 411/304/359 412/305/356
f 370/354/360 371/355/361 376/267/362
f 376/267/362 377/268/363 370/354/360
f 374/269/364 375/266/365 417/357/366
f 417/357/366 386/356/367 374/269/364
f 380/358/368 370/354/360 377/268/363
f 377/268/363 383/274/369 380/358/368
f 382/275/370 374/269/364 386/356/367
f 386/356/367 387/359/371 382/275/370
f 409/306/372 410/303/373 415/361/374
f 415/361/374 416/360/375 409/306/372
f 371/355/361 421/353/376 412/305/377
f 412/305/377 376/267/362 371/355/361
f 375/266/365 409/306/378 416/360/379
f 416/360/379 417/357/366 375/266/365
f 435/362/24 394/286/24 432/363/24
f 359/364/1 360/366/1 423/365/1
f 438/367/1 425/369/1 426/368/1
f 380/272/1 438/367/1 426/368/1
f 426/368/1 381/273/1 380/272/1
f 382/275/188 439/371/22 440/370/22
f 440/370/22 383/274/369 382/275/188
f 360/366/1 437/373/1 427/372/1
f 427/372/1 423/365/1 360/366/1
f 436/351/355 441/374/162 420/314/127
f 420/314/127 403/296/316 436/351/355
f 383/274/196 440/370/197 438/375/194
f 438/375/194 380/358/380 383/274/196
f 394/376/192 439/371/193 382/275/190
f 382/275/190 387/359/191 394/376/192
f 422/316/1 427/372/1 437/373/1
f 437/373/1 421/315/1 422/316/1
f 447/381/12 446/380/12 445/379/12
f 445/379/12 444/378/12 443/377/12
f 447/381/12 445/379/12 443/377/12
f 442/382/12 447/381/12 443/377/12
f 438/367/1 448/384/1 441/383/1
f 365/387/198 451/386/198 450/385/198
f 452/388/198 365/387/198 450/385/198
f 453/389/198 452/388/198 450/385/198
f 449/390/199 453/389/198 450/385/198
f 454/391/24 451/392/24 365/257/24
f 458/393/381 457/396/382 456/395/383
f 456/395/383 455/394/384 458/393/381
f 459/397/1 462/400/1 461/399/1
f 461/399/1 460/398/1 459/397/1
f 466/401/204 465/404/204 464/403/205
f 464/403/205 463/402/205 466/401/204
f 455/394/384 456/395/383 468/406/385
f 468/406/385 467/405/386 455/394/384
f 469/407/1 459/397/1 460/398/1
f 460/398/1 470/408/1 469/407/1
f 463/402/205 464/403/205 472/410/208
f 472/410/208 471/409/208 463/402/205
f 473/411/24 476/414/24 475/413/24
f 475/413/24 474/412/24 473/411/24
f 480/415/387 479/418/388 478/417/389
f 478/417/389 477/416/390 480/415/387
f 481/419/24 482/420/24 394/286/24
f 477/416/390 478/417/389 444/422/391
f 444/422/391 445/421/392 477/416/390
f 486/423/393 485/426/394 484/425/395
f 484/425/395 483/424/396 486/423/393
f 488/427/397 487/428/398 485/426/394
f 485/426/394 486/423/393 488/427/397
f 492/429/399 491/432/400 490/431/401
f 490/431/401 489/430/402 492/429/399
f 496/433/403 495/436/404 494/435/405
f 494/435/405 493/434/406 496/433/403
f 410/437/21 411/440/21 498/439/230
f 498/439/230 497/438/229 410/437/21
f 500/441/24 499/443/24 501/442/24
f 501/442/24 415/308/24 500/441/24
f 500/441/24 503/445/24 502/444/24
f 502/444/24 499/443/24 500/441/24
f 419/313/128 420/314/127 491/432/400
f 491/432/400 492/429/399 419/313/128
f 489/430/402 490/431/401 487/428/398
f 487/428/398 488/427/397 489/430/402
f 467/405/386 468/406/385 479/418/388
f 479/418/388 480/415/387 467/405/386
f 394/286/24 482/420/24 473/411/24
f 473/411/24 474/412/24 394/286/24
f 493/434/406 494/435/405 457/396/382
f 457/396/382 458/393/381 493/434/406
f 461/399/1 462/400/1 505/447/1
f 505/447/1 504/446/1 461/399/1
f 497/438/229 498/439/230 465/404/204
f 465/404/204 466/401/204 497/438/229
f 502/444/24 503/445/24 475/413/24
f 475/413/24 476/414/24 502/444/24
f 449/448/407 450/449/408 495/436/404
f 495/436/404 496/433/403 449/448/407
f 415/308/24 501/442/24 454/391/24
f 454/391/24 365/257/24 415/308/24
f 451/450/409 454/451/410 450/449/408
f 453/452/411 449/448/407 506/453/412
f 446/454/413 507/455/414 445/421/392
f 443/456/415 444/422/391 508/457/416
f 450/449/408 454/451/410 501/458/417
f 501/458/417 495/436/404 450/449/408
f 456/395/383 476/460/418 473/459/419
f 473/459/419 468/406/385 456/395/383
f 455/394/384 460/462/420 461/461/421
f 461/461/421 458/393/381 455/394/384
f 468/406/385 473/459/419 482/463/422
f 482/463/422 479/418/388 468/406/385
f 467/405/386 470/464/423 460/462/420
f 460/462/420 455/394/384 467/405/386
f 477/416/390 510/466/424 509/465/425
f 509/465/425 480/415/387 477/416/390
f 478/417/389 481/467/426 508/457/416
f 508/457/416 444/422/391 478/417/389
f 445/421/392 507/455/414 510/466/424
f 510/466/424 477/416/390 445/421/392
f 494/435/405 499/469/427 502/468/428
f 502/468/428 457/396/382 494/435/405
f 493/434/406 504/471/429 511/470/430
f 511/470/430 496/433/403 493/434/406
f 479/418/388 482/463/422 481/467/426
f 481/467/426 478/417/389 479/418/388
f 480/415/387 509/465/425 470/464/423
f 470/464/423 467/405/386 480/415/387
f 457/396/382 502/468/428 476/460/418
f 476/460/418 456/395/383 457/396/382
f 458/393/381 461/461/421 504/471/429
f 504/471/429 493/434/406 458/393/381
f 495/436/404 501/458/417 499/469/427
f 499/469/427 494/435/405 495/436/404
f 496/433/403 511/470/430 506/453/412
f 506/453/412 449/448/407 496/433/403
f 483/424/396 513/473/431 512/472/432
f 512/472/432 486/423/393 483/424/396
f 486/423/393 512/472/432 514/474/433
f 514/474/433 488/427/397 486/423/393
f 485/426/394 516/476/434 515/475/435
f 515/475/435 484/425/395 485/426/394
f 489/430/402 518/478/436 517/477/437
f 517/477/437 492/429/399 489/430/402
f 490/431/401 520/480/438 519/479/439
f 519/479/439 487/428/398 490/431/401
f 517/477/437 435/350/189 419/313/128
f 419/313/128 492/429/399 517/477/437
f 491/432/400 448/481/440 520/480/438
f 520/480/438 490/431/401 491/432/400
f 488/427/397 514/474/433 518/478/436
f 518/478/436 489/430/402 488/427/397
f 487/428/398 519/479/439 516/476/434
f 516/476/434 485/426/394 487/428/398
f 498/439/441 411/440/359 437/483/358
f 437/483/358 505/482/442 498/439/441
f 459/484/443 464/403/444 465/404/445
f 465/404/445 462/485/446 459/484/443
f 463/402/447 475/487/448 503/486/449
f 503/486/449 466/401/450 463/402/447
f 469/488/451 472/410/452 464/403/444
f 464/403/444 459/484/443 469/488/451
f 471/409/453 474/489/454 475/487/448
f 475/487/448 463/402/447 471/409/453
f 497/438/455 500/491/456 415/490/374
f 415/490/374 410/437/373 497/438/455
f 462/485/446 465/404/445 498/439/457
f 498/439/457 505/482/458 462/485/446
f 466/401/450 503/486/449 500/491/459
f 500/491/459 497/438/460 466/401/450
f 481/419/24 394/286/24 518/493/24
f 518/493/24 514/492/24 481/419/24
f 506/494/1 360/366/1 452/496/1
f 452/496/1 453/495/1 506/494/1
f 438/367/1 509/498/1 510/497/1
f 509/498/1 438/367/1 469/407/1
f 469/407/1 470/408/1 509/498/1
f 471/409/286 472/410/452 440/500/22
f 440/500/22 439/499/22 471/409/286
f 360/366/1 506/494/1 511/501/1
f 511/501/1 437/373/1 360/366/1
f 448/481/440 491/432/400 420/314/127
f 420/314/127 441/374/162 448/481/440
f 472/410/289 469/488/461 438/502/194
f 438/502/194 440/500/197 472/410/289
f 394/503/192 474/489/288 471/409/287
f 471/409/287 439/499/193 394/503/192
f 437/373/1 511/501/1 504/446/1
f 504/446/1 505/447/1 437/373/1
f 432/363/24 394/286/24 431/504/24
f 431/504/24 394/286/24 392/284/24
f 392/284/24 430/505/24 431/504/24
f 517/506/24 394/286/24 435/362/24
f 518/493/24 394/286/24 517/506/24
f 513/509/24 442/508/24 443/507/24
f 512/510/24 513/509/24 443/507/24
f 508/511/24 512/510/24 443/507/24
f 430/505/24 392/284/24 424/513/24
f 424/513/24 429/512/24 430/505/24
f 424/513/24 354/516/24 349/515/24
f 429/512/24 424/513/24 349/515/24
f 429/512/24 349/515/24 428/514/24
f 512/510/24 508/511/24 481/419/24
f 481/419/24 514/492/24 512/510/24
f 436/517/1 438/367/1 441/383/1
f 448/384/1 438/367/1 520/518/1
f 520/518/1 438/367/1 510/497/1
f 510/497/1 519/519/1 520/518/1
f 433/520/1 438/367/1 436/517/1
f 433/520/1 434/521/1 425/369/1
f 425/369/1 438/367/1 433/520/1
f 356/244/1 357/245/1 425/369/1
f 425/369/1 434/521/1 356/244/1
f 519/519/1 510/497/1 507/523/1
f 507/523/1 516/522/1 519/519/1
f 507/523/1 446/526/1 447/525/1
f 516/522/1 507/523/1 447/525/1
f 516/522/1 447/525/1 515/524/1
